<svg width="54" height="46" viewBox="0 0 54 46" fill="none" xmlns="http://www.w3.org/2000/svg">
<rect x="0.5" y="0.5" width="52.36" height="45" rx="8.5" fill="white" stroke="black"/>
<path d="M32.298 16.8338L32.3214 16.8642H32.3598H32.7651C33.8024 16.8654 34.7968 17.278 35.5303 18.0115C36.2638 18.7449 36.6764 19.7394 36.6776 20.7766V28.7573C36.6764 29.7946 36.2638 30.789 35.5303 31.5225C34.7968 32.2559 33.8024 32.6685 32.7651 32.6698H21.5921C20.5548 32.6685 19.5604 32.2559 18.8269 31.5225C18.0935 30.789 17.6809 29.7946 17.6796 28.7573L17.6796 20.7766C17.6809 19.7393 18.0935 18.7449 18.8269 18.0115C19.5604 17.278 20.5548 16.8654 21.5921 16.8642H21.9974H22.0358L22.0593 16.8338L23.8021 14.5738C23.8021 14.5738 23.8022 14.5737 23.8022 14.5737C24.0196 14.294 24.2977 14.0675 24.6156 13.9113C24.9334 13.755 25.2827 13.6731 25.6369 13.6718H28.7204C29.0746 13.6731 29.4238 13.755 29.7417 13.9113C30.0596 14.0675 30.3377 14.2941 30.5551 14.5737C30.5551 14.5738 30.5551 14.5738 30.5551 14.5738L32.298 16.8338ZM24.9429 15.4534L24.9428 15.4535L23.9516 16.7384L23.8546 16.8642H24.0134H30.3438H30.5027L30.4057 16.7384L29.4144 15.4535L29.4143 15.4533C29.3322 15.3475 29.2271 15.2618 29.1069 15.2026C28.9868 15.1435 28.8548 15.1124 28.7209 15.1119H28.7205L25.6367 15.1119L25.6365 15.1119C25.5025 15.1123 25.3704 15.1433 25.2502 15.2025C25.13 15.2617 25.0249 15.3475 24.9429 15.4534ZM34.5134 30.5056C34.9771 30.042 35.2376 29.4131 35.2376 28.7574V20.7765C35.2376 20.1208 34.9771 19.492 34.5134 19.0283C34.0498 18.5647 33.4209 18.3042 32.7652 18.3042H21.592C20.9363 18.3042 20.3074 18.5647 19.8438 19.0283C19.3801 19.492 19.1197 20.1208 19.1197 20.7765V28.7574C19.1197 29.4131 19.3801 30.042 19.8438 30.5056C20.3074 30.9693 20.9363 31.2298 21.592 31.2298H32.7652C33.4209 31.2298 34.0498 30.9693 34.5134 30.5056Z" fill="black" stroke="white" stroke-width="0.156148"/>
<path d="M24.1141 20.4517C25.02 19.8465 26.085 19.5234 27.1745 19.5234C28.635 19.5249 30.0353 20.1057 31.068 21.1384C32.1008 22.1712 32.6816 23.5715 32.6831 25.032C32.683 26.1215 32.36 27.1865 31.7547 28.0923C31.1494 28.9982 30.2891 29.7042 29.2825 30.1212C28.276 30.5381 27.1684 30.6472 26.0998 30.4346C25.0313 30.2221 24.0498 29.6974 23.2794 28.9271C22.509 28.1567 21.9844 27.1751 21.7718 26.1066C21.5593 25.038 21.6684 23.9305 22.0853 22.9239C22.5022 21.9173 23.2083 21.057 24.1141 20.4517ZM25.062 28.1936C25.6873 28.6114 26.4225 28.8344 27.1745 28.8344C28.183 28.8344 29.1502 28.4338 29.8633 27.7207C30.5764 27.0076 30.977 26.0404 30.977 25.0319C30.977 24.2799 30.754 23.5447 30.3362 22.9194C29.9183 22.2941 29.3245 21.8067 28.6297 21.5189C27.9348 21.2311 27.1703 21.1558 26.4327 21.3025C25.6951 21.4492 25.0175 21.8114 24.4857 22.3432C23.954 22.875 23.5918 23.5525 23.4451 24.2901C23.2984 25.0277 23.3737 25.7923 23.6615 26.4871C23.9493 27.1819 24.4366 27.7758 25.062 28.1936Z" fill="black" stroke="white" stroke-width="0.156148"/>
</svg>
