<svg width="116" height="100" viewBox="0 0 116 100" fill="none" xmlns="http://www.w3.org/2000/svg">
<rect x="0.5" y="0.5" width="115" height="99" rx="19.5" fill="white" stroke="#388F91" stroke-dasharray="4 4"/>
<g clip-path="url(#clip0_1091_8159)">
<path d="M65.9963 46.8208C64.8871 42.402 60.4058 39.7191 55.987 40.8283C52.5339 41.6952 50.0265 44.6797 49.7681 48.2306C47.3162 48.635 45.6563 50.9504 46.0607 53.4023C46.4201 55.5821 48.3089 57.1784 50.518 57.1696H54.2676V55.6698H50.518C48.8614 55.6698 47.5184 54.3268 47.5184 52.6701C47.5184 51.0135 48.8614 49.6705 50.518 49.6705C50.9322 49.6705 51.2679 49.3347 51.2679 48.9205C51.2642 45.193 54.2829 42.1682 58.0105 42.1645C61.2372 42.1613 64.0148 44.4424 64.639 47.6082C64.7006 47.9243 64.9571 48.1657 65.2764 48.2081C67.3266 48.5001 68.7519 50.3987 68.46 52.4489C68.1978 54.2898 66.626 55.6605 64.7665 55.6698H61.7668V57.1696H64.7665C67.6656 57.1609 70.0088 54.8035 70 51.9043C69.9926 49.491 68.3408 47.3935 65.9963 46.8208Z" fill="#388F91"/>
<path d="M57.4845 49.8861L54.4849 52.8857L55.5422 53.9431L57.2671 52.2258V59.4175H58.7669V52.2258L60.4842 53.9431L61.5416 52.8857L58.5419 49.8861C58.2494 49.5953 57.777 49.5953 57.4845 49.8861Z" fill="#388F91"/>
</g>
<defs>
<clipPath id="clip0_1091_8159">
<rect width="24" height="24" fill="white" transform="translate(46 38)"/>
</clipPath>
</defs>
</svg>
