<svg width="116" height="100" viewBox="0 0 116 100" fill="none" xmlns="http://www.w3.org/2000/svg">
<rect x="0.5" y="0.5" width="115" height="99" rx="19.5" fill="white" stroke="#388F91" stroke-dasharray="4 4"/>
<path d="M62.4968 39.1958L62.5225 39.2291H62.5646H63C64.1135 39.2305 65.181 39.6734 65.9684 40.4608C66.7558 41.2482 67.1987 42.3157 67.2001 43.4292V52.0005C67.1987 53.114 66.7558 54.1815 65.9684 54.9689C65.181 55.7563 64.1135 56.1992 63 56.2006H51.0002C49.8866 56.1992 48.8191 55.7563 48.0317 54.9689C47.2443 54.1815 46.8014 53.114 46.8001 52.0005L46.8001 43.4292C46.8014 42.3157 47.2444 41.2482 48.0317 40.4608C48.8191 39.6734 49.8866 39.2305 51.0002 39.2291H51.4355H51.4776L51.5034 39.1958L53.3752 36.7686C53.3752 36.7685 53.3752 36.7685 53.3753 36.7685C53.6085 36.4683 53.907 36.2252 54.2482 36.0575C54.5893 35.8898 54.9641 35.802 55.3442 35.8006H58.6559C59.036 35.802 59.4108 35.8898 59.752 36.0575C60.0931 36.2252 60.3916 36.4684 60.6249 36.7685C60.6249 36.7685 60.6249 36.7686 60.625 36.7686L62.4968 39.1958ZM54.5974 37.7109L54.5973 37.7111L53.5328 39.0911L53.4263 39.2291H53.6006H60.3995H60.5739L60.4674 39.0911L59.4028 37.7111L59.4026 37.7109C59.3143 37.597 59.2012 37.5048 59.0719 37.4411C58.9426 37.3774 58.8005 37.344 58.6564 37.3434H58.6561L55.3441 37.3434L55.3438 37.3434C55.1996 37.3439 55.0575 37.3772 54.9281 37.4409C54.7988 37.5046 54.6857 37.597 54.5974 37.7109ZM64.879 53.8794C65.3773 53.3811 65.6572 52.7053 65.6572 52.0006V43.4291C65.6572 42.7244 65.3773 42.0486 64.879 41.5502C64.3806 41.0519 63.7048 40.772 63.0001 40.772H51.0001C50.2954 40.772 49.6195 41.0519 49.1212 41.5502C48.6229 42.0486 48.3429 42.7244 48.3429 43.4291V52.0006C48.3429 52.7053 48.6229 53.3811 49.1212 53.8794C49.6195 54.3778 50.2954 54.6577 51.0001 54.6577H63.0001C63.7048 54.6577 64.3806 54.3778 64.879 53.8794Z" fill="#388F91" stroke="white" stroke-width="0.171429"/>
<path d="M53.7142 43.0825C54.6868 42.4326 55.8302 42.0857 57 42.0857C58.5681 42.0873 60.0715 42.7109 61.1803 43.8197C62.2891 44.9285 62.9127 46.432 62.9143 48.0001C62.9143 49.1698 62.5674 50.3132 61.9176 51.2858C61.2677 52.2584 60.344 53.0164 59.2633 53.4641C58.1826 53.9117 56.9934 54.0288 55.8462 53.8006C54.6989 53.5724 53.6451 53.0092 52.818 52.182C51.9908 51.3549 51.4276 50.3011 51.1994 49.1538C50.9712 48.0066 51.0883 46.8174 51.5359 45.7367C51.9836 44.656 52.7416 43.7323 53.7142 43.0825ZM54.7301 51.3971C55.402 51.8461 56.1919 52.0857 57 52.0857C58.0836 52.0857 59.1228 51.6553 59.889 50.889C60.6553 50.1228 61.0857 49.0836 61.0857 48C61.0857 47.1919 60.8461 46.402 60.3972 45.7301C59.9482 45.0582 59.3101 44.5345 58.5635 44.2253C57.817 43.9161 56.9955 43.8351 56.2029 43.9928C55.4104 44.1504 54.6824 44.5396 54.111 45.111C53.5396 45.6824 53.1504 46.4104 52.9928 47.2029C52.8351 47.9955 52.9161 48.817 53.2253 49.5635C53.5345 50.3101 54.0582 50.9482 54.7301 51.3971Z" fill="#388F91" stroke="white" stroke-width="0.171429"/>
</svg>
