<svg width="65" height="65" viewBox="0 0 65 65" fill="none" xmlns="http://www.w3.org/2000/svg">
<path d="M35.4199 12.957L12.6785 25.4445L32.5 36.3288L55.2415 23.8413L35.4199 12.957Z" fill="#FEA02C"/>
<path d="M13.339 51.5048L32.5139 62.034V36.3285L13.339 25.7993V51.5048Z" fill="#FFC66C"/>
<path d="M55.9774 49.2197V24.9116L42.1484 43.5926L37.3242 41.2439L37.3381 59.4548L55.9774 49.2197Z" fill="#FFB954"/>
<path d="M36.1816 34.678L43.6952 42.1911L63.7304 31.1898L56.2169 23.6768L36.1816 34.678Z" fill="#FEDA9B"/>
<path d="M4.65515 32.8823L24.8546 43.9738L32.5 36.3283L12.3006 25.2368L4.65515 32.8823Z" fill="#FEDA9B"/>
<path d="M55.9775 23.4372L63.6794 15.7362L43.8078 4.82422L36.1058 12.5262L55.9775 23.4372Z" fill="#FEDA9B"/>
<path d="M5.45898 14.0342L12.7925 21.3672L32.5 10.5459L25.1665 3.21289L5.45898 14.0342Z" fill="#FEDA9B"/>
<path d="M57.7731 23.4373L64.628 16.5823C64.9107 16.3001 65.0436 15.9009 64.9871 15.5057C64.931 15.1104 64.6915 14.7643 64.3414 14.5719L56.1004 10.0467C55.4859 9.70948 54.7143 9.93413 54.3766 10.5486C54.0394 11.1635 54.2635 11.9351 54.8784 12.2723L61.6367 15.9832L55.7537 21.8657L34.5947 10.247L40.4772 4.36456L46.4237 7.63013C47.0381 7.96735 47.8102 7.7432 48.1475 7.12827C48.4852 6.51383 48.2605 5.7417 47.6456 5.40448L40.864 1.6802C40.3691 1.40844 39.7542 1.49621 39.3555 1.89542L32.5 8.75089L25.6445 1.89542C25.2453 1.49621 24.6304 1.40893 24.136 1.6802L0.658586 14.5719C0.308473 14.7643 0.0689485 15.1099 0.0129105 15.5057C-0.0436232 15.9009 0.0892808 16.3001 0.37195 16.5823L7.22692 23.4373L0.37195 30.2917C0.0892808 30.5744 -0.0436232 30.9731 0.0129105 31.3689C0.0689485 31.7641 0.308473 32.1102 0.658586 32.3022L7.75308 36.198V49.2197C7.75308 49.6833 8.0055 50.1098 8.41165 50.333L31.889 63.2242C32.0795 63.3288 32.2897 63.3809 32.5 63.3809C32.7103 63.3809 32.9205 63.3288 33.111 63.2242L56.5883 50.333C56.9945 50.1098 57.2469 49.6833 57.2469 49.2197V36.198L64.3414 32.3027C64.6915 32.1102 64.931 31.7641 64.9871 31.3689C65.0436 30.9736 64.9107 30.5744 64.628 30.2922L57.7731 23.4373ZM32.5 34.8799L11.6604 23.4368L32.5 11.9931L53.3396 23.4368L32.5 34.8799ZM24.5233 4.36456L30.4053 10.247L9.24627 21.8657L3.36378 15.9832L24.5233 4.36456ZM9.24726 25.0083L30.4063 36.627L24.5233 42.51L3.36378 30.8913L9.24726 25.0083ZM54.7079 48.4688L33.7695 59.966V46.9885C33.7695 46.2873 33.2012 45.719 32.5 45.719C31.7988 45.719 31.2305 46.2873 31.2305 46.9885V59.966L10.2921 48.4688V37.5925L24.136 45.1943C24.3279 45.2995 24.5382 45.3511 24.7464 45.3511C25.0752 45.3511 25.4005 45.2231 25.6445 44.9791L32.5 38.1237L39.3555 44.9791C39.5994 45.2236 39.9248 45.3511 40.2536 45.3511C40.4618 45.3511 40.6721 45.2995 40.864 45.1943L54.7079 37.5925V48.4688ZM40.4772 42.51L34.5942 36.6265L55.7532 25.0083L61.6367 30.8908L40.4772 42.51Z" fill="black"/>
<path d="M51.3907 10.1787C51.7245 10.1787 52.0508 10.0428 52.2883 9.80628C52.5244 9.57023 52.6603 9.24293 52.6603 8.90918C52.6603 8.57494 52.5244 8.24763 52.2883 8.01158C52.0523 7.77503 51.7245 7.63965 51.3907 7.63965C51.0555 7.63965 50.7292 7.77503 50.4931 8.01158C50.2556 8.24763 50.1212 8.57494 50.1212 8.90918C50.1212 9.24293 50.2556 9.57023 50.4931 9.80628C50.7292 10.0428 51.057 10.1787 51.3907 10.1787Z" fill="black"/>
<path d="M32.5 41.5044C32.1663 41.5044 31.8385 41.6398 31.6024 41.8763C31.3663 42.1134 31.2305 42.4397 31.2305 42.7739C31.2305 43.1087 31.3663 43.435 31.6024 43.6725C31.8385 43.9086 32.1663 44.0435 32.5 44.0435C32.8337 44.0435 33.1615 43.9086 33.3976 43.6725C33.6337 43.435 33.7695 43.1087 33.7695 42.7739C33.7695 42.4397 33.6337 42.1134 33.3976 41.8763C33.1615 41.6398 32.8337 41.5044 32.5 41.5044Z" fill="black"/>
</svg>
