<svg width="14" height="16" viewBox="0 0 14 16" fill="none" xmlns="http://www.w3.org/2000/svg">
<path d="M13.102 2.18133L11.5794 0.608667C11.3924 0.416644 11.1689 0.263893 10.9221 0.159374C10.6753 0.0548549 10.4101 0.000670954 10.142 0L6.9987 0C6.23056 0.000969683 5.48624 0.266727 4.8912 0.752479C4.29615 1.23823 3.88676 1.91428 3.73203 2.66667H3.66536C2.78163 2.66773 1.9344 3.01925 1.30951 3.64415C0.684619 4.26904 0.33309 5.11627 0.332031 6V12.6667C0.33309 13.5504 0.684619 14.3976 1.30951 15.0225C1.9344 15.6474 2.78163 15.9989 3.66536 16H7.66536C8.54909 15.9989 9.39633 15.6474 10.0212 15.0225C10.6461 14.3976 10.9976 13.5504 10.9987 12.6667V12.6C11.7511 12.4453 12.4271 12.0359 12.9129 11.4408C13.3986 10.8458 13.6644 10.1015 13.6654 9.33333V3.57333C13.6664 3.05361 13.4642 2.55408 13.102 2.18133ZM7.66536 14.6667H3.66536C3.13493 14.6667 2.62622 14.456 2.25115 14.0809C1.87608 13.7058 1.66536 13.1971 1.66536 12.6667V6C1.66536 5.46957 1.87608 4.96086 2.25115 4.58579C2.62622 4.21071 3.13493 4 3.66536 4V9.33333C3.66642 10.2171 4.01795 11.0643 4.64284 11.6892C5.26774 12.3141 6.11497 12.6656 6.9987 12.6667H9.66536C9.66536 13.1971 9.45465 13.7058 9.07958 14.0809C8.7045 14.456 8.1958 14.6667 7.66536 14.6667ZM10.332 11.3333H6.9987C6.46826 11.3333 5.95956 11.1226 5.58448 10.7475C5.20941 10.3725 4.9987 9.86377 4.9987 9.33333V3.33333C4.9987 2.8029 5.20941 2.29419 5.58448 1.91912C5.95956 1.54405 6.46826 1.33333 6.9987 1.33333H9.66536V2.66667C9.66536 3.02029 9.80584 3.35943 10.0559 3.60948C10.3059 3.85952 10.6451 4 10.9987 4H12.332V9.33333C12.332 9.86377 12.1213 10.3725 11.7462 10.7475C11.3712 11.1226 10.8625 11.3333 10.332 11.3333Z" fill="#27AB60"/>
</svg>
