<svg width="16" height="16" viewBox="0 0 16 16" fill="none" xmlns="http://www.w3.org/2000/svg">
<g clip-path="url(#clip0_1091_8683)">
<path d="M15.2193 9.88506L12.6333 12.4711C12.5075 12.5925 12.3391 12.6597 12.1643 12.6582C11.9895 12.6567 11.8223 12.5865 11.6987 12.4629C11.5751 12.3393 11.505 12.1721 11.5035 11.9973C11.502 11.8225 11.5692 11.6541 11.6906 11.5284L14.2766 8.94239C14.3534 8.86404 14.4206 8.77675 14.4766 8.6824C14.4666 8.6824 14.4586 8.68773 14.4486 8.68773L3.99259 8.6664C3.81578 8.6664 3.64621 8.59616 3.52119 8.47113C3.39617 8.34611 3.32593 8.17654 3.32593 7.99973C3.32593 7.82292 3.39617 7.65335 3.52119 7.52832C3.64621 7.4033 3.81578 7.33306 3.99259 7.33306L14.4446 7.35439C14.4633 7.35439 14.4786 7.36373 14.4966 7.36506C14.4375 7.25229 14.3625 7.14857 14.2739 7.05706L11.6879 4.47106C11.6243 4.40956 11.5735 4.336 11.5385 4.25466C11.5036 4.17333 11.4852 4.08585 11.4844 3.99733C11.4837 3.90881 11.5005 3.82102 11.534 3.73909C11.5676 3.65716 11.6171 3.58273 11.6797 3.52013C11.7423 3.45754 11.8167 3.40803 11.8986 3.37451C11.9806 3.34099 12.0683 3.32413 12.1569 3.32489C12.2454 3.32566 12.3329 3.34406 12.4142 3.37899C12.4955 3.41393 12.5691 3.46472 12.6306 3.52839L15.2166 6.1144C15.7165 6.61447 15.9974 7.29262 15.9974 7.99973C15.9974 8.70683 15.7165 9.38499 15.2166 9.88506H15.2193Z" fill="#27AB60"/>
<path d="M4.66667 1.33333H3.33333C2.8029 1.33333 2.29419 1.54405 1.91912 1.91912C1.54405 2.29419 1.33333 2.8029 1.33333 3.33333V12.6667C1.33333 13.1971 1.54405 13.7058 1.91912 14.0809C2.29419 14.456 2.8029 14.6667 3.33333 14.6667H4.66667C4.84348 14.6667 5.01305 14.7369 5.13807 14.8619C5.2631 14.987 5.33333 15.1565 5.33333 15.3333C5.33333 15.5101 5.2631 15.6797 5.13807 15.8047C5.01305 15.9298 4.84348 16 4.66667 16H3.33333C2.4496 15.9989 1.60237 15.6474 0.97748 15.0225C0.352588 14.3976 0.00105857 13.5504 0 12.6667L0 3.33333C0.00105857 2.4496 0.352588 1.60237 0.97748 0.977479C1.60237 0.352587 2.4496 0.00105762 3.33333 0H4.66667C4.84348 0 5.01305 0.0702372 5.13807 0.195261C5.2631 0.320286 5.33333 0.489855 5.33333 0.666666C5.33333 0.843477 5.2631 1.01305 5.13807 1.13807C5.01305 1.2631 4.84348 1.33333 4.66667 1.33333Z" fill="#27AB60"/>
</g>
<defs>
<clipPath id="clip0_1091_8683">
<rect width="16" height="16" fill="white" transform="matrix(1 0 0 -1 0 16)"/>
</clipPath>
</defs>
</svg>
