<svg width="18" height="18" viewBox="0 0 18 18" fill="none" xmlns="http://www.w3.org/2000/svg">
<path fill-rule="evenodd" clip-rule="evenodd" d="M9.46013 1.125C7.28719 1.125 5.52263 2.88956 5.52263 5.0625C5.52263 7.23544 7.28719 9 9.46013 9C11.6336 9 13.3976 7.23544 13.3976 5.0625C13.3976 2.88956 11.6336 1.125 9.46013 1.125ZM9.46013 2.25C11.0126 2.25 12.2726 3.51 12.2726 5.0625C12.2726 6.615 11.0126 7.875 9.46013 7.875C7.90819 7.875 6.64763 6.615 6.64763 5.0625C6.64763 3.51 7.90819 2.25 9.46013 2.25Z" fill="black"/>
<path fill-rule="evenodd" clip-rule="evenodd" d="M2.71013 15.75H9C9.3105 15.75 9.5625 16.002 9.5625 16.3125C9.5625 16.623 9.3105 16.875 9 16.875H2.14763C1.83713 16.875 1.58513 16.623 1.58513 16.3125C1.58513 16.3125 1.58513 15.8484 1.58513 15.1875C1.58513 12.3913 3.852 10.125 6.64763 10.125H9C9.3105 10.125 9.5625 10.377 9.5625 10.6875C9.5625 10.998 9.3105 11.25 9 11.25H6.64763C4.473 11.25 2.71013 13.0129 2.71013 15.1875V15.75Z" fill="black"/>
<path fill-rule="evenodd" clip-rule="evenodd" d="M14.0901 16.0944L12.744 17.0062C12.5713 17.1226 12.3486 17.135 12.1652 17.0371C11.9812 16.9398 11.8659 16.7486 11.8659 16.5404V12.752C11.8659 12.5186 12.0105 12.3087 12.2287 12.2261C12.4476 12.1434 12.6945 12.2036 12.8492 12.3785C13.1535 12.7211 13.5973 12.9376 14.0906 12.9376C14.5845 12.9376 15.0283 12.7211 15.3321 12.3785C15.4873 12.2036 15.7342 12.1434 15.9525 12.2261C16.1713 12.3087 16.3153 12.5186 16.3153 12.752V16.5404C16.3153 16.7486 16.2006 16.9398 16.0166 17.0371C15.8327 17.135 15.6099 17.1226 15.4378 17.0062L14.0901 16.0944ZM12.9909 13.8365V15.4801L13.7751 14.9497C13.9652 14.8209 14.2149 14.8203 14.4056 14.9491L15.1903 15.4807V13.8365C14.8534 13.9822 14.481 14.0626 14.0906 14.0626C13.7002 14.0626 13.3284 13.9822 12.9909 13.8365Z" fill="black"/>
<path fill-rule="evenodd" clip-rule="evenodd" d="M14.0906 8.49414C12.5544 8.49414 11.3068 9.74177 11.3068 11.278C11.3068 12.8147 12.5544 14.0623 14.0906 14.0623C15.6274 14.0623 16.875 12.8147 16.875 11.278C16.875 9.74177 15.6274 8.49414 14.0906 8.49414ZM14.0906 9.61914C15.0064 9.61914 15.75 10.3622 15.75 11.278C15.75 12.1937 15.0064 12.9373 14.0906 12.9373C13.1749 12.9373 12.4318 12.1937 12.4318 11.278C12.4318 10.3622 13.1749 9.61914 14.0906 9.61914Z" fill="black"/>
</svg>
