<svg width="18" height="18" viewBox="0 0 18 18" fill="none" xmlns="http://www.w3.org/2000/svg">
<g clip-path="url(#clip0_149_2071)">
<path d="M14.5562 5.26209L11.5844 4.83026L10.2554 2.13743C9.74211 1.09727 8.25777 1.09758 7.74463 2.1374L6.41562 4.83023L3.4439 5.26209C2.29594 5.42887 1.83772 6.84057 2.66804 7.65L4.8184 9.74609L4.31078 12.7057C4.11472 13.849 5.31562 14.7211 6.34208 14.1816L9.00006 12.7841L11.6581 14.1816C12.6831 14.7204 13.8854 13.8489 13.6894 12.7057L13.1818 9.74605L15.3322 7.64997C16.1626 6.84025 15.7036 5.42883 14.5562 5.26209ZM14.4944 6.79071L12.1182 9.10695C11.9768 9.2448 11.9123 9.44339 11.9456 9.63802L12.5066 12.9086C12.5347 13.0729 12.3638 13.1969 12.2164 13.1195L9.2792 11.5753C9.10444 11.4834 8.89558 11.4834 8.72082 11.5753L5.78362 13.1195C5.6361 13.197 5.46528 13.0729 5.49344 12.9086L6.05439 9.63802C6.08775 9.44339 6.02324 9.2448 5.88184 9.10695L3.5056 6.79071C3.38624 6.67438 3.45153 6.47357 3.61645 6.44956L6.90032 5.97238C7.09572 5.94398 7.26468 5.82128 7.35208 5.6442L8.8207 2.66847C8.89442 2.51913 9.1056 2.51902 9.17936 2.6685L10.648 5.6442C10.7354 5.82128 10.9043 5.94401 11.0997 5.97238L14.3836 6.44956C14.5485 6.47357 14.6137 6.67442 14.4944 6.79071Z" fill="black"/>
<path d="M4.73663 1.65686L4.01906 0.669219C3.82422 0.401188 3.44903 0.341703 3.181 0.536539C2.91293 0.731305 2.85349 1.10653 3.04829 1.37459L3.76586 2.3622C3.96077 2.63037 4.33595 2.68961 4.60392 2.49488C4.87198 2.30015 4.93143 1.92493 4.73663 1.65686Z" fill="black"/>
<path d="M2.35536 10.5085C2.25302 10.1934 1.91453 10.0208 1.59932 10.1233L0.414696 10.5082C0.0995553 10.6107 -0.072886 10.9491 0.029489 11.2643C0.13204 11.5799 0.471087 11.7518 0.785524 11.6495L1.97015 11.2646C2.28532 11.1622 2.45777 10.8237 2.35536 10.5085Z" fill="black"/>
<path d="M14.819 0.536519C14.551 0.341753 14.1758 0.401132 13.981 0.669198L13.2634 1.65681C13.0686 1.92487 13.128 2.30013 13.3961 2.49486C13.6643 2.6897 14.0395 2.63014 14.2342 2.36218L14.9517 1.37457C15.1465 1.10651 15.0871 0.731249 14.819 0.536519Z" fill="black"/>
<path d="M17.5853 10.5083L16.4006 10.1233C16.0855 10.0208 15.747 10.1934 15.6446 10.5086C15.5422 10.8237 15.7146 11.1622 16.0298 11.2646L17.2144 11.6495C17.5289 11.7518 17.8679 11.5799 17.9705 11.2643C18.0729 10.9492 17.9004 10.6107 17.5853 10.5083Z" fill="black"/>
<path d="M9 15.1602C8.66865 15.1602 8.40002 15.4288 8.40002 15.7601V16.9779C8.40002 17.3092 8.66865 17.5779 9 17.5779C9.33135 17.5779 9.59998 17.3092 9.59998 16.9779V15.7601C9.60001 15.4288 9.33138 15.1602 9 15.1602Z" fill="black"/>
</g>
<defs>
<clipPath id="clip0_149_2071">
<rect width="18" height="18" fill="white"/>
</clipPath>
</defs>
</svg>
