<svg width="198" height="198" viewBox="0 0 198 198" fill="none" xmlns="http://www.w3.org/2000/svg">
<path d="M174.054 56.335C169.235 44.2649 161.045 33.1255 149.561 27.031C138.077 20.9366 123.061 20.7742 112.638 28.5358C96.7231 40.3881 94.4223 66.8488 75.9212 74.0441C68.1081 77.0854 59.3129 75.6796 51.0563 77.1211C32.076 80.4475 18.0933 100.299 19.8951 119.477C21.6969 138.656 36.0677 156.551 54.6481 161.695C97.0834 173.448 130.233 165.643 153.854 144.144C177.475 122.645 185.902 86.0073 174.054 56.335Z" fill="#EBEBEB"/>
<path d="M184.302 183.645C184.302 183.704 146.108 183.748 99.004 183.748C51.8998 183.748 13.6976 183.704 13.6976 183.645C13.6976 183.586 51.8839 183.542 99.004 183.542C146.124 183.542 184.302 183.59 184.302 183.645Z" fill="#263238"/>
<path d="M56.0301 49.3101L56.0617 50.8941C56.0617 50.8941 56.7072 63.1701 56.6676 65.0154C56.628 66.8608 50.4702 77.3904 50.4702 77.3904L54.252 83.5561L63.2808 67.3201L61.1187 49.8961L61.0632 49.4645" fill="#FFBE9D"/>
<path d="M60.6158 47.4132L59.4001 42.9424L54.6481 45.6906C54.6481 46.0866 56.0697 49.3101 56.0697 49.3101L56.8934 50.1654C56.8934 50.1654 61.0237 49.7298 61.1108 49.6863C61.1979 49.6427 60.6158 47.4132 60.6158 47.4132Z" fill="#FFBE9D"/>
<path d="M59.5466 43.2592C59.5466 43.2592 59.5743 43.2949 59.5941 43.3543C59.7763 43.8374 60.3069 46.0194 60.0654 46.1817C59.8238 46.3441 59.0081 46.3837 58.8774 46.1104C58.7467 45.8372 58.2953 43.3384 58.2953 43.3384C58.2953 43.3384 58.2477 42.9424 58.8734 42.6771C59.2615 42.5266 59.5466 43.2592 59.5466 43.2592Z" fill="#FFBE9D"/>
<path d="M58.0418 42.8158C58.0418 42.8158 58.0695 42.8514 58.0893 42.9069C58.2715 43.394 58.8021 45.572 58.5606 45.7343C58.319 45.8967 57.5033 45.9363 57.3726 45.663C57.2419 45.3898 56.7905 42.891 56.7905 42.891C56.7905 42.891 56.7469 42.495 57.3686 42.2337C57.7567 42.0792 58.0418 42.8158 58.0418 42.8158Z" fill="#FFBE9D"/>
<path d="M56.6677 42.7684C56.6907 42.7959 56.707 42.8285 56.7152 42.8634C56.8973 43.3466 57.424 45.5285 57.1824 45.6909C56.9409 45.8532 56.1291 45.8928 55.9944 45.6196C55.8598 45.3464 55.4123 42.8476 55.4123 42.8476C55.4123 42.8476 55.3648 42.4516 55.9905 42.1902C56.3825 42.02 56.6677 42.7684 56.6677 42.7684Z" fill="#FFBE9D"/>
<path d="M55.3055 42.7128C55.3285 42.7403 55.3448 42.7729 55.353 42.8078C55.5351 43.2909 56.0618 45.4729 55.8203 45.6353C55.5787 45.7976 54.7629 45.8372 54.6323 45.564C54.5016 45.2907 54.0501 42.792 54.0501 42.792C54.0501 42.792 54.0026 42.396 54.6283 42.1346C55.0203 41.9762 55.3055 42.7128 55.3055 42.7128Z" fill="#FFBE9D"/>
<path d="M58.7071 45.477C58.6973 45.1095 58.6401 44.7448 58.5368 44.392C58.4806 44.0349 58.3795 43.6863 58.2358 43.3545C58.2456 43.722 58.3028 44.0867 58.4061 44.4395C58.4623 44.7967 58.5634 45.1453 58.7071 45.477Z" fill="#EB996E"/>
<path d="M57.4201 45.8137C57.38 45.2956 57.2912 44.7825 57.1548 44.2812C57.0714 43.768 56.9388 43.2641 56.7588 42.7764C56.8039 43.2938 56.8926 43.8064 57.0241 44.3089C57.1127 44.8209 57.2451 45.3244 57.4201 45.8137Z" fill="#EB996E"/>
<g opacity="0.78">
<path d="M56.1014 46.0432C56.0565 45.5245 55.9677 45.0105 55.8361 44.5068C55.7475 43.9947 55.615 43.4913 55.4401 43.002C55.4802 43.5213 55.569 44.0357 55.7054 44.5384C55.7895 45.0514 55.9221 45.5553 56.1014 46.0432Z" fill="#EB996E"/>
</g>
<path d="M57.131 48.8744L55.6896 47.7102C55.058 47.2011 54.6479 46.4675 54.5451 45.6628L54.4659 45.049L58.8219 44.1699C58.8219 44.1699 58.8219 45.7896 57.5943 45.8094L59.1269 46.6014L57.131 48.8744Z" fill="#FFBE9D"/>
<path d="M58.917 46.9142C58.8972 46.9142 58.8021 46.736 58.5408 46.4944C58.1796 46.1613 57.7094 45.9712 57.2181 45.9598H56.7509L57.1904 45.7975L58.1963 45.4252C58.3976 45.3177 58.5636 45.1544 58.6746 44.955C58.7855 44.7555 58.8367 44.5283 58.8219 44.3006C58.8184 44.2657 58.8118 44.2313 58.8021 44.1976L58.9249 44.2649C57.7092 44.5659 56.6083 44.8193 55.8044 44.9579C55.4084 45.0292 55.0758 45.0728 54.8461 45.1005C54.7292 45.1171 54.6105 45.1171 54.4937 45.1005C54.9145 44.9781 55.3414 44.8776 55.7727 44.7995C56.5647 44.6293 57.6577 44.3521 58.8734 44.0511L58.9685 44.0273L58.9962 44.1184C59.0101 44.1638 59.0206 44.2101 59.0279 44.257C59.058 44.5345 58.9923 44.814 58.8417 45.049C58.701 45.2596 58.5158 45.4366 58.2992 45.5678L57.2815 45.9163L57.2538 45.7499C57.784 45.7715 58.2846 46.0004 58.6477 46.3875C58.7857 46.5339 58.8791 46.7166 58.917 46.9142Z" fill="#EB996E"/>
<path d="M58.6516 44.8986C58.6872 44.8986 58.7585 45.0966 58.9803 45.2946C59.0364 45.3492 59.1083 45.3847 59.1858 45.3961C59.2633 45.4075 59.3424 45.3941 59.4119 45.3579C59.4892 45.2935 59.5479 45.2096 59.582 45.115C59.6161 45.0203 59.6244 44.9183 59.6059 44.8194C59.5545 44.3283 59.5267 43.869 59.4832 43.5522C59.4396 43.2354 59.3842 43.0334 59.4159 43.0215C59.4475 43.0097 59.5386 43.1958 59.6257 43.5245C59.7162 43.9475 59.7783 44.3762 59.8119 44.8075C59.8337 44.9426 59.817 45.0811 59.7638 45.2071C59.7106 45.3332 59.6229 45.4417 59.5109 45.5203C59.4079 45.573 59.2904 45.5902 59.1766 45.5695C59.0628 45.5487 58.959 45.4911 58.8813 45.4055C58.7874 45.3031 58.7171 45.1815 58.6753 45.0491C58.6476 44.958 58.6397 44.9065 58.6516 44.8986Z" fill="#EB996E"/>
<path d="M43.8492 59.2656C44.9025 59.2022 45.8807 59.8437 46.6212 60.612C47.3617 61.3802 47.9082 62.291 48.6645 63.0315C49.2269 63.582 49.908 64.0572 50.2485 64.766C50.7911 65.8986 50.3357 67.3598 51.0405 68.4132C51.4365 69.0032 52.1058 69.3517 52.5057 69.9338C53.0007 70.6664 52.9651 71.6247 52.8542 72.5038C52.8277 73.122 52.6105 73.7168 52.2325 74.2066C51.8797 74.5355 51.4513 74.7721 50.9851 74.8957C47.5287 76.0651 43.7966 76.1453 40.2931 75.1254" fill="#263238"/>
<path d="M36.5904 66.3263C36.4997 65.6029 36.5552 64.8687 36.7536 64.1671C36.9519 63.4656 37.2892 62.811 37.7453 62.2422C38.2014 61.6735 38.7671 61.2021 39.4088 60.8561C40.0505 60.5101 40.7552 60.2965 41.481 60.2279C42.8865 60.1194 44.2805 60.5503 45.3795 61.4331C46.4786 62.3158 47.2001 63.5841 47.3973 64.9799C47.7355 66.9673 47.9682 68.9712 48.0942 70.9832C48.0586 73.779 46.4231 74.864 45.7618 75.1927C45.5234 75.2795 45.2765 75.3405 45.0252 75.3749C45.0252 75.3749 45.0252 75.3749 45.0252 75.3947L45.6469 78.6023C45.9281 80.705 44.7559 82.5623 42.6571 82.883C40.5583 83.2038 38.907 81.5762 38.5863 79.4735L36.5904 66.3263Z" fill="#FFBE9D"/>
<path d="M46.9141 66.6312C46.8706 66.6946 46.5181 66.4966 46.0271 66.5679C45.5361 66.6392 45.2351 66.9243 45.1836 66.8728C45.1321 66.8213 45.1836 66.7421 45.3301 66.6075C45.5144 66.4365 45.7465 66.3259 45.9954 66.2907C46.2413 66.2557 46.492 66.2986 46.7122 66.4134C46.8745 66.5045 46.9379 66.5996 46.9141 66.6312Z" fill="#263238"/>
<path d="M42.7087 67.5421C42.6612 67.6054 42.3127 67.4074 41.8217 67.4787C41.3306 67.55 41.0297 67.8351 40.9742 67.7876C40.9188 67.7401 40.9742 67.653 41.1208 67.5223C41.3044 67.3481 41.5389 67.2371 41.79 67.2055C42.0355 67.1668 42.2869 67.2084 42.5068 67.3243C42.6652 67.4154 42.7325 67.5104 42.7087 67.5421Z" fill="#263238"/>
<path d="M44.3521 69.7752C44.5909 69.663 44.8421 69.5792 45.1005 69.5257C45.2193 69.4941 45.3302 69.4545 45.3381 69.3713C45.329 69.2443 45.2821 69.1229 45.2035 69.0228L44.7124 68.1556C44.2691 67.4239 43.8838 66.6586 43.5601 65.8667C44.064 66.559 44.5103 67.2914 44.8946 68.0566C45.0609 68.3615 45.2193 68.6545 45.3737 68.9317C45.4697 69.0679 45.5158 69.2329 45.5044 69.399C45.4923 69.444 45.4704 69.4859 45.4403 69.5215C45.4102 69.557 45.3726 69.5856 45.3302 69.6049C45.2666 69.631 45.2001 69.6496 45.1322 69.6604C44.8786 69.7339 44.6161 69.7725 44.3521 69.7752Z" fill="#263238"/>
<path d="M45.0054 75.3947C45.0054 75.3947 43.2036 75.8105 40.7207 74.769C40.7207 74.769 41.7899 77.0777 45.1757 76.258L45.0054 75.3947Z" fill="#EB996E"/>
<path d="M44.3085 70.9436C44.2037 70.8469 44.0764 70.7777 43.9381 70.7425C43.7998 70.7072 43.6549 70.7069 43.5165 70.7417C43.4139 70.7664 43.3173 70.8113 43.2322 70.8739C43.1472 70.9364 43.0756 71.0154 43.0215 71.106C42.9706 71.1944 42.9474 71.2961 42.9552 71.3979C42.963 71.4996 43.0013 71.5966 43.0651 71.6762C43.1543 71.7493 43.263 71.7946 43.3777 71.8066C43.4925 71.8186 43.6082 71.7967 43.7106 71.7436C43.9212 71.6296 44.108 71.4763 44.261 71.2921C44.3083 71.2465 44.3472 71.1929 44.3758 71.1337C44.3896 71.1053 44.3943 71.0734 44.3893 71.0423C44.3844 71.0111 44.37 70.9822 44.3481 70.9595" fill="#EB996E"/>
<path d="M43.0017 70.3062C43.0769 70.3062 43.1521 70.8051 43.6432 71.0982C44.1342 71.3912 44.6767 71.2605 44.6886 71.3318C44.7005 71.4031 44.5817 71.4506 44.352 71.4902C44.0519 71.5379 43.7446 71.4776 43.4848 71.3199C43.2338 71.171 43.0517 70.9291 42.9779 70.6467C42.9264 70.4448 42.966 70.3101 43.0017 70.3062Z" fill="#263238"/>
<path d="M42.3721 66.0018C42.3444 66.1404 41.8612 66.1443 41.3148 66.2948C40.7683 66.4453 40.3446 66.6591 40.2535 66.5522C40.2139 66.5047 40.2535 66.37 40.4356 66.2196C40.655 66.0321 40.914 65.8969 41.1932 65.8242C41.4724 65.7515 41.7645 65.7431 42.0474 65.7998C42.277 65.8513 42.3919 65.9384 42.3721 66.0018Z" fill="#263238"/>
<path d="M46.4389 65.174C46.3716 65.2928 46.0429 65.2294 45.6469 65.2809C45.2509 65.3324 44.9341 65.4591 44.8549 65.3561C44.7757 65.2532 44.8549 65.1898 44.9777 65.0671C45.1546 64.9167 45.3726 64.8229 45.6034 64.7978C45.8338 64.767 46.0681 64.81 46.2726 64.9205C46.4033 65.0116 46.4666 65.1146 46.4389 65.174Z" fill="#263238"/>
<path d="M47.9437 64.3702C47.3656 65.2533 45.5321 64.7068 44.4233 64.1009C43.8457 64.4708 43.1466 64.6004 42.4748 64.462C41.8031 64.3237 41.212 63.9284 40.8276 63.3604C40.194 64.1524 38.907 63.9029 38.4516 62.9921C37.9962 62.0813 38.2457 60.83 38.8912 60.034C39.5397 59.2907 40.4333 58.8045 41.4097 58.6639C42.5303 58.4462 43.69 58.5615 44.7457 58.9958C45.8014 59.43 46.7067 60.1641 47.3497 61.1072C47.9596 62.0299 48.3278 63.2693 47.9635 64.3742" fill="#263238"/>
<path d="M39.0417 59.9664C36.9627 59.5704 34.9589 61.6414 34.749 63.1344C34.3887 65.7084 34.749 66.0291 34.2659 67.2607C33.961 68.0527 32.9037 68.8843 32.4879 69.7119C32.0364 70.599 32.0404 72.0879 32.3532 73.0463C32.6146 73.8383 33.6877 76.0677 33.6877 76.0677C33.6877 76.0677 36.7765 75.9687 38.3566 75.5648C38.7649 75.4811 39.1475 75.302 39.4733 75.0421C39.7743 74.7689 39.1525 73.8264 39.2119 73.4264C39.3743 72.2859 40.2257 71.6246 40.0039 70.5C39.6792 69.0071 38.5031 68.916 38.5269 67.3993C38.5269 66.6073 39.7505 65.4193 39.8614 64.6273C39.9723 63.8353 40.4395 61.0237 39.0694 59.9862" fill="#263238"/>
<path d="M35.5253 76.1512C35.5253 76.1512 35.3748 75.9769 35.1293 75.6601C34.7625 75.2138 34.4538 74.7228 34.2105 74.1989C33.8436 73.427 33.6878 72.5716 33.7591 71.7199C33.7984 71.2029 33.9398 70.6987 34.1749 70.2365C34.4101 69.7744 34.7344 69.3633 35.1293 69.0271C35.5569 68.6826 36.044 68.4212 36.4598 68.0728C36.873 67.7402 37.1754 67.29 37.3271 66.7818C37.4502 66.3316 37.5363 65.872 37.5845 65.4077C37.6255 65.0118 37.7037 64.6207 37.8181 64.2395C37.8935 63.9662 38.0251 63.7117 38.2044 63.4922C38.3838 63.2726 38.6069 63.0929 38.8596 62.9644C39.0546 62.8846 39.2627 62.8416 39.4734 62.8376C39.4199 62.8196 39.3635 62.8115 39.3071 62.8139C39.1445 62.8113 38.9829 62.8409 38.8319 62.901C38.5575 63.0199 38.3125 63.1974 38.1141 63.4211C37.9157 63.6449 37.7687 63.9093 37.6835 64.1959C37.5547 64.5818 37.4658 64.9799 37.4181 65.3839C37.3659 65.8381 37.2758 66.2872 37.1489 66.7264C37.004 67.1971 36.7178 67.6119 36.3291 67.9144C35.9331 68.247 35.4421 68.5044 34.9946 68.8687C34.5823 69.2196 34.2445 69.6495 34.001 70.1331C33.7575 70.6167 33.6133 71.1441 33.5769 71.6843C33.5114 72.5637 33.6838 73.4446 34.0759 74.2345C34.3343 74.7622 34.6648 75.2513 35.058 75.6878C35.1966 75.8383 35.3154 75.9532 35.3946 76.0244C35.4319 76.0726 35.4759 76.1153 35.5253 76.1512Z" fill="#455A64"/>
<path d="M50.6365 74.8044C50.6365 74.8044 50.6682 74.7688 50.7157 74.6935C50.7803 74.5807 50.8384 74.4644 50.89 74.3451C51.0693 73.8995 51.1608 73.4235 51.1592 72.9432C51.1627 72.2232 50.9608 71.5171 50.5771 70.9078C50.3366 70.5634 50.0719 70.2366 49.7851 69.9297C49.49 69.6143 49.2777 69.2306 49.1674 68.8129C48.9812 67.9457 49.2664 67.0705 49.207 66.2627C49.1912 65.5458 48.9951 64.8444 48.6367 64.2233C48.3895 63.8113 48.0607 63.4542 47.6705 63.1739C47.5636 63.1003 47.4525 63.0328 47.3378 62.9719L47.2151 62.9165C47.3417 63.0275 47.4738 63.1319 47.6111 63.2293C47.9762 63.522 48.2814 63.8824 48.51 64.2906C48.8392 64.8991 49.0146 65.5788 49.0208 66.2706C49.028 66.6812 49.0029 67.0916 48.9456 67.4982C48.8819 67.9482 48.8912 68.4055 48.9733 68.8525C49.0906 69.2969 49.3165 69.7052 49.6307 70.0405C49.9153 70.341 50.1799 70.6598 50.4227 70.9949C50.7988 71.5746 51.0046 72.2483 51.0167 72.9393C51.03 73.4072 50.9603 73.8738 50.8108 74.3173C50.7118 74.6341 50.6207 74.7965 50.6365 74.8044Z" fill="#455A64"/>
<path d="M41.8414 58.9728C42.2888 58.9668 42.736 58.992 43.1799 59.048C44.2441 59.2264 45.219 59.7529 45.9519 60.5449C46.6457 61.3713 47.1064 62.3678 47.2864 63.4317C47.3479 63.8764 47.3705 64.3256 47.3537 64.7742C47.3966 64.6585 47.4219 64.537 47.429 64.4138C47.4679 64.0823 47.4679 63.7474 47.429 63.4159C47.2841 62.3111 46.8235 61.2716 46.1024 60.4221C45.3436 59.5996 44.3209 59.0687 43.2116 58.9213C42.8789 58.8804 42.5424 58.8804 42.2097 58.9213C42.085 58.919 41.9607 58.9364 41.8414 58.9728Z" fill="#455A64"/>
<path d="M44.8273 63.0789C44.8581 62.9776 44.8728 62.872 44.8708 62.7661C44.8802 62.4755 44.8496 62.185 44.7797 61.9028C44.6706 61.4317 44.4668 60.9878 44.1806 60.598C43.8944 60.2081 43.5319 59.8807 43.1152 59.6354C42.6984 59.3902 42.2361 59.2323 41.7564 59.1714C41.2766 59.1105 40.7896 59.1479 40.3247 59.2813C40.0468 59.3573 39.7804 59.4705 39.5327 59.6179C39.3585 59.7288 39.2714 59.8 39.2793 59.8119C39.6265 59.6464 39.9884 59.5138 40.3604 59.4159C41.2661 59.1845 42.2266 59.3207 43.0322 59.7947C43.8379 60.2688 44.4234 61.0422 44.6609 61.9464C44.7477 62.3186 44.8033 62.6974 44.8273 63.0789Z" fill="#455A64"/>
<path d="M35.8618 94.3513C35.8618 94.3513 37.232 97.4718 37.1528 98.9488C37.0736 100.426 35.6599 105.225 35.6599 105.225L52.4067 106.79L52.4819 102.917L51.979 86.9857L61.3167 72.7812L54.2521 68.6865L47.3815 78.0123L45.643 77.3391L38.119 78.2895V79.5963L37.9052 79.6201C36.2551 79.9708 34.6738 80.5902 33.2245 81.4536C31.9069 82.2744 30.8625 83.4678 30.2238 84.8827C29.5851 86.2975 29.3808 87.8702 29.6367 89.4013C29.9416 91.3021 30.5356 93.6108 31.6761 94.9453C33.8699 97.5034 35.8618 94.3513 35.8618 94.3513Z" fill="#27AB60"/>
<path d="M33.4859 86.9145C33.4859 86.9145 32.6305 82.0516 32.8681 81.6992C33.1612 81.2834 36.6816 79.7706 36.7331 79.9251L37.5053 85.2711L33.4859 86.9145Z" fill="#FAFAFA"/>
<path d="M47.7576 87.1836L47.3577 96.5094H50.8781V87.1836H47.7576Z" fill="#FAFAFA"/>
<path d="M41.9325 91.8486C41.9983 91.8411 42.0648 91.8411 42.1305 91.8486H42.7364L45.053 91.813H45.1203V91.8843C45.1441 94.1217 45.156 97.4679 45.156 101.21V101.313H41.4257V101.21C41.5563 98.5212 41.6751 96.1848 41.7583 94.4781C41.8058 93.6861 41.8415 93.0247 41.8692 92.5495C41.8692 92.3397 41.8929 92.1535 41.9048 92.0387C41.8979 91.9835 41.8979 91.9276 41.9048 91.8724C41.9089 91.9357 41.9089 91.9992 41.9048 92.0625C41.9048 92.205 41.9048 92.3793 41.9048 92.5931C41.9048 93.0762 41.8731 93.7336 41.8494 94.5493C41.79 96.2244 41.7068 98.5371 41.6118 101.202L41.5128 101.099H45.0332L44.9303 101.202C44.9303 97.4599 44.9303 94.1137 44.9659 91.8763L45.0332 91.9437L42.7681 91.8724H42.1464L41.9325 91.8486Z" fill="#FAFAFA"/>
<path d="M55.5114 81.4139L51.7969 79.0656L55.0599 74.3018L58.8655 76.5114L55.5114 81.4139Z" fill="#FAFAFA"/>
<g opacity="0.4">
<path d="M51.7969 81.6992H40.895V85.2355H51.7969V81.6992Z" fill="white"/>
</g>
<path d="M51.6385 91.3178C51.6194 91.2104 51.6194 91.1005 51.6385 90.9931C51.6662 90.7832 51.7018 90.4823 51.7335 90.114C51.8195 89.147 51.8195 88.1743 51.7335 87.2074C51.643 86.2403 51.4654 85.2834 51.2029 84.3482C51.0049 83.6315 50.8425 83.1959 50.8742 83.184C50.9059 83.1721 50.9415 83.279 51.0247 83.4731C51.146 83.7445 51.253 84.0221 51.3455 84.3047C51.6493 85.2408 51.8485 86.2076 51.9395 87.1876C52.0318 88.1674 52.0118 89.1545 51.88 90.1298C51.8415 90.4242 51.7874 90.7164 51.7177 91.005C51.708 91.1128 51.6813 91.2184 51.6385 91.3178Z" fill="#263238"/>
<path d="M56.9251 70.2349C56.7399 70.5283 56.5264 70.8029 56.2875 71.0546C55.8915 71.5417 55.2936 72.2069 54.6402 72.9356L53.9432 73.7038L53.8838 73.7711L53.8125 73.7236C53.2146 73.3276 52.7037 72.9593 52.3473 72.7019C52.1453 72.5787 51.9603 72.4296 51.7969 72.2584C52.0143 72.3498 52.2213 72.4639 52.4146 72.599C52.7908 72.8287 53.3175 73.1613 53.9234 73.5573H53.7967L54.4857 72.7653C55.1391 72.0367 55.7371 71.3912 56.1766 70.9279C56.4041 70.6741 56.6546 70.4421 56.9251 70.2349Z" fill="#FAFAFA"/>
<path d="M60.7742 73.6049C60.3941 73.4689 60.027 73.2993 59.6772 73.098C59.008 72.7614 58.0932 72.2783 57.0914 71.7397C56.0895 71.2011 55.1866 70.6982 54.5372 70.3299C54.1772 70.1458 53.8328 69.9326 53.5076 69.6924C53.8887 69.8286 54.2571 69.9982 54.6084 70.1993C55.2737 70.5398 56.1924 71.019 57.1904 71.5575C58.1883 72.0961 59.0951 72.599 59.7446 72.9673C60.1052 73.1502 60.4497 73.3635 60.7742 73.6049Z" fill="#263238"/>
<path d="M23.1067 170.724L21.3128 178.834L18.0419 184.845C17.985 184.948 17.9501 185.062 17.9393 185.179C17.9286 185.296 17.9423 185.414 17.9795 185.526C18.0167 185.637 18.0766 185.74 18.1555 185.827C18.2344 185.915 18.3306 185.985 18.4379 186.033C18.5628 186.092 18.7003 186.12 18.8383 186.114C18.9763 186.107 19.1108 186.067 19.2299 185.997C20.7505 185.118 26.3302 181.855 26.4292 181.245C26.544 180.548 28.8923 172.811 28.8923 172.811L23.1067 170.724Z" fill="#27AB60"/>
<g opacity="0.6">
<path d="M18.4338 186.025L26.532 180.703L26.4489 181.044C26.376 181.332 26.2069 181.586 25.9697 181.764C25.3084 182.24 23.4591 183.519 19.2377 185.982C19.1178 186.05 18.9831 186.089 18.8451 186.093C18.7072 186.098 18.5701 186.069 18.4457 186.01L18.4338 186.025Z" fill="white"/>
</g>
<g opacity="0.6">
<path d="M25.5302 177.693C25.4126 177.742 25.3172 177.832 25.2623 177.947C25.2075 178.062 25.1971 178.193 25.2332 178.315C25.2771 178.434 25.365 178.531 25.4786 178.586C25.5921 178.641 25.7227 178.651 25.843 178.612C25.9674 178.561 26.0682 178.465 26.1261 178.344C26.1839 178.222 26.1945 178.084 26.1558 177.955C26.0961 177.836 25.9928 177.744 25.8675 177.699C25.7422 177.654 25.6044 177.659 25.4826 177.713" fill="white"/>
</g>
<path d="M21.1424 182.952C21.0113 182.655 20.8245 182.386 20.592 182.16C20.324 181.973 20.023 181.839 19.705 181.764C19.705 181.74 19.8198 181.705 20.0178 181.725C20.272 181.758 20.5112 181.864 20.7068 182.029C20.9074 182.193 21.0549 182.412 21.1306 182.659C21.182 182.825 21.1662 182.952 21.1424 182.952Z" fill="#263238"/>
<path d="M20.3029 183.891C20.2554 183.915 20.0614 183.59 19.6733 183.368C19.4263 183.254 19.1724 183.156 18.913 183.075C19.056 183.028 19.2082 183.015 19.3569 183.039C19.5057 183.062 19.6467 183.121 19.7683 183.21C20.196 183.467 20.3504 183.879 20.3029 183.891Z" fill="#263238"/>
<path d="M22.5721 181.828C22.2864 181.516 21.9795 181.225 21.6534 180.957C21.2917 180.738 20.9145 180.546 20.5248 180.382C20.9681 180.404 21.3961 180.551 21.7586 180.807C22.1212 181.063 22.4034 181.417 22.5721 181.828Z" fill="#263238"/>
<path d="M23.3046 179.408C23.273 179.452 22.873 179.155 22.2988 178.992C21.7246 178.83 21.2296 178.854 21.2217 178.802C21.5861 178.669 21.9859 178.669 22.3503 178.802C22.7306 178.884 23.0691 179.098 23.3046 179.408Z" fill="#263238"/>
<path d="M23.8947 177.04C23.5704 176.839 23.2199 176.683 22.8532 176.577C22.4761 176.525 22.0938 176.525 21.7167 176.577C21.7167 176.557 21.8236 176.478 22.0335 176.414C22.314 176.339 22.6085 176.331 22.8928 176.391C23.1816 176.449 23.4528 176.573 23.6848 176.755C23.8392 176.905 23.9105 177.012 23.8947 177.04Z" fill="#263238"/>
<path d="M22.968 176.129C22.964 176.024 22.9857 175.919 23.0314 175.824C23.127 175.551 23.2764 175.299 23.471 175.084C23.5982 174.912 23.7795 174.788 23.9858 174.731C24.055 174.72 24.1261 174.73 24.1897 174.76C24.2533 174.789 24.3064 174.837 24.3422 174.898C24.4008 175.021 24.4135 175.162 24.3778 175.294C24.2959 175.562 24.1218 175.793 23.8863 175.945C23.6508 176.097 23.369 176.161 23.0908 176.125C22.8163 176.087 22.5595 175.968 22.3529 175.783C22.1463 175.598 21.9993 175.356 21.9305 175.088C21.9148 175.02 21.9134 174.95 21.9264 174.882C21.9393 174.814 21.9664 174.749 22.0058 174.692C22.0525 174.635 22.1169 174.596 22.1887 174.58C22.2605 174.564 22.3355 174.573 22.4018 174.605C22.5875 174.695 22.747 174.831 22.8651 175.001C23.0407 175.23 23.1747 175.489 23.2611 175.765C23.3025 175.862 23.3215 175.968 23.3165 176.074C23.1832 175.718 22.9963 175.384 22.7621 175.084C22.6614 174.937 22.5252 174.819 22.3661 174.739C22.331 174.722 22.291 174.717 22.2527 174.726C22.2145 174.734 22.1804 174.756 22.1562 174.787C22.1325 174.826 22.1174 174.869 22.112 174.914C22.1065 174.959 22.1108 175.005 22.1246 175.048C22.1905 175.278 22.3211 175.484 22.5009 175.641C22.6807 175.798 22.902 175.9 23.1383 175.935C23.3734 175.963 23.6109 175.91 23.8117 175.785C24.0125 175.659 24.1647 175.47 24.2432 175.246C24.2766 175.157 24.2766 175.058 24.2432 174.969C24.2252 174.935 24.1967 174.907 24.1618 174.89C24.1268 174.873 24.0874 174.867 24.0491 174.874C23.876 174.922 23.7223 175.023 23.6096 175.163C23.3389 175.444 23.1215 175.771 22.968 176.129Z" fill="#263238"/>
<g opacity="0.3">
<path d="M22.8967 171.603L22.6552 172.759L28.3853 174.438L28.8763 172.815L23.1066 170.724L22.8967 171.603Z" fill="black"/>
</g>
<path d="M49.3614 173.725L48.8744 180.208C48.8744 180.208 55.3014 182.877 55.3292 184.085L42.7245 183.598L43.065 173.464L49.3614 173.725Z" fill="#27AB60"/>
<g opacity="0.6">
<path d="M44.9976 179.511C44.8752 179.543 44.7692 179.62 44.6998 179.726C44.6304 179.832 44.6025 179.96 44.6214 180.085C44.6455 180.211 44.7176 180.323 44.8225 180.397C44.9274 180.47 45.0569 180.501 45.1837 180.481C45.3135 180.446 45.4258 180.365 45.499 180.252C45.5721 180.14 45.6009 180.004 45.5797 179.871C45.537 179.745 45.4474 179.64 45.3294 179.578C45.2115 179.516 45.0742 179.502 44.9461 179.538" fill="white"/>
</g>
<g opacity="0.6">
<path d="M42.7245 183.598L42.7997 182.576L54.8579 183.428C54.8579 183.428 55.4084 183.693 55.3292 184.085L42.7245 183.598Z" fill="white"/>
</g>
<path d="M49.0803 180.153C49.0803 180.212 48.7675 180.228 48.4586 180.414C48.1497 180.6 47.9755 180.854 47.9201 180.83C47.8646 180.806 47.9715 180.434 48.3517 180.232C48.7319 180.03 49.1041 180.097 49.0803 180.153Z" fill="#263238"/>
<path d="M50.3831 180.75C50.3831 180.81 50.1257 180.905 49.904 181.146C49.6822 181.388 49.6149 181.669 49.5515 181.665C49.4882 181.661 49.4684 181.309 49.7456 181.004C50.0228 180.699 50.3831 180.691 50.3831 180.75Z" fill="#263238"/>
<path d="M51.084 182.362C51.0286 182.362 50.9534 182.061 51.1236 181.732C51.2939 181.404 51.5909 181.277 51.6147 181.336C51.6384 181.396 51.4523 181.562 51.3177 181.835C51.183 182.109 51.1355 182.358 51.084 182.362Z" fill="#263238"/>
<path d="M49.0289 178.664C49.0011 178.719 48.72 178.62 48.3715 178.632C48.023 178.644 47.7498 178.743 47.7181 178.687C47.6864 178.632 47.9557 178.422 48.3675 178.418C48.7794 178.414 49.0605 178.616 49.0289 178.664Z" fill="#263238"/>
<g opacity="0.3">
<path d="M49.2624 175.008L49.1793 176.165L42.9858 175.868L43.0254 174.533L49.2624 175.008Z" fill="black"/>
</g>
<path d="M49.104 177.353C48.8942 177.401 48.6752 177.392 48.4704 177.325C48.2442 177.275 48.0248 177.198 47.817 177.095C47.695 177.035 47.5773 176.966 47.4646 176.889C47.3942 176.849 47.3312 176.797 47.2785 176.735C47.2415 176.688 47.2214 176.63 47.2214 176.571C47.2214 176.511 47.2415 176.453 47.2785 176.406C47.3108 176.364 47.3529 176.33 47.4011 176.307C47.4494 176.284 47.5024 176.274 47.5557 176.276C47.6351 176.277 47.7138 176.29 47.7893 176.315C47.9257 176.353 48.0583 176.403 48.1853 176.466C48.3938 176.567 48.5849 176.701 48.7516 176.862C49.0327 177.147 49.1238 177.38 49.104 177.392C49.0842 177.404 48.9417 177.21 48.6526 176.977C48.4824 176.841 48.2962 176.726 48.0982 176.636C47.9828 176.586 47.8636 176.545 47.7418 176.513C47.6111 176.47 47.4963 176.466 47.4606 176.513C47.425 176.561 47.4606 176.545 47.4606 176.585C47.4996 176.628 47.545 176.666 47.5953 176.695C47.6989 176.771 47.8074 176.84 47.92 176.901C48.1125 177.005 48.3139 177.091 48.5219 177.159C48.7204 177.209 48.9149 177.274 49.104 177.353Z" fill="#263238"/>
<path d="M49.0169 177.436C48.9052 177.252 48.8552 177.037 48.8744 176.822C48.874 176.588 48.9128 176.355 48.9892 176.133C49.034 176.002 49.0924 175.876 49.1634 175.757C49.1993 175.678 49.2542 175.608 49.3233 175.555C49.3924 175.502 49.4735 175.467 49.5594 175.452C49.6156 175.456 49.6696 175.475 49.7151 175.508C49.7607 175.541 49.796 175.586 49.8168 175.638C49.8466 175.713 49.8653 175.792 49.8723 175.872C49.8923 176.014 49.8923 176.158 49.8723 176.3C49.8264 176.534 49.7245 176.754 49.5753 176.941C49.3179 177.258 49.0565 177.337 49.0526 177.301C49.0486 177.266 49.2545 177.159 49.4486 176.85C49.5617 176.672 49.6371 176.472 49.6703 176.264C49.6882 176.143 49.6882 176.02 49.6703 175.9C49.6703 175.765 49.6109 175.654 49.5594 175.666C49.508 175.678 49.3892 175.761 49.3337 175.864C49.2661 175.97 49.209 176.083 49.1634 176.201C49.0858 176.401 49.0365 176.612 49.0169 176.826C48.9971 177.195 49.0526 177.428 49.0169 177.436Z" fill="#263238"/>
<path d="M33.3907 90.6842L36.6498 90.8664C36.8796 91.7824 37.1883 92.6767 37.5725 93.5394C40.198 88.9814 42.2334 82.879 42.7403 80.4238C42.6651 80.1783 42.5779 79.909 42.471 79.6041C42.3913 79.1468 42.4048 78.6781 42.5106 78.226C42.6017 77.6796 42.7522 76.943 42.7997 76.6024C42.9383 75.5649 43.1046 75.4144 43.4689 75.5214C43.96 75.6798 43.267 78.432 43.6669 78.4914C43.8847 78.523 44.1501 77.5806 44.2253 76.8084C44.3005 76.0362 44.653 73.6404 44.9104 73.4938C45.3064 73.2602 45.6113 73.6285 45.5163 74.4007C45.4212 75.1729 45.2985 77.5053 45.7103 77.537C46.1221 77.5687 46.4508 73.6206 46.4508 73.6206C46.4508 73.6206 46.3875 72.7652 46.8468 72.785C47.7022 72.8206 47.0329 76.9826 46.9617 77.3746C46.9102 77.6479 47.3577 77.6994 47.3933 77.4024C47.4289 77.1054 47.6388 73.4424 48.51 73.4859C49.1753 73.5097 47.9913 76.9153 48.3675 77.7033C48.7437 78.4914 49.0011 75.0224 49.6386 75.0699C49.8762 75.0699 50.0346 75.1333 49.6149 77.0974C49.1917 78.6595 48.6827 80.197 48.0903 81.7029C47.0805 87.1479 42.6492 104.568 35.7034 101.38C31.8147 99.5942 30.001 90.7594 30.001 90.7594L33.3907 90.6842Z" fill="#FFBE9D"/>
<path d="M48.1022 81.6989C48.1091 81.658 48.121 81.6181 48.1378 81.5801C48.1655 81.493 48.2051 81.3782 48.2527 81.2396C48.3596 80.9228 48.514 80.4832 48.7081 79.9249C48.9021 79.3665 49.1397 78.6537 49.3773 77.83C49.4961 77.434 49.5951 76.9747 49.6862 76.4955C49.7297 76.2579 49.7773 76.0124 49.805 75.7589C49.8149 75.6337 49.8149 75.5079 49.805 75.3827C49.805 75.2521 49.7773 75.1491 49.6743 75.1451C49.5713 75.1412 49.4961 75.2045 49.4248 75.3154C49.3576 75.4325 49.3019 75.5558 49.2585 75.6837C49.1674 75.9451 49.0922 76.2223 49.0209 76.5074C48.9496 76.7925 48.8823 77.0855 48.7952 77.3825C48.7584 77.5467 48.6913 77.7025 48.5972 77.8419C48.5715 77.8738 48.5345 77.8944 48.4939 77.8996C48.4533 77.9048 48.4122 77.894 48.3794 77.8696C48.3409 77.8338 48.3099 77.7908 48.2883 77.7429C48.2536 77.6619 48.2297 77.5767 48.217 77.4894C48.2045 76.8239 48.271 76.1593 48.415 75.5094C48.4744 75.1768 48.5338 74.8402 48.5774 74.4997C48.6004 74.329 48.6136 74.1571 48.617 73.9849C48.617 73.8304 48.617 73.6166 48.5259 73.5889C48.4348 73.5611 48.2883 73.6522 48.2091 73.7948C48.1168 73.942 48.0436 74.1003 47.9913 74.266C47.88 74.6131 47.794 74.9678 47.7339 75.3273C47.6705 75.6956 47.623 76.0678 47.5795 76.444C47.5795 76.6341 47.5438 76.84 47.524 77.0143L47.5003 77.3033C47.5035 77.3649 47.4935 77.4264 47.471 77.4838C47.4484 77.5412 47.4138 77.5931 47.3696 77.636C47.3123 77.6784 47.2429 77.7013 47.1716 77.7013C47.1003 77.7013 47.0309 77.6784 46.9736 77.636C46.9417 77.6148 46.9143 77.5874 46.8932 77.5554C46.8722 77.5234 46.8577 77.4875 46.8508 77.4499C46.8448 77.4145 46.8448 77.3783 46.8508 77.3429V77.2717C46.8785 77.0776 46.9102 76.8757 46.9379 76.6895C46.9934 76.2935 47.0409 75.8975 47.0805 75.5015C47.1201 75.1055 47.1439 74.7095 47.1518 74.3135C47.1716 73.9138 47.1316 73.5134 47.033 73.1255C47.0105 73.0267 46.951 72.9402 46.8667 72.884C46.8262 72.8718 46.7831 72.872 46.7428 72.8848C46.7025 72.8975 46.667 72.922 46.6409 72.9553C46.5348 73.1527 46.4919 73.3781 46.5182 73.6007C46.4469 74.3927 46.3598 75.1491 46.2489 75.9015C46.1895 76.2975 46.1301 76.6539 46.0351 77.0222C46.0114 77.1162 45.9824 77.2087 45.9479 77.2994C45.9164 77.4111 45.8514 77.5106 45.7618 77.5845C45.7209 77.6042 45.6747 77.6098 45.6303 77.6005C45.5859 77.5911 45.5458 77.5674 45.5163 77.533C45.4779 77.4889 45.4484 77.4378 45.4292 77.3825C45.394 77.2904 45.3688 77.1949 45.3539 77.0974C45.2723 76.374 45.2657 75.6442 45.3341 74.9194C45.3799 74.5822 45.3971 74.2418 45.3856 73.9017C45.3767 73.7572 45.3113 73.6221 45.2035 73.5255C45.1789 73.5086 45.1509 73.4973 45.1214 73.4925C45.092 73.4877 45.0618 73.4895 45.0332 73.4978C44.9996 73.5058 44.9675 73.5192 44.9381 73.5374C44.9175 73.5511 44.901 73.5703 44.8906 73.5928C44.7729 73.8922 44.6853 74.2026 44.6293 74.5194C44.5659 74.8362 44.5105 75.1531 44.459 75.4659C44.4075 75.7787 44.3639 76.0836 44.3243 76.3886C44.2847 76.6935 44.261 76.9944 44.2016 77.2914C44.1522 77.5849 44.0739 77.8727 43.9679 78.1508C43.9428 78.221 43.911 78.2886 43.8729 78.3527C43.8254 78.4161 43.8016 78.4993 43.6749 78.5389C43.6427 78.5446 43.6095 78.5409 43.5793 78.5283C43.5491 78.5156 43.5231 78.4946 43.5046 78.4676C43.4822 78.4291 43.4649 78.3878 43.4531 78.3448C43.4385 78.2717 43.4293 78.1975 43.4254 78.1231C43.4254 77.5568 43.5046 77.038 43.5323 76.5391C43.5562 76.2994 43.5562 76.058 43.5323 75.8183C43.5323 75.7114 43.4848 75.5887 43.4215 75.5609C43.3796 75.5403 43.3335 75.5296 43.2868 75.5296C43.2401 75.5296 43.1941 75.5403 43.1522 75.5609C43.0148 75.7111 42.9288 75.9011 42.9067 76.1034C42.8591 76.3094 42.8393 76.4995 42.7997 76.7093C42.6611 77.5013 42.5146 78.1706 42.4473 78.721C42.412 78.9639 42.412 79.2107 42.4473 79.4536C42.4948 79.6516 42.5621 79.8298 42.5978 79.9684L42.6928 80.2931C42.7085 80.3282 42.7179 80.3657 42.7205 80.404C42.7009 80.3707 42.6862 80.3347 42.677 80.2971L42.5621 79.9843C42.5146 79.8417 42.4473 79.6793 42.3879 79.4615C42.3518 79.2134 42.3518 78.9613 42.3879 78.7131C42.4473 78.1508 42.5819 77.4815 42.7087 76.6935C42.7443 76.4995 42.7641 76.2975 42.8116 76.0797C42.8314 75.9705 42.8605 75.8632 42.8987 75.7589C42.9318 75.6373 43.0042 75.5301 43.1047 75.454C43.1658 75.4221 43.2337 75.4054 43.3027 75.4054C43.3716 75.4054 43.4395 75.4221 43.5007 75.454C43.6591 75.5451 43.663 75.6956 43.6907 75.8104C43.7144 76.0593 43.7144 76.3099 43.6907 76.5589C43.667 77.0657 43.5878 77.5964 43.5997 78.1429C43.6032 78.2067 43.6111 78.2702 43.6234 78.3329C43.6234 78.3963 43.6709 78.4201 43.663 78.4082C43.6551 78.3963 43.7264 78.3527 43.7541 78.3012C43.7863 78.2421 43.8153 78.1813 43.8412 78.1191C43.9379 77.8488 44.0108 77.5705 44.059 77.2875C44.1145 77.0024 44.1303 76.7014 44.1739 76.3965C44.2174 76.0916 44.2531 75.7787 44.3045 75.4659C44.356 75.1531 44.4075 74.8323 44.4709 74.5115C44.5274 74.1746 44.6217 73.8452 44.752 73.5294C44.7768 73.4767 44.8168 73.4326 44.8669 73.4027C44.9104 73.3773 44.957 73.3573 45.0055 73.3433C45.0589 73.3293 45.1147 73.3267 45.1693 73.3355C45.2239 73.3444 45.276 73.3646 45.3223 73.3948C45.3997 73.4565 45.4638 73.5332 45.5108 73.6203C45.5577 73.7074 45.5865 73.8031 45.5955 73.9017C45.6193 74.0817 45.6193 74.2642 45.5955 74.4442C45.5955 74.6145 45.5638 74.7887 45.5519 74.963C45.4807 75.67 45.4807 76.3824 45.5519 77.0895C45.566 77.173 45.5872 77.2551 45.6153 77.335C45.628 77.3665 45.6453 77.3958 45.6668 77.4221C45.6668 77.5013 45.6668 77.4419 45.6668 77.4538C45.6668 77.4657 45.6668 77.4538 45.6668 77.4261C45.7079 77.3708 45.74 77.3093 45.7618 77.2439C45.7895 77.1608 45.8173 77.0737 45.841 76.9865C45.9281 76.6341 45.9915 76.2619 46.0469 75.8896C46.1578 75.1412 46.241 74.3769 46.3123 73.6007C46.2811 73.3257 46.3394 73.048 46.4786 72.8087C46.5302 72.7384 46.6036 72.6871 46.6874 72.6627C46.7711 72.6384 46.8606 72.6424 46.9419 72.6741C47.0124 72.7113 47.0742 72.763 47.1234 72.8258C47.1725 72.8886 47.2078 72.961 47.227 73.0384C47.3343 73.4464 47.3784 73.8684 47.3577 74.2898C47.3577 74.6858 47.3221 75.1055 47.2825 75.5094C47.2429 75.9134 47.1953 76.3014 47.1399 76.6974C47.1122 76.8954 47.0805 77.0935 47.0528 77.2835C47.0251 77.4103 47.0528 77.4142 47.0528 77.4499C47.076 77.4642 47.1027 77.4719 47.13 77.4719C47.1573 77.4719 47.184 77.4642 47.2072 77.4499C47.2508 77.4221 47.2547 77.3627 47.2627 77.2558L47.2904 76.9667C47.2904 76.7767 47.33 76.5707 47.3458 76.3965C47.3894 76.0005 47.4409 75.6362 47.5042 75.2679C47.5664 74.8977 47.6551 74.5324 47.7695 74.1749C47.8289 73.9942 47.91 73.8213 48.0111 73.6601C48.0672 73.5729 48.1398 73.4976 48.2249 73.4384C48.2712 73.3975 48.3283 73.3709 48.3894 73.3621C48.4505 73.3532 48.5128 73.3624 48.5688 73.3884C48.6247 73.4145 48.6718 73.4564 48.7043 73.5089C48.7368 73.5614 48.7532 73.6222 48.7516 73.6839C48.766 73.7769 48.7726 73.8709 48.7714 73.9651C48.7658 74.144 48.7499 74.3225 48.7239 74.4997C48.6803 74.8481 48.617 75.1847 48.5576 75.5174C48.4139 76.1486 48.3448 76.7946 48.3517 77.4419C48.3587 77.5119 48.3775 77.5801 48.4071 77.6439C48.4173 77.668 48.4306 77.6906 48.4467 77.7112C48.4467 77.7112 48.4467 77.7112 48.4467 77.6914C48.5219 77.5691 48.5767 77.4353 48.6091 77.2954C48.6962 77.0063 48.7635 76.7133 48.8387 76.4282C48.914 76.1431 48.9892 75.8619 49.0882 75.5926C49.1359 75.455 49.1969 75.3223 49.2704 75.1966C49.3082 75.1289 49.3594 75.0696 49.4209 75.0224C49.4556 74.9941 49.4962 74.9738 49.5397 74.963C49.5815 74.955 49.6245 74.955 49.6664 74.963C49.7121 74.9673 49.7557 74.9839 49.7927 75.0111C49.8296 75.0383 49.8585 75.0751 49.8763 75.1174C49.9032 75.187 49.918 75.2606 49.9198 75.3352C49.9239 75.4677 49.9159 75.6002 49.8961 75.7312C49.8683 75.9926 49.8169 76.2381 49.7693 76.4797C49.684 76.9314 49.5743 77.3782 49.4407 77.8181C49.1951 78.6418 48.9457 79.3388 48.7397 79.9051C48.5338 80.4713 48.3437 80.9149 48.2487 81.2079C48.1933 81.3465 48.1457 81.4574 48.1141 81.5445C48.0824 81.6316 48.1061 81.7029 48.1022 81.6989Z" fill="#EB996E"/>
<path d="M29.9773 91.0801C30.6069 93.3056 31.8385 96.7429 33.1453 100.37C33.1877 100.487 33.2637 100.588 33.3636 100.662C33.4635 100.736 33.583 100.778 33.707 100.784C33.831 100.79 33.9539 100.759 34.0604 100.695C34.167 100.632 34.2522 100.538 34.3056 100.426L37.5528 93.5551C37.5528 93.5551 36.7608 87.9121 36.836 88.1101C36.9113 88.3081 30.1357 88.8427 30.1357 88.8427L29.9773 91.0801Z" fill="#27AB60"/>
<path d="M38.7605 91.6071C38.7605 91.6071 38.6734 91.5398 38.511 91.4963C38.401 91.4626 38.2838 91.4603 38.1725 91.4897C38.0613 91.5191 37.9604 91.579 37.8814 91.6626L37.7982 91.7576L37.7467 91.6349C37.5725 91.1913 37.3507 90.6171 37.129 89.9835C36.7819 89.114 36.4974 88.2207 36.2776 87.3105C36.6915 88.1514 37.041 89.0225 37.323 89.9162C37.5527 90.5459 37.7507 91.128 37.8972 91.5794L37.7626 91.5557C37.8775 91.4386 38.0307 91.3669 38.1942 91.3537C38.3132 91.3429 38.433 91.3619 38.5427 91.4091C38.7209 91.4765 38.7684 91.5992 38.7605 91.6071Z" fill="#263238"/>
<path d="M34.155 98.1411C34.2782 97.8011 34.4361 97.4746 34.6263 97.1669C34.9391 96.5809 35.3826 95.773 35.8895 94.8899C36.3964 94.0069 36.8597 93.2109 37.2042 92.6407C37.3746 92.3215 37.5748 92.0192 37.8022 91.7378C37.6766 92.0768 37.5188 92.403 37.3309 92.7119C37.0181 93.302 36.5706 94.1059 36.0677 94.9929C35.5648 95.88 35.0975 96.672 34.753 97.2422C34.5816 97.5595 34.3815 97.8604 34.155 98.1411Z" fill="#263238"/>
<path d="M31.9929 97.1073C32.1688 96.9578 32.3584 96.8252 32.5592 96.7113C32.9275 96.4737 33.4621 96.1411 34.1115 95.7451L34.0759 95.852C33.7155 95.0085 33.2839 94.0225 32.8403 92.9612C32.278 91.6267 31.7751 90.3991 31.4068 89.4843L31.5177 89.5199C31.0029 89.8011 30.5831 90.0229 30.2941 90.1733C30.1466 90.2615 29.9899 90.3332 29.8268 90.3872C29.9564 90.2748 30.0986 90.1778 30.2505 90.0981C30.5317 89.9239 30.9356 89.6823 31.4385 89.3893L31.5098 89.3457L31.5454 89.4249C31.9414 90.3278 32.4641 91.5435 33.0265 92.882C33.47 93.9472 33.8779 94.9372 34.2145 95.7847L34.2422 95.8559L34.1788 95.8916C33.5215 96.2876 32.9908 96.5846 32.5948 96.7945C32.4052 96.9187 32.2035 97.0235 31.9929 97.1073Z" fill="#FAFAFA"/>
<path d="M49.6109 175.357C50.1911 175.34 50.7441 175.107 51.161 174.704C51.578 174.3 51.8288 173.755 51.8642 173.175C52.5413 162.214 55.5905 112.354 54.9807 110.789C54.2917 109.031 52.4819 102.917 52.4819 102.917L36.3132 102.168C36.3132 102.168 32.2899 108.504 31.7117 110.952C31.189 113.134 16.541 159.291 14.7194 169.092C14.6292 169.579 14.7221 170.082 14.9801 170.505C15.2381 170.927 15.6431 171.239 16.1173 171.381L49.6109 175.357Z" fill="#263238"/>
<path d="M39.505 102.513C39.505 102.513 39.4852 102.572 39.4337 102.687L39.204 103.186L38.3012 105.095C38.123 105.518 37.9289 105.99 37.7111 106.5C37.4933 107.011 37.2557 107.574 37.0419 108.187C36.828 108.801 36.5667 109.451 36.3251 110.148C36.0836 110.845 35.8578 111.589 35.6044 112.369L34.8876 114.84C34.654 115.703 34.4322 116.606 34.1867 117.541C33.9412 118.475 33.7472 119.45 33.5135 120.452C33.2799 121.453 33.07 122.487 32.868 123.552C32.4324 125.675 32.0048 127.908 31.5533 130.229C31.1019 132.549 30.6188 134.941 30.0525 137.381C29.7792 138.6 29.4624 139.788 29.1694 140.976C28.8764 142.164 28.5318 143.313 28.1834 144.441C27.4983 146.702 26.7459 148.857 25.9776 150.884C24.4253 154.943 22.8096 158.511 21.4236 161.477C20.0376 164.443 18.8219 166.811 17.9903 168.447L17.028 170.336C16.9211 170.542 16.834 170.704 16.7706 170.819C16.7437 170.875 16.7133 170.929 16.6796 170.981C16.701 170.923 16.7262 170.866 16.7548 170.811C16.8102 170.692 16.8894 170.526 16.9924 170.316C17.2102 169.872 17.523 169.235 17.927 168.419C18.719 166.776 19.907 164.396 21.2969 161.422C22.6869 158.448 24.2669 154.88 25.8074 150.825C26.5677 148.797 27.3161 146.647 28.0012 144.39C28.3457 143.265 28.6546 142.105 28.9793 140.933C29.304 139.76 29.5892 138.557 29.8545 137.333C30.4208 134.898 30.896 132.498 31.3593 130.185C31.8226 127.873 32.2424 125.635 32.6859 123.513C32.8958 122.447 33.1334 121.414 33.3472 120.412C33.561 119.41 33.8105 118.432 34.0283 117.497C34.2461 116.563 34.5035 115.66 34.7411 114.797C34.9787 113.933 35.2401 113.114 35.4737 112.326L36.2024 110.088C36.4479 109.391 36.7053 108.742 36.935 108.132C37.1646 107.522 37.3983 106.944 37.624 106.449C37.8497 105.954 38.0477 105.467 38.2299 105.047C38.6259 104.219 38.9506 103.582 39.1644 103.15L39.4139 102.663L39.505 102.513Z" fill="#455A64"/>
<path d="M25.2292 172.355C25.2292 172.355 25.2292 172.296 25.2688 172.177C25.3084 172.058 25.352 171.872 25.4114 171.65L25.9737 169.631C26.4608 167.864 27.1617 165.33 28.0329 162.202C28.9041 159.073 29.906 155.323 30.995 151.161C31.5336 149.078 32.0959 146.892 32.682 144.627C33.268 142.362 33.8343 140.002 34.4362 137.594C35.0382 135.186 35.5846 132.842 36.1351 130.545C36.6855 128.249 37.1766 126.067 37.6676 123.972C38.622 119.778 39.4615 115.992 40.1466 112.812C40.8316 109.633 41.3742 107.063 41.7583 105.288C41.9444 104.405 42.0909 103.705 42.1939 103.237C42.2454 103.012 42.285 102.841 42.3127 102.707C42.3404 102.572 42.3602 102.524 42.3602 102.524C42.3545 102.587 42.3453 102.649 42.3325 102.711C42.3087 102.837 42.277 103.015 42.2335 103.245C42.1424 103.724 42.0078 104.433 41.8375 105.304L41.1841 108.544C40.9188 109.811 40.6218 111.252 40.2891 112.844C39.6238 116.012 38.8002 119.814 37.8498 124.015C37.3706 126.11 36.8716 128.316 36.3291 130.593C35.7866 132.87 35.2164 135.23 34.6382 137.646C34.06 140.061 33.4502 142.398 32.876 144.675C32.3018 146.952 31.7236 149.13 31.1811 151.209C30.0763 155.371 29.0546 159.129 28.1755 162.241L26.9875 166.467C26.6271 167.706 26.3143 168.775 26.0608 169.635C25.8074 170.494 25.6015 171.175 25.4629 171.646C25.3956 171.868 25.3401 172.042 25.3045 172.165C25.2688 172.288 25.2292 172.355 25.2292 172.355Z" fill="#455A64"/>
<path d="M44.4986 102.564C44.4986 102.564 44.4986 102.624 44.5263 102.747L44.5936 103.293C44.6213 103.535 44.657 103.832 44.6966 104.176C44.7362 104.521 44.748 104.936 44.7758 105.392C44.7758 105.622 44.8035 105.863 44.8154 106.117C44.8272 106.37 44.8154 106.639 44.8154 106.909V107.78C44.8154 108.081 44.7876 108.398 44.7758 108.722C44.7639 109.047 44.7441 109.384 44.7243 109.728C44.7045 110.073 44.6609 110.433 44.6253 110.801C44.5738 111.538 44.4471 112.306 44.3481 113.122C44.1026 114.741 43.7778 116.504 43.362 118.385C42.9462 120.266 42.4592 122.261 41.9523 124.364C41.4454 126.467 40.9187 128.677 40.4831 130.985C40.0475 133.294 39.6911 135.702 39.3664 138.177C39.0417 140.652 38.808 143.063 38.5308 145.404C38.2536 147.744 38.016 150.001 37.7388 152.136L37.3112 155.272C37.1448 156.282 36.9983 157.252 36.832 158.218C36.6657 159.185 36.4954 160.079 36.3093 160.955C36.1232 161.83 35.937 162.665 35.7509 163.461C35.5648 164.257 35.3549 165.01 35.1569 165.722C34.9589 166.435 34.7372 167.093 34.5471 167.702C34.4481 168.011 34.361 168.312 34.258 168.597C34.155 168.883 34.0521 169.156 33.957 169.417C33.763 169.936 33.5848 170.415 33.4224 170.843C33.074 171.69 32.769 172.332 32.579 172.775L32.3493 173.274C32.2978 173.385 32.2661 173.441 32.2661 173.441C32.2661 173.441 32.2661 173.377 32.3295 173.262C32.3928 173.147 32.4522 172.973 32.5394 172.755C32.7215 172.312 33.0106 171.662 33.3314 170.815L33.8422 169.382L34.1392 168.566C34.2382 168.281 34.3214 167.976 34.4164 167.667C34.6025 167.045 34.8124 166.384 35.0104 165.687L35.5886 163.43L36.135 160.923C36.3132 160.048 36.4677 159.133 36.6459 158.187C36.8241 157.24 36.9508 156.254 37.1092 155.244C37.2676 154.235 37.3864 153.185 37.529 152.112C37.7943 149.966 38.0517 147.712 38.321 145.38C38.5902 143.048 38.8397 140.628 39.1565 138.137C39.4733 135.646 39.8456 133.247 40.2812 130.93C40.7168 128.613 41.2514 126.404 41.7622 124.305C42.273 122.206 42.772 120.206 43.1918 118.333C43.6115 116.46 43.9442 114.698 44.2016 113.082C44.3045 112.29 44.4352 111.498 44.4906 110.77C44.5302 110.405 44.5619 110.049 44.5976 109.704C44.6332 109.36 44.6372 109.023 44.657 108.698C44.6768 108.374 44.7005 108.065 44.7045 107.76C44.7084 107.455 44.7045 107.17 44.7045 106.893C44.7045 106.616 44.7045 106.35 44.7045 106.101C44.7045 105.851 44.6807 105.61 44.6728 105.38C44.649 104.925 44.649 104.517 44.6134 104.168C44.5778 103.82 44.554 103.523 44.5302 103.281C44.5065 103.04 44.4946 102.865 44.4827 102.735C44.4843 102.678 44.4896 102.621 44.4986 102.564Z" fill="#455A64"/>
<path d="M42.7324 174.886C42.7143 174.826 42.6998 174.765 42.6888 174.704C42.665 174.573 42.6294 174.395 42.5858 174.165C42.5423 173.935 42.4908 173.63 42.4274 173.282C42.3641 172.933 42.2809 172.537 42.2413 172.094C42.2017 171.65 42.1304 171.132 42.0631 170.577C41.9958 170.023 41.9839 169.413 41.9364 168.764C41.9364 168.439 41.8968 168.098 41.8849 167.754C41.873 167.409 41.8849 167.045 41.8849 166.673C41.8849 166.3 41.8849 165.924 41.8849 165.532C41.8849 165.14 41.9166 164.74 41.9285 164.344C41.9404 163.948 41.9641 163.513 41.98 163.085C41.9958 162.657 42.0512 162.218 42.0829 161.77C42.1423 160.875 42.2572 159.953 42.368 158.998C42.4789 158.044 42.6373 157.054 42.764 156.036C42.8908 155.018 43.0967 153.977 43.3026 152.912C44.0946 148.639 45.1638 143.994 46.1538 139.091C47.0825 134.482 47.7764 129.828 48.2328 125.148C48.6605 120.832 48.8228 116.931 48.8783 113.664C48.8783 112.025 48.8783 110.54 48.8783 109.241C48.8783 107.942 48.8228 106.817 48.7832 105.899C48.7436 104.98 48.708 104.271 48.6882 103.788C48.6882 103.554 48.6882 103.372 48.6882 103.241C48.6882 103.111 48.6882 103.051 48.6882 103.051C48.6882 103.051 48.6882 103.115 48.6882 103.237C48.6882 103.36 48.712 103.554 48.7318 103.788C48.7634 104.267 48.8228 104.976 48.8624 105.895C48.902 106.813 48.9575 107.934 48.9931 109.237C49.0288 110.54 49.0406 112.009 49.0327 113.664C48.9971 116.947 48.8466 120.855 48.4308 125.176C47.9827 129.864 47.2927 134.526 46.3637 139.143C45.3737 144.053 44.2847 148.694 43.4966 152.959C43.2907 154.02 43.1284 155.066 42.9502 156.076C42.772 157.085 42.6373 158.075 42.5344 159.034C42.4314 159.992 42.3007 160.911 42.2413 161.806C42.2017 162.249 42.1661 162.685 42.1304 163.113C42.0948 163.54 42.0908 163.96 42.071 164.368C42.0512 164.776 42.0394 165.18 42.0196 165.556V167.77C42.0196 168.114 42.0512 168.451 42.0671 168.775C42.1067 169.425 42.1067 170.035 42.174 170.585C42.2413 171.136 42.2849 171.646 42.3324 172.106C42.3799 172.565 42.4472 172.961 42.4987 173.294L42.6413 174.177C42.6769 174.407 42.7007 174.573 42.7244 174.719C42.7482 174.866 42.7324 174.886 42.7324 174.886Z" fill="#455A64"/>
<path d="M51.6067 102.877C51.6067 102.877 51.6265 102.936 51.6622 103.055L51.8166 103.578L52.0582 104.437C52.1707 104.828 52.2632 105.225 52.3354 105.625C52.4225 106.073 52.5452 106.568 52.6324 107.118C52.7195 107.669 52.7947 108.267 52.8858 108.912C52.9769 109.557 52.9927 110.25 53.0521 110.987C53.1115 111.724 53.1115 112.5 53.0957 113.319C53.0957 114.955 52.961 116.741 52.7512 118.654C52.5413 120.566 52.2126 122.594 51.8324 124.716L50.589 131.377C50.1534 133.686 49.7732 136.086 49.4287 138.553C49.0842 141.02 48.803 143.431 48.5734 145.768C48.3437 148.104 48.1774 150.365 48.0427 152.52C47.9081 154.674 47.8249 156.721 47.7853 158.642C47.7457 160.562 47.722 162.348 47.7299 163.98C47.7378 165.611 47.7616 167.088 47.8012 168.383C47.8408 169.678 47.8883 170.795 47.9239 171.706C47.9596 172.617 48.0031 173.317 48.0269 173.805C48.0269 174.039 48.0348 174.222 48.0506 174.351C48.0506 174.478 48.0506 174.541 48.0506 174.541C48.0506 174.541 48.0506 174.478 48.0269 174.355L47.9833 173.808C47.9516 173.329 47.8962 172.62 47.8447 171.71C47.7932 170.799 47.7259 169.682 47.6863 168.387C47.6467 167.092 47.6032 165.615 47.5834 163.98C47.5636 162.344 47.5834 160.558 47.615 158.638C47.6467 156.717 47.7378 154.678 47.8526 152.508C47.9675 150.338 48.1378 148.088 48.3714 145.748C48.605 143.408 48.8743 140.996 49.2268 138.521C49.5792 136.046 49.9514 133.65 50.391 131.341L51.6463 124.685C52.0423 122.562 52.3472 120.535 52.5809 118.634C52.8145 116.733 52.9254 114.947 52.9492 113.316C52.9492 112.5 52.9254 111.732 52.9214 110.991C52.9175 110.25 52.8185 109.569 52.771 108.924C52.7234 108.278 52.6086 107.684 52.5373 107.134C52.466 106.584 52.3393 106.092 52.2601 105.641C52.1809 105.19 52.0978 104.798 51.9988 104.453C51.8998 104.109 51.8364 103.831 51.777 103.594C51.7176 103.356 51.674 103.198 51.6424 103.063C51.6107 102.928 51.6067 102.877 51.6067 102.877Z" fill="#455A64"/>
<path d="M166.808 41.6918L127.19 47.288C125.719 47.4957 124.695 48.8561 124.903 50.3265L130.172 87.6277C130.38 89.0981 131.74 90.1217 133.211 89.914L172.829 84.3178C174.3 84.1101 175.323 82.7497 175.115 81.2793L169.847 43.9781C169.639 42.5077 168.278 41.4841 166.808 41.6918Z" fill="#27AB60"/>
<path d="M158.444 71.165C158.345 71.1949 158.245 71.2161 158.143 71.2284L157.275 71.371L154.044 71.866L143.237 73.45H143.15L143.126 73.3628C142.964 72.8005 142.79 72.2105 142.615 71.6086C141.146 66.4606 139.843 61.8788 138.976 58.8811L139.047 58.9247L136.165 59.3207L135.396 59.4157C135.307 59.4227 135.217 59.4227 135.127 59.4157C135.212 59.3896 135.3 59.371 135.388 59.3603L136.153 59.2336L139.028 58.79H139.083V58.8415L142.798 71.5492L143.304 73.3074L143.194 73.2322L154.044 71.7274L157.267 71.2957L158.143 71.1888C158.242 71.173 158.343 71.165 158.444 71.165Z" fill="#EBEBEB"/>
<path d="M142.346 70.2625H142.421L142.643 70.2189L143.51 70.0803L146.762 69.5814L157.976 67.934L157.889 68.0291C157.953 66.0926 158.02 63.9978 158.087 61.8317C158.123 60.7189 158.158 59.622 158.194 58.5765L158.309 58.6835L145.079 60.5486L141.162 61.0793L140.105 61.2139L139.828 61.2456H139.733C139.763 61.2328 139.795 61.2248 139.828 61.2218L140.097 61.1743L141.15 61.004L145.063 60.41L158.281 58.4775H158.4V58.6003C158.368 59.6457 158.333 60.7387 158.297 61.8554C158.226 64.0215 158.154 66.1164 158.091 68.0528V68.1122H158.008L146.781 69.6962L143.526 70.1358L142.655 70.2467L142.429 70.2704L142.346 70.2625Z" fill="#EBEBEB"/>
<path d="M147.633 76.9308C147.613 76.9308 147.593 76.7962 147.494 76.5823C147.354 76.2793 147.119 76.0304 146.825 75.8735C146.588 75.7456 146.321 75.6858 146.052 75.7008C145.784 75.7158 145.525 75.805 145.304 75.9585C145.083 76.112 144.909 76.3238 144.802 76.5703C144.694 76.8167 144.657 77.0882 144.694 77.3545C144.741 77.6428 144.872 77.9104 145.073 78.1224C145.274 78.3343 145.534 78.4808 145.819 78.5425C146.057 78.592 146.303 78.5817 146.536 78.5126C146.769 78.4435 146.981 78.3177 147.154 78.1465C147.394 77.9134 147.55 77.6069 147.597 77.2753C147.633 77.0417 147.597 76.9031 147.633 76.9031C147.682 77.0289 147.699 77.1652 147.68 77.2991C147.658 77.6611 147.507 78.0034 147.257 78.2653C147.07 78.4613 146.836 78.6069 146.578 78.6886C146.32 78.7703 146.045 78.7854 145.78 78.7326C145.449 78.6676 145.148 78.5016 144.916 78.2575C144.684 78.0135 144.534 77.7035 144.486 77.3704C144.438 77.0373 144.495 76.6976 144.649 76.3982C144.802 76.0988 145.045 75.8546 145.344 75.6993C145.584 75.5741 145.852 75.5114 146.122 75.5169C146.393 75.5225 146.658 75.5961 146.892 75.7309C147.203 75.908 147.443 76.1881 147.569 76.5229C147.625 76.6513 147.647 76.7917 147.633 76.9308Z" fill="#EBEBEB"/>
<path d="M157.418 75.5252C157.418 75.5252 157.378 75.3905 157.279 75.1767C157.139 74.8726 156.903 74.6234 156.606 74.4678C156.37 74.3412 156.104 74.2825 155.837 74.2983C155.57 74.314 155.312 74.4036 155.093 74.557C154.874 74.7105 154.702 74.9218 154.596 75.1673C154.489 75.4129 154.453 75.6832 154.492 75.948C154.53 76.2128 154.641 76.4618 154.812 76.6672C154.984 76.8727 155.209 77.0265 155.463 77.1116C155.716 77.1966 155.989 77.2096 156.249 77.1491C156.51 77.0885 156.749 76.9568 156.939 76.7686C157.179 76.5355 157.335 76.229 157.382 75.8974C157.418 75.6638 157.382 75.5252 157.418 75.5252C157.466 75.6513 157.481 75.7876 157.461 75.9212C157.442 76.2831 157.293 76.626 157.042 76.8874C156.855 77.0834 156.621 77.229 156.363 77.3107C156.105 77.3924 155.83 77.4075 155.565 77.3547C155.234 77.2897 154.933 77.1237 154.701 76.8796C154.469 76.6356 154.319 76.3256 154.271 75.9925C154.223 75.6594 154.28 75.3196 154.434 75.0202C154.588 74.7209 154.831 74.4766 155.129 74.3213C155.369 74.1962 155.637 74.1335 155.907 74.139C156.178 74.1445 156.443 74.2181 156.677 74.353C156.988 74.5301 157.228 74.8102 157.355 75.145C157.405 75.2649 157.427 75.3952 157.418 75.5252Z" fill="#EBEBEB"/>
<path d="M160.901 59.562C162.237 57.5426 161.683 54.8229 159.663 53.4874C157.644 52.1518 154.924 52.7061 153.589 54.7255C152.253 56.7448 152.807 59.4645 154.827 60.8001C156.846 62.1357 159.566 61.5814 160.901 59.562Z" fill="#FAFAFA"/>
<path d="M159.366 55.1865C159.241 55.4665 159.086 55.732 158.903 55.9785C158.594 56.4458 158.158 57.0794 157.667 57.7764L157.141 58.5169L157.085 58.5961L157.006 58.5446C156.383 58.1701 155.79 57.7478 155.232 57.2814C155.886 57.599 156.515 57.9657 157.113 58.3783L156.978 58.402L157.501 57.6576C157.992 56.9606 158.448 56.3389 158.784 55.8914C158.951 55.635 159.146 55.3986 159.366 55.1865Z" fill="#27AB60"/>
<path d="M170.371 99.4996L139.928 91.8248C138.488 91.4618 137.027 92.3348 136.664 93.7747L129.453 122.378C129.09 123.818 129.963 125.279 131.403 125.642L161.845 133.317C163.285 133.68 164.747 132.807 165.11 131.367L172.321 102.764C172.684 101.324 171.811 99.8627 170.371 99.4996Z" fill="#455A64"/>
<path d="M142.722 107.759L143 115.323L156.86 118.82L160.776 112.61C160.776 112.61 159.434 111.779 158.455 111.743L160.087 104.179C160.124 104.01 160.118 103.833 160.071 103.666C160.024 103.499 159.937 103.346 159.817 103.22C159.697 103.094 159.548 103 159.383 102.945C159.218 102.89 159.043 102.876 158.871 102.904L157.378 103.154L149.557 101.174L148.765 100.497C148.63 100.379 148.466 100.298 148.29 100.262C148.114 100.225 147.931 100.235 147.76 100.29C147.589 100.345 147.435 100.443 147.313 100.575C147.19 100.707 147.104 100.868 147.063 101.043L145.233 108.504C144.46 108.076 143.603 107.822 142.722 107.759Z" fill="#FAFAFA"/>
<path d="M146.579 112.638C147.14 113.679 148.02 114.512 149.09 115.014C150.156 115.51 151.313 115.78 152.488 115.806C153.125 115.83 153.834 115.775 154.282 115.323C154.729 114.872 154.785 114.135 154.796 113.47C154.847 112.625 154.778 111.777 154.591 110.951C154.497 110.536 154.317 110.145 154.063 109.804C153.808 109.463 153.485 109.179 153.113 108.971C152.084 108.472 150.836 108.825 149.843 109.387C148.53 110.131 147.437 111.209 146.675 112.512" fill="#E0E0E0"/>
<path d="M143.722 115.503L142.989 115.318L141.372 121.73L142.106 121.915L143.722 115.503Z" fill="#263238"/>
<path d="M146.281 116.155L145.548 115.97L144.722 119.246L145.456 119.431L146.281 116.155Z" fill="#263238"/>
<path d="M153.636 118.012L152.903 117.827L152.077 121.102L152.81 121.287L153.636 118.012Z" fill="#263238"/>
<path d="M156.875 118.826L156.141 118.641L154.524 125.054L155.258 125.239L156.875 118.826Z" fill="#263238"/>
<path d="M146.948 111.981C146.892 111.981 147.455 109.554 148.203 106.592C148.952 103.63 149.597 101.238 149.652 101.253C149.708 101.269 149.15 103.677 148.401 106.643C147.653 109.609 147.003 111.993 146.948 111.981Z" fill="#263238"/>
<path d="M154.785 113.957C154.729 113.957 155.287 111.529 156.036 108.567C156.784 105.605 157.434 103.213 157.489 103.225C157.545 103.237 156.982 105.653 156.234 108.615C155.485 111.577 154.836 113.969 154.785 113.957Z" fill="#263238"/>
<path d="M158.44 111.744C158.308 111.756 158.175 111.756 158.044 111.744H157.838L157.588 111.771L157.303 111.807L156.99 111.89C156.465 112.039 155.993 112.335 155.628 112.741C155.161 113.264 154.857 113.91 154.753 114.603V114.71L154.654 114.682L150.943 113.759L146.789 112.698H146.702V112.611C146.848 111.981 146.836 111.326 146.667 110.702C146.537 110.218 146.321 109.762 146.029 109.356C145.764 109.004 145.458 108.685 145.118 108.405C145.224 108.456 145.324 108.518 145.415 108.591C145.679 108.793 145.915 109.028 146.116 109.292C146.431 109.701 146.666 110.166 146.809 110.662C146.998 111.306 147.023 111.987 146.88 112.642L146.813 112.536L150.975 113.569L154.678 114.516L154.563 114.595C154.677 113.866 155.007 113.187 155.509 112.646C155.905 112.233 156.41 111.942 156.966 111.807L157.295 111.736L157.588 111.716L157.842 111.696H158.055C158.185 111.696 158.314 111.712 158.44 111.744Z" fill="#263238"/>
<path d="M146.631 112.619C146.631 112.65 146.35 112.619 145.922 112.714C145.364 112.811 144.841 113.048 144.4 113.404C143.96 113.759 143.617 114.221 143.403 114.745C143.237 115.141 143.198 115.422 143.162 115.414C143.136 115.169 143.173 114.921 143.269 114.694C143.456 114.124 143.804 113.621 144.271 113.244C144.739 112.868 145.305 112.634 145.902 112.567C146.145 112.521 146.397 112.539 146.631 112.619Z" fill="#263238"/>
<path d="M156.693 118.931C156.662 118.931 156.729 118.626 156.729 118.139C156.728 117.511 156.583 116.892 156.305 116.329C156.024 115.77 155.618 115.283 155.117 114.907C154.721 114.618 154.452 114.511 154.464 114.464C154.731 114.515 154.983 114.626 155.2 114.789C155.755 115.146 156.204 115.646 156.5 116.236C156.796 116.826 156.928 117.484 156.883 118.143C156.882 118.417 156.817 118.686 156.693 118.931Z" fill="#263238"/>
<path d="M126.985 184.179L77.1566 183.95C74.2792 183.936 71.525 182.781 69.4993 180.737C67.4736 178.694 66.3421 175.929 66.3537 173.052L66.8804 48.1297C66.894 45.2506 68.0506 42.4947 70.0957 40.4682C72.1408 38.4416 74.9071 37.3102 77.7862 37.3229L127.615 37.5525C129.04 37.5588 130.45 37.8456 131.764 38.3966C133.078 38.9477 134.27 39.7521 135.273 40.7641C136.277 41.7761 137.071 42.9757 137.61 44.2946C138.15 45.6134 138.424 47.0256 138.418 48.4505L137.891 173.369C137.885 174.795 137.598 176.205 137.046 177.52C136.495 178.835 135.69 180.029 134.677 181.033C133.665 182.037 132.464 182.831 131.144 183.371C129.824 183.911 128.411 184.186 126.985 184.179Z" fill="#263238"/>
<path d="M127.116 41.0572L117.454 41.0097C116.817 41.0222 116.212 41.2864 115.771 41.7444C115.329 42.2024 115.087 42.8168 115.097 43.453V45.2033C115.103 45.5185 115.047 45.8317 114.932 46.125C114.816 46.4184 114.644 46.6862 114.425 46.9131C114.207 47.14 113.945 47.3215 113.656 47.4474C113.367 47.5733 113.056 47.641 112.741 47.6466L93.9114 47.5595C93.2752 47.5419 92.672 47.2727 92.234 46.8109C91.796 46.3492 91.559 45.7326 91.575 45.0964V43.3421C91.591 42.7059 91.354 42.0893 90.916 41.6276C90.478 41.1658 89.8748 40.8966 89.2386 40.879H85.8409L77.3863 40.8433C76.3879 40.8387 75.3982 41.0307 74.474 41.4084C73.5497 41.7862 72.7089 42.3423 71.9996 43.045C71.2902 43.7478 70.7263 44.5833 70.3399 45.504C69.9534 46.4247 69.7522 47.4124 69.7475 48.4109L69.2327 170.343C69.2306 171.342 69.4253 172.331 69.8058 173.255C70.1862 174.179 70.7448 175.018 71.4498 175.726C72.1548 176.433 72.9922 176.995 73.9144 177.379C74.8365 177.762 75.8252 177.961 76.824 177.962L126.554 178.192C127.552 178.197 128.541 178.005 129.465 177.627C130.389 177.249 131.23 176.693 131.939 175.99C132.648 175.287 133.212 174.452 133.598 173.531C133.984 172.61 134.184 171.623 134.189 170.624L134.699 48.7079C134.706 47.707 134.515 46.7146 134.137 45.7877C133.759 44.8608 133.202 44.0176 132.498 43.3067C131.793 42.5958 130.955 42.0311 130.031 41.6451C129.108 41.259 128.117 41.0592 127.116 41.0572Z" fill="#FAFAFA"/>
<path d="M76.2062 54.018C76.1522 54.0164 76.101 53.9937 76.0637 53.9547L75.3073 53.1627C75.2888 53.1448 75.2743 53.1232 75.2647 53.0993C75.2552 53.0754 75.2508 53.0498 75.2519 53.0241C75.252 52.9982 75.2574 52.9726 75.2676 52.9488C75.2778 52.925 75.2926 52.9034 75.3113 52.8855L76.0716 52.1608C76.0897 52.1423 76.1112 52.1277 76.135 52.1177C76.1588 52.1077 76.1844 52.1025 76.2102 52.1025C76.236 52.1025 76.2616 52.1077 76.2854 52.1177C76.3092 52.1277 76.3307 52.1423 76.3488 52.1608C76.3673 52.1792 76.3821 52.2011 76.3921 52.2252C76.4022 52.2493 76.4074 52.2752 76.4074 52.3014C76.4074 52.3275 76.4022 52.3534 76.3921 52.3775C76.3821 52.4016 76.3673 52.4235 76.3488 52.4419L75.731 53.028L76.3527 53.6775C76.3713 53.6959 76.386 53.7178 76.3961 53.7419C76.4061 53.766 76.4113 53.7919 76.4113 53.818C76.4113 53.8442 76.4061 53.8701 76.3961 53.8942C76.386 53.9183 76.3713 53.9402 76.3527 53.9586C76.3334 53.9777 76.3106 53.9927 76.2854 54.0029C76.2603 54.0131 76.2334 54.0183 76.2062 54.018Z" fill="#263238"/>
<path d="M123.164 157.062H82.0511C78.5256 157.062 75.6676 159.92 75.6676 163.445V164.589C75.6676 168.115 78.5256 170.973 82.0511 170.973H123.164C126.689 170.973 129.547 168.115 129.547 164.589V163.445C129.547 159.92 126.689 157.062 123.164 157.062Z" fill="#27AB60"/>
<path d="M96.2002 162.403H97.4516C97.6602 162.393 97.8687 162.425 98.0646 162.497C98.2605 162.57 98.4395 162.681 98.5909 162.825C98.7423 162.969 98.8629 163.142 98.9452 163.334C99.0276 163.526 99.0701 163.733 99.0701 163.942C99.0701 164.151 99.0276 164.357 98.9452 164.549C98.8629 164.741 98.7423 164.914 98.5909 165.058C98.4395 165.202 98.2605 165.314 98.0646 165.386C97.8687 165.459 97.6602 165.491 97.4516 165.48H96.2002V162.403ZM97.4357 165.199C97.6068 165.209 97.778 165.183 97.9389 165.124C98.0998 165.066 98.2469 164.975 98.3714 164.857C98.4959 164.739 98.5951 164.597 98.6629 164.44C98.7306 164.283 98.7656 164.113 98.7656 163.942C98.7656 163.77 98.7306 163.601 98.6629 163.444C98.5951 163.286 98.4959 163.144 98.3714 163.027C98.2469 162.909 98.0998 162.818 97.9389 162.759C97.778 162.7 97.6068 162.675 97.4357 162.685H96.5249V165.199H97.4357Z" fill="#FAFAFA"/>
<path d="M99.5544 163.944C99.5442 163.623 99.63 163.306 99.8011 163.033C99.9721 162.761 100.22 162.546 100.514 162.416C100.808 162.285 101.134 162.246 101.451 162.302C101.768 162.358 102.06 162.507 102.292 162.73C102.523 162.954 102.682 163.241 102.749 163.556C102.816 163.87 102.788 164.197 102.668 164.496C102.548 164.794 102.342 165.05 102.076 165.23C101.81 165.41 101.496 165.507 101.174 165.508C100.963 165.519 100.753 165.486 100.555 165.411C100.358 165.337 100.178 165.223 100.026 165.077C99.874 164.93 99.7539 164.754 99.6728 164.559C99.5918 164.364 99.5515 164.155 99.5544 163.944ZM102.461 163.944C102.465 163.687 102.392 163.434 102.252 163.218C102.112 163.003 101.91 162.834 101.674 162.733C101.437 162.632 101.176 162.604 100.923 162.652C100.67 162.701 100.438 162.823 100.255 163.004C100.072 163.185 99.9474 163.417 99.8967 163.669C99.8461 163.921 99.8717 164.183 99.9703 164.421C100.069 164.658 100.236 164.861 100.45 165.003C100.665 165.146 100.917 165.221 101.174 165.219C101.344 165.225 101.513 165.196 101.671 165.135C101.829 165.073 101.973 164.979 102.093 164.86C102.214 164.74 102.309 164.597 102.372 164.44C102.435 164.282 102.465 164.114 102.461 163.944Z" fill="#FAFAFA"/>
<path d="M106.08 162.403V165.48H105.815L103.835 162.985V165.48H103.506V162.403H103.776L105.756 164.898V162.403H106.08Z" fill="#FAFAFA"/>
<path d="M109.256 165.199V165.48H107.082V162.403H109.189V162.684H107.407V163.777H108.991V164.055H107.407V165.199H109.256Z" fill="#FAFAFA"/>
<path d="M82.1343 115.236C82.1343 115.794 81.7383 116.135 81.0612 116.135H80.3523V116.966H80.0712V114.333H81.0612C81.7304 114.329 82.1343 114.666 82.1343 115.236ZM81.8571 115.236C81.8571 114.812 81.5799 114.571 81.0651 114.571H80.3642V115.889H81.0651C81.576 115.885 81.8571 115.632 81.8571 115.236Z" fill="#263238"/>
<path d="M84.5063 114.982V116.962H84.2489V116.602C84.1772 116.727 84.073 116.829 83.9474 116.899C83.8219 116.969 83.6797 117.003 83.5361 116.998C83.4223 117.009 83.3076 116.994 83.2003 116.955C83.0929 116.916 82.9957 116.853 82.9156 116.771C82.8356 116.69 82.7747 116.591 82.7375 116.483C82.7003 116.375 82.6877 116.26 82.7006 116.147V114.998H82.9699V116.119C82.9699 116.543 83.1877 116.757 83.5639 116.757C83.6576 116.761 83.7513 116.745 83.8383 116.71C83.9254 116.675 84.0037 116.621 84.0678 116.552C84.1319 116.484 84.1802 116.402 84.2095 116.313C84.2387 116.224 84.2481 116.129 84.2371 116.036V114.998L84.5063 114.982Z" fill="#263238"/>
<path d="M86.2527 114.967V115.236H86.1893C86.0949 115.231 86.0006 115.247 85.9131 115.283C85.8256 115.318 85.747 115.373 85.6831 115.443C85.6191 115.512 85.5713 115.595 85.5432 115.685C85.515 115.776 85.5071 115.871 85.5201 115.965V116.975H85.2548V114.995H85.5082V115.391C85.5745 115.253 85.6812 115.138 85.8143 115.062C85.9473 114.987 86.1002 114.953 86.2527 114.967Z" fill="#263238"/>
<path d="M86.5141 115.973C86.5102 115.838 86.534 115.704 86.5842 115.579C86.6343 115.454 86.7097 115.341 86.8056 115.247C86.9015 115.152 87.0158 115.079 87.1415 115.031C87.2671 114.982 87.4014 114.961 87.5358 114.967C87.6913 114.955 87.847 114.986 87.9864 115.055C88.1259 115.125 88.2438 115.231 88.3278 115.363L88.1258 115.497C88.0623 115.404 87.9764 115.329 87.8761 115.278C87.7758 115.227 87.6642 115.201 87.5516 115.204C87.3766 115.244 87.2204 115.342 87.1085 115.483C86.9966 115.623 86.9356 115.797 86.9356 115.977C86.9356 116.156 86.9966 116.33 87.1085 116.47C87.2204 116.611 87.3766 116.709 87.5516 116.749C87.6639 116.753 87.7754 116.728 87.8757 116.678C87.9761 116.627 88.0621 116.552 88.1258 116.46L88.3278 116.594C88.2426 116.725 88.1244 116.83 87.9853 116.899C87.8461 116.969 87.691 117 87.5358 116.99C87.4005 116.996 87.2655 116.973 87.1393 116.924C87.0131 116.875 86.8984 116.8 86.8024 116.705C86.7065 116.609 86.6313 116.495 86.5817 116.369C86.5321 116.243 86.5091 116.108 86.5141 115.973Z" fill="#263238"/>
<path d="M90.6285 115.814V116.962H90.3593V115.842C90.3715 115.759 90.3649 115.675 90.3399 115.595C90.315 115.515 90.2724 115.442 90.2153 115.381C90.1582 115.32 90.088 115.273 90.0101 115.243C89.9322 115.213 89.8485 115.201 89.7653 115.208C89.6704 115.201 89.5752 115.215 89.4864 115.249C89.3975 115.283 89.3172 115.336 89.2511 115.404C89.185 115.473 89.1347 115.555 89.1038 115.645C89.0729 115.735 89.0621 115.83 89.0723 115.925V116.962H88.803V114.17H89.0723V115.327C89.1541 115.208 89.2653 115.112 89.395 115.049C89.5248 114.986 89.6687 114.957 89.8128 114.966C89.925 114.957 90.0377 114.973 90.1429 115.013C90.2482 115.053 90.3432 115.116 90.4213 115.197C90.4993 115.278 90.5584 115.375 90.5942 115.482C90.6301 115.589 90.6418 115.702 90.6285 115.814Z" fill="#263238"/>
<path d="M92.8501 115.735V116.962H92.5927V116.653C92.5189 116.764 92.4168 116.853 92.297 116.911C92.1772 116.968 92.0441 116.993 91.9116 116.982C91.4641 116.982 91.1869 116.748 91.1869 116.404C91.1869 116.059 91.3849 115.846 91.9512 115.846H92.5808V115.723C92.5808 115.386 92.3907 115.2 92.0185 115.2C91.7786 115.198 91.5457 115.28 91.3611 115.434L91.2423 115.236C91.4673 115.057 91.7472 114.962 92.0343 114.966C92.1413 114.949 92.2509 114.956 92.3546 114.988C92.4583 115.019 92.5533 115.074 92.6322 115.149C92.7112 115.223 92.7719 115.315 92.8097 115.416C92.8474 115.518 92.8613 115.627 92.8501 115.735ZM92.5808 116.368V116.028H91.9591C91.5631 116.028 91.4522 116.178 91.4522 116.38C91.4522 116.582 91.6344 116.756 91.9512 116.756C92.0833 116.765 92.2148 116.732 92.3275 116.662C92.4403 116.593 92.5287 116.49 92.5808 116.368Z" fill="#263238"/>
<path d="M93.3015 116.737L93.4203 116.527C93.6265 116.672 93.8729 116.75 94.1252 116.749C94.5014 116.749 94.6558 116.618 94.6558 116.424C94.6558 115.909 93.3728 116.313 93.3728 115.533C93.3728 115.208 93.65 114.967 94.1648 114.967C94.4099 114.962 94.6514 115.027 94.8618 115.153L94.7469 115.366C94.5752 115.251 94.3718 115.191 94.1648 115.196C93.8044 115.196 93.646 115.335 93.646 115.525C93.646 116.059 94.9291 115.656 94.9291 116.416C94.9291 116.76 94.6281 116.982 94.1133 116.982C93.8232 116.991 93.5381 116.905 93.3015 116.737Z" fill="#263238"/>
<path d="M97.1388 116.055H95.4835C95.4895 116.153 95.5148 116.248 95.558 116.336C95.6013 116.424 95.6615 116.502 95.7352 116.566C95.8089 116.63 95.8946 116.679 95.9874 116.709C96.0801 116.74 96.1781 116.752 96.2755 116.745C96.3893 116.747 96.5024 116.725 96.6069 116.68C96.7115 116.635 96.8051 116.568 96.8814 116.483L97.0318 116.657C96.8898 116.806 96.707 116.91 96.5062 116.956C96.3055 117.001 96.0957 116.987 95.9033 116.914C95.7109 116.84 95.5443 116.712 95.4246 116.545C95.3048 116.377 95.2371 116.178 95.23 115.972C95.223 115.842 95.2428 115.711 95.2884 115.588C95.3339 115.466 95.4041 115.354 95.4948 115.26C95.5854 115.165 95.6944 115.091 95.8151 115.04C95.9357 114.99 96.0655 114.965 96.1963 114.966C96.3269 114.964 96.4566 114.989 96.5771 115.039C96.6977 115.089 96.8065 115.164 96.8966 115.259C96.9867 115.353 97.0562 115.466 97.1006 115.588C97.145 115.711 97.1634 115.842 97.1546 115.972C97.1427 115.996 97.1388 116.028 97.1388 116.055ZM95.4835 115.854H96.8893C96.876 115.676 96.7961 115.51 96.6658 115.39C96.5354 115.269 96.3642 115.201 96.1864 115.201C96.0086 115.201 95.8373 115.269 95.707 115.39C95.5766 115.51 95.4968 115.676 95.4835 115.854Z" fill="#263238"/>
<path d="M101.582 114.982L100.833 116.962H100.584L99.9622 115.339L99.3365 116.962H99.0831L98.3386 114.982H98.6039L99.2217 116.665L99.8593 114.982H100.089L100.723 116.665L101.352 114.982H101.582Z" fill="#263238"/>
<path d="M103.419 115.735V116.963H103.166V116.654C103.092 116.764 102.989 116.852 102.87 116.91C102.75 116.968 102.617 116.993 102.485 116.982C102.037 116.982 101.76 116.749 101.76 116.404C101.76 116.06 101.958 115.846 102.524 115.846H103.154V115.723C103.154 115.387 102.964 115.2 102.592 115.2C102.352 115.198 102.119 115.281 101.934 115.434L101.816 115.236C102.041 115.057 102.32 114.962 102.608 114.967C102.714 114.95 102.823 114.958 102.927 114.99C103.03 115.021 103.124 115.077 103.203 115.151C103.281 115.225 103.341 115.316 103.379 115.418C103.417 115.519 103.43 115.628 103.419 115.735ZM103.154 116.369V116.028H102.532C102.136 116.028 102.025 116.179 102.025 116.38C102.025 116.582 102.208 116.757 102.524 116.757C102.657 116.765 102.788 116.732 102.901 116.662C103.014 116.593 103.102 116.49 103.154 116.369Z" fill="#263238"/>
<path d="M103.875 116.737L103.994 116.527C104.2 116.672 104.446 116.75 104.698 116.749C105.075 116.749 105.229 116.618 105.229 116.424C105.229 115.909 103.946 116.313 103.946 115.533C103.946 115.208 104.223 114.967 104.738 114.967C104.984 114.962 105.227 115.027 105.439 115.153L105.324 115.366C105.151 115.25 104.946 115.191 104.738 115.196C104.382 115.196 104.223 115.335 104.223 115.525C104.223 116.059 105.506 115.656 105.506 116.416C105.506 116.76 105.205 116.982 104.691 116.982C104.399 116.993 104.112 116.906 103.875 116.737Z" fill="#263238"/>
<path d="M106.702 116.737L106.821 116.527C107.027 116.672 107.274 116.75 107.526 116.749C107.922 116.749 108.056 116.618 108.056 116.424C108.056 115.909 106.773 116.313 106.773 115.533C106.773 115.208 107.051 114.967 107.565 114.967C107.811 114.962 108.052 115.027 108.262 115.153L108.148 115.366C107.976 115.251 107.772 115.191 107.565 115.196C107.205 115.196 107.047 115.335 107.047 115.525C107.047 116.059 108.334 115.656 108.334 116.416C108.334 116.76 108.029 116.982 107.514 116.982C107.224 116.992 106.938 116.906 106.702 116.737Z" fill="#263238"/>
<path d="M110.603 114.982V116.962H110.345V116.602C110.274 116.727 110.169 116.829 110.044 116.899C109.918 116.969 109.776 117.003 109.633 116.998C109.519 117.009 109.404 116.994 109.297 116.955C109.189 116.916 109.092 116.853 109.012 116.771C108.932 116.69 108.871 116.591 108.834 116.483C108.797 116.375 108.784 116.26 108.797 116.147V114.998H109.066V116.119C109.066 116.543 109.284 116.757 109.66 116.757C109.754 116.761 109.848 116.745 109.935 116.71C110.022 116.675 110.1 116.621 110.164 116.552C110.228 116.484 110.277 116.402 110.306 116.313C110.335 116.224 110.345 116.129 110.333 116.036V114.998L110.603 114.982Z" fill="#263238"/>
<path d="M111.153 115.973C111.149 115.838 111.172 115.704 111.222 115.58C111.271 115.455 111.346 115.342 111.442 115.247C111.538 115.153 111.652 115.079 111.777 115.031C111.903 114.982 112.037 114.961 112.171 114.967C112.326 114.955 112.482 114.986 112.622 115.055C112.761 115.125 112.879 115.231 112.963 115.363L112.765 115.497C112.7 115.405 112.614 115.329 112.513 115.278C112.412 115.227 112.3 115.202 112.187 115.204C112.012 115.244 111.856 115.342 111.744 115.483C111.632 115.623 111.571 115.797 111.571 115.977C111.571 116.156 111.632 116.33 111.744 116.47C111.856 116.611 112.012 116.709 112.187 116.749C112.3 116.752 112.411 116.728 112.512 116.677C112.613 116.627 112.7 116.552 112.765 116.46L112.963 116.594C112.878 116.725 112.76 116.83 112.62 116.899C112.481 116.969 112.326 117 112.171 116.99C112.036 116.996 111.901 116.973 111.775 116.924C111.649 116.875 111.534 116.8 111.439 116.705C111.343 116.609 111.268 116.495 111.219 116.369C111.17 116.243 111.148 116.108 111.153 115.973Z" fill="#263238"/>
<path d="M113.256 115.973C113.252 115.838 113.276 115.704 113.326 115.579C113.376 115.454 113.452 115.341 113.547 115.247C113.643 115.152 113.758 115.079 113.883 115.031C114.009 114.982 114.143 114.961 114.278 114.967C114.433 114.955 114.589 114.986 114.728 115.055C114.868 115.125 114.986 115.231 115.07 115.363L114.868 115.497C114.804 115.404 114.718 115.329 114.618 115.278C114.518 115.227 114.406 115.201 114.293 115.204C114.118 115.244 113.962 115.342 113.85 115.483C113.738 115.623 113.677 115.797 113.677 115.977C113.677 116.156 113.738 116.33 113.85 116.47C113.962 116.611 114.118 116.709 114.293 116.749C114.406 116.753 114.517 116.728 114.618 116.678C114.718 116.627 114.804 116.552 114.868 116.46L115.07 116.594C114.984 116.725 114.866 116.83 114.727 116.899C114.588 116.969 114.433 117 114.278 116.99C114.142 116.996 114.007 116.973 113.881 116.924C113.755 116.875 113.64 116.8 113.544 116.705C113.448 116.609 113.373 116.495 113.324 116.369C113.274 116.243 113.251 116.108 113.256 115.973Z" fill="#263238"/>
<path d="M117.248 116.055H115.592C115.598 116.153 115.623 116.249 115.666 116.337C115.709 116.425 115.769 116.503 115.843 116.567C115.917 116.631 116.003 116.68 116.096 116.711C116.189 116.741 116.287 116.753 116.384 116.745C116.498 116.747 116.611 116.725 116.716 116.68C116.82 116.635 116.914 116.568 116.99 116.483L117.145 116.657C117.002 116.806 116.819 116.909 116.618 116.955C116.417 117 116.208 116.985 116.015 116.912C115.823 116.839 115.656 116.711 115.536 116.544C115.416 116.377 115.347 116.178 115.339 115.972C115.332 115.842 115.352 115.711 115.397 115.588C115.443 115.466 115.513 115.354 115.604 115.26C115.694 115.165 115.803 115.091 115.924 115.04C116.045 114.99 116.174 114.965 116.305 114.966C116.436 114.964 116.566 114.989 116.687 115.039C116.807 115.089 116.916 115.164 117.007 115.258C117.097 115.353 117.167 115.465 117.212 115.588C117.257 115.711 117.276 115.842 117.267 115.972C117.252 115.996 117.248 116.028 117.248 116.055ZM115.592 115.854H116.994C116.994 115.668 116.92 115.489 116.789 115.358C116.657 115.226 116.479 115.153 116.293 115.153C116.107 115.153 115.929 115.226 115.798 115.358C115.666 115.489 115.592 115.668 115.592 115.854Z" fill="#263238"/>
<path d="M117.521 116.737L117.644 116.527C117.849 116.674 118.096 116.751 118.349 116.749C118.725 116.749 118.879 116.618 118.879 116.424C118.879 115.909 117.592 116.313 117.592 115.533C117.592 115.208 117.873 114.967 118.384 114.967C118.631 114.962 118.873 115.027 119.085 115.153L118.97 115.366C118.797 115.251 118.592 115.191 118.384 115.196C118.028 115.196 117.869 115.335 117.869 115.525C117.869 116.059 119.152 115.656 119.152 116.416C119.152 116.76 118.851 116.982 118.337 116.982C118.045 116.992 117.759 116.905 117.521 116.737Z" fill="#263238"/>
<path d="M119.362 116.737L119.485 116.527C119.69 116.674 119.937 116.751 120.19 116.749C120.566 116.749 120.721 116.618 120.721 116.424C120.721 115.909 119.434 116.313 119.434 115.533C119.434 115.208 119.715 114.967 120.226 114.967C120.472 114.962 120.715 115.027 120.926 115.153L120.812 115.366C120.638 115.251 120.434 115.191 120.226 115.196C119.869 115.196 119.711 115.335 119.711 115.525C119.711 116.059 120.994 115.656 120.994 116.416C120.994 116.76 120.693 116.982 120.178 116.982C119.887 116.992 119.6 116.905 119.362 116.737Z" fill="#263238"/>
<path d="M121.786 114.749V114.983H122.396V115.208H121.794V116.963H121.525V115.208H121.176V114.983H121.528V114.737C121.522 114.657 121.532 114.577 121.56 114.502C121.588 114.427 121.632 114.359 121.689 114.303C121.746 114.247 121.815 114.204 121.891 114.178C121.966 114.152 122.047 114.143 122.126 114.151C122.268 114.146 122.408 114.189 122.522 114.274L122.431 114.476C122.349 114.408 122.245 114.372 122.138 114.377C121.905 114.377 121.786 114.503 121.786 114.749Z" fill="#263238"/>
<path d="M124.542 114.982V116.962H124.285V116.602C124.213 116.727 124.109 116.829 123.983 116.899C123.857 116.969 123.715 117.003 123.572 116.998C123.458 117.009 123.343 116.994 123.236 116.955C123.129 116.916 123.031 116.853 122.951 116.771C122.871 116.69 122.81 116.591 122.773 116.483C122.736 116.375 122.723 116.26 122.736 116.147V114.998H123.005V116.119C123.005 116.543 123.223 116.757 123.599 116.757C123.693 116.761 123.787 116.745 123.874 116.71C123.961 116.675 124.039 116.621 124.103 116.552C124.168 116.484 124.216 116.402 124.245 116.313C124.274 116.224 124.284 116.129 124.273 116.036V114.998L124.542 114.982Z" fill="#263238"/>
<path d="M125.29 114.17H125.56V116.962H125.29V114.17Z" fill="#263238"/>
<path d="M83.75 104.469H82.075V103.677H86.3597V104.469H84.6846V108.726H83.75V104.469Z" fill="#27AB60"/>
<path d="M90.7671 106.524V108.733H89.8682V106.642C89.8682 105.957 89.5277 105.625 88.9535 105.625C88.3119 105.625 87.8763 106.021 87.8763 106.785V108.733H86.9774V103.375H87.8763V105.336C88.0451 105.17 88.2461 105.041 88.4668 104.957C88.6875 104.872 88.9233 104.834 89.1594 104.845C90.0821 104.829 90.7671 105.355 90.7671 106.524Z" fill="#27AB60"/>
<path d="M95.135 106.468V108.726H94.2875V108.254C94.1457 108.436 93.9602 108.579 93.7484 108.67C93.5365 108.76 93.3051 108.796 93.0758 108.773C92.1967 108.773 91.6383 108.29 91.6383 107.621C91.6383 106.952 92.0739 106.476 93.2421 106.476H94.2479V106.417C94.2479 105.89 93.9311 105.581 93.2896 105.581C92.8603 105.575 92.4415 105.715 92.1016 105.977L91.7492 105.324C92.226 104.993 92.7968 104.825 93.3767 104.845C94.4935 104.829 95.135 105.356 95.135 106.468ZM94.2479 107.518V107.074H93.3173C92.7035 107.074 92.5253 107.304 92.5253 107.585C92.5253 107.866 92.8025 108.12 93.2619 108.12C93.4689 108.137 93.676 108.088 93.8533 107.98C94.0306 107.872 94.1688 107.71 94.2479 107.518Z" fill="#27AB60"/>
<path d="M100.081 106.524V108.733H99.1782V106.643C99.1782 105.957 98.8416 105.625 98.2634 105.625C97.6219 105.625 97.1902 106.021 97.1902 106.785V108.733H96.2874V104.88H97.1467V105.379C97.3141 105.197 97.5198 105.053 97.7492 104.959C97.9785 104.866 98.2258 104.824 98.4733 104.837C99.396 104.829 100.081 105.356 100.081 106.524Z" fill="#27AB60"/>
<path d="M102.798 107.074L102.128 107.712V108.729H101.225V103.375H102.128V106.603L103.993 104.872H105.075L103.467 106.488L105.225 108.725H104.148L102.798 107.074Z" fill="#27AB60"/>
<path d="M111.403 104.873L109.601 109.035C109.248 109.906 108.757 110.171 108.116 110.171C107.742 110.179 107.377 110.054 107.086 109.819L107.447 109.157C107.625 109.327 107.862 109.422 108.108 109.423C108.425 109.423 108.615 109.272 108.785 108.888L108.852 108.738L107.173 104.873H108.108L109.32 107.72L110.539 104.873H111.403Z" fill="#27AB60"/>
<path d="M111.537 106.797C111.523 106.388 111.631 105.985 111.848 105.638C112.065 105.291 112.38 105.017 112.754 104.851C113.128 104.685 113.542 104.634 113.945 104.706C114.347 104.777 114.72 104.967 115.013 105.251C115.307 105.535 115.51 105.901 115.594 106.301C115.679 106.701 115.642 107.117 115.489 107.496C115.335 107.875 115.072 108.199 114.732 108.428C114.393 108.656 113.994 108.777 113.585 108.777C113.318 108.792 113.05 108.751 112.8 108.658C112.549 108.564 112.321 108.42 112.128 108.234C111.936 108.048 111.784 107.825 111.683 107.577C111.581 107.33 111.532 107.064 111.537 106.797ZM114.733 106.797C114.725 106.573 114.65 106.356 114.52 106.174C114.389 105.991 114.208 105.852 113.998 105.771C113.789 105.691 113.56 105.675 113.341 105.723C113.122 105.772 112.923 105.884 112.767 106.045C112.611 106.206 112.506 106.41 112.465 106.63C112.423 106.851 112.448 107.078 112.535 107.285C112.622 107.492 112.768 107.668 112.955 107.793C113.141 107.917 113.36 107.984 113.585 107.985C113.74 107.988 113.894 107.96 114.038 107.901C114.181 107.842 114.311 107.754 114.419 107.642C114.527 107.531 114.61 107.398 114.664 107.252C114.718 107.107 114.742 106.952 114.733 106.797Z" fill="#27AB60"/>
<path d="M120.234 104.873V108.726H119.374V108.235C119.22 108.41 119.029 108.55 118.815 108.643C118.6 108.736 118.368 108.78 118.135 108.773C117.145 108.773 116.475 108.235 116.475 107.074V104.873H117.378V106.952C117.378 107.649 117.707 107.981 118.277 107.981C118.847 107.981 119.331 107.585 119.331 106.821V104.873H120.234Z" fill="#27AB60"/>
<path d="M121.247 108.211C121.248 108.136 121.263 108.062 121.293 107.993C121.323 107.924 121.366 107.862 121.42 107.81C121.475 107.758 121.539 107.718 121.609 107.692C121.68 107.665 121.754 107.653 121.829 107.657C121.977 107.657 122.119 107.715 122.224 107.82C122.329 107.925 122.388 108.067 122.388 108.215C122.388 108.363 122.329 108.505 122.224 108.61C122.119 108.714 121.977 108.773 121.829 108.773C121.754 108.776 121.679 108.763 121.608 108.736C121.538 108.709 121.473 108.668 121.419 108.616C121.365 108.563 121.321 108.5 121.292 108.431C121.262 108.361 121.247 108.287 121.247 108.211ZM121.299 103.677H122.364L122.186 107.051H121.469L121.299 103.677Z" fill="#27AB60"/>
<path d="M102.968 96.1247C108.694 96.1247 113.335 91.4831 113.335 85.7574C113.335 80.0317 108.694 75.3901 102.968 75.3901C97.2422 75.3901 92.6006 80.0317 92.6006 85.7574C92.6006 91.4831 97.2422 96.1247 102.968 96.1247Z" fill="#27AB60"/>
<path d="M108.072 81.3818C108.203 81.4887 106.267 84.0944 103.748 87.1991L102.219 89.0523L102.01 89.3058L101.788 89.0761C99.8078 87.0446 98.4733 85.5398 98.5684 85.4448C98.6634 85.3497 100.172 86.6922 102.2 88.6603L101.772 88.7039L103.269 86.8308C105.787 83.7063 107.938 81.2749 108.072 81.3818Z" fill="white"/>
<path d="M117.695 81.5758C117.386 80.4868 115.973 80.5937 115.973 80.5937L116.008 81.3501C116.828 81.2075 117.335 82.1658 117.335 82.1658L117.695 81.5758Z" fill="#27AB60"/>
<path d="M87.6625 83.8646C87.3576 82.7756 85.9399 82.8786 85.9399 82.8786L85.9795 83.6389C86.7993 83.4963 87.3061 84.4547 87.3061 84.4547L87.6625 83.8646Z" fill="#E0E0E0"/>
<path d="M104.203 68.7972C105.847 69.2961 106.869 67.4032 106.869 67.4032L105.871 66.833C105.38 67.9933 103.74 67.8586 103.74 67.8586L104.203 68.7972Z" fill="#E0E0E0"/>
<path d="M95.0914 70.8364C94.3272 70.9196 94.2361 71.8779 94.2361 71.8779L94.7469 71.9373C94.7469 71.375 95.4478 71.1453 95.4478 71.1453L95.0914 70.8364Z" fill="#27AB60"/>
<path d="M126.589 77.8536C126.7 77.0933 125.797 76.7646 125.797 76.7646L125.611 77.2438C126.158 77.3824 126.209 78.119 126.209 78.119L126.589 77.8536Z" fill="#E0E0E0"/>
<path d="M99.5504 60.8292C99.6613 60.0689 98.7584 59.7402 98.7584 59.7402L98.5723 60.2234C99.1187 60.362 99.1702 61.0946 99.1702 61.0946L99.5504 60.8292Z" fill="#27AB60"/>
<path d="M80.6692 73.0937C80.5345 74.2817 82.1106 74.5747 82.1106 74.5747L82.3957 73.7827C81.4493 73.6956 81.3146 72.5947 81.3146 72.5947L80.6692 73.0937Z" fill="#27AB60"/>
<path d="M115.818 68.7732C116.586 68.8168 116.832 67.8862 116.832 67.8862L116.337 67.7437C116.246 68.2981 115.517 68.4129 115.517 68.4129L115.818 68.7732Z" fill="#27AB60"/>
<path d="M120.012 71.9017C119.806 71.9595 119.591 71.9796 119.378 71.9611C119.165 71.98 118.95 71.9599 118.745 71.9017C119.163 71.8173 119.594 71.8173 120.012 71.9017Z" fill="#E0E0E0"/>
<path d="M120.685 70.1792C120.764 70.6032 120.764 71.0382 120.685 71.4622C120.6 71.0387 120.6 70.6027 120.685 70.1792Z" fill="#E0E0E0"/>
<path d="M121.398 71.8578C121.604 71.8 121.818 71.7799 122.031 71.7984C122.244 71.7795 122.459 71.7996 122.665 71.8578C122.247 71.9423 121.816 71.9423 121.398 71.8578Z" fill="#E0E0E0"/>
<path d="M120.729 73.5844C120.644 73.1595 120.644 72.7222 120.729 72.2974C120.808 72.7227 120.808 73.159 120.729 73.5844Z" fill="#E0E0E0"/>
<path d="M121.75 72.8638C121.726 72.8836 121.604 72.7807 121.477 72.6341C121.35 72.4876 121.275 72.3451 121.299 72.3253C121.322 72.3055 121.449 72.4045 121.572 72.555C121.695 72.7054 121.778 72.8203 121.75 72.8638Z" fill="#E0E0E0"/>
<path d="M121.691 70.8838C121.715 70.9115 121.631 71.0343 121.501 71.165C121.37 71.2956 121.247 71.3827 121.224 71.359C121.2 71.3352 121.283 71.2085 121.414 71.0778C121.544 70.9472 121.667 70.8838 121.691 70.8838Z" fill="#E0E0E0"/>
<path d="M120.241 71.3867C120.218 71.4144 120.099 71.3511 119.976 71.2481C119.853 71.1451 119.774 71.0422 119.794 71.0184C119.814 70.9946 119.933 71.054 120.055 71.153C120.178 71.252 120.261 71.3629 120.241 71.3867Z" fill="#E0E0E0"/>
<path d="M120.182 72.25C120.21 72.2698 120.135 72.3926 120.016 72.5232C119.897 72.6539 119.782 72.7371 119.758 72.7133C119.735 72.6896 119.806 72.5668 119.925 72.4401C120.043 72.3134 120.158 72.2262 120.182 72.25Z" fill="#E0E0E0"/>
<path d="M85.5122 68.369C85.094 68.4535 84.6632 68.4535 84.245 68.369C84.4509 68.3113 84.6655 68.2912 84.8786 68.3096C85.0916 68.2907 85.3064 68.3108 85.5122 68.369Z" fill="#27AB60"/>
<path d="M86.1854 66.6465C86.2699 67.0713 86.2699 67.5086 86.1854 67.9335C86.1009 67.5086 86.1009 67.0713 86.1854 66.6465Z" fill="#27AB60"/>
<path d="M86.9022 68.3295C87.3204 68.245 87.7512 68.245 88.1694 68.3295C87.7512 68.414 87.3204 68.414 86.9022 68.3295Z" fill="#27AB60"/>
<path d="M86.229 70.0521C86.1445 69.6286 86.1445 69.1925 86.229 68.769C86.3135 69.1925 86.3135 69.6286 86.229 70.0521Z" fill="#27AB60"/>
<path d="M87.2546 69.2997C87.2269 69.3234 87.1042 69.2205 86.9814 69.07C86.8586 68.9195 86.7755 68.7849 86.8032 68.7611C86.8309 68.7374 86.9497 68.8443 87.0764 68.9908C87.2032 69.1373 87.2784 69.2997 87.2546 69.2997Z" fill="#27AB60"/>
<path d="M87.1952 67.3597C87.219 67.3834 87.1318 67.5101 87.0051 67.6408C86.8784 67.7715 86.7517 67.8547 86.7279 67.8309C86.7042 67.8071 86.7873 67.6844 86.918 67.5537C87.0487 67.423 87.1714 67.3201 87.1952 67.3597Z" fill="#27AB60"/>
<path d="M85.7419 67.8583C85.7221 67.882 85.6033 67.8226 85.4805 67.7197C85.3578 67.6167 85.2746 67.5137 85.2984 67.486C85.3221 67.4583 85.437 67.5217 85.5597 67.6246C85.6825 67.7276 85.7657 67.8305 85.7419 67.8583Z" fill="#27AB60"/>
<path d="M85.6864 68.7176C85.7102 68.7414 85.6349 68.8642 85.5201 68.9948C85.4053 69.1255 85.2865 69.2087 85.2587 69.1849C85.231 69.1612 85.3102 69.0384 85.425 68.9117C85.5399 68.785 85.6587 68.6939 85.6864 68.7176Z" fill="#27AB60"/>
<path d="M129.341 51.8954C128.412 51.9972 127.476 52.0316 126.542 51.9984C125.609 52.0317 124.674 51.9973 123.746 51.8954C124.674 51.7912 125.609 51.7567 126.542 51.7925C127.476 51.7568 128.412 51.7912 129.341 51.8954Z" fill="#263238"/>
<path d="M129.341 53.064C128.412 53.1682 127.476 53.2026 126.542 53.167C125.609 53.2027 124.674 53.1683 123.746 53.064C124.674 52.9621 125.609 52.9277 126.542 52.961C127.476 52.9279 128.412 52.9623 129.341 53.064Z" fill="#263238"/>
<path d="M129.341 54.2242C128.412 54.3283 127.476 54.3628 126.542 54.3271C125.609 54.3628 124.674 54.3284 123.746 54.2242C124.674 54.1223 125.609 54.0879 126.542 54.1212C127.476 54.088 128.412 54.1224 129.341 54.2242Z" fill="#263238"/>
<path d="M96.615 149.959L109.655 150.062L109.784 133.6L96.7443 133.498L96.615 149.959Z" fill="#EBEBEB"/>
<path d="M104.679 134.09L104.445 150.025L102.386 150.009L102.829 134.074L104.679 134.09Z" fill="#FAFAFA"/>
<path d="M89.2504 133.967L96.7309 134.026L109.771 134.129L96.719 135.844L96.6081 149.965L89.1277 149.906L89.2504 133.967Z" fill="#E0E0E0"/>
<path d="M93.3253 133.998L93.0283 149.937L90.8068 149.917L91.1711 133.982L93.3253 133.998Z" fill="#FAFAFA"/>
<path d="M94.3594 128.024C94.3453 128.033 94.3458 128.029 94.3594 128.024V128.024Z" fill="#E0E0E0"/>
<path d="M98.9762 129.266C98.9406 129.06 99.9147 128.755 101.435 128.308C102.31 128.058 103.167 127.751 104.001 127.389C104.2 127.309 104.387 127.206 104.56 127.08C104.619 127.029 104.647 126.985 104.639 126.989C104.631 126.993 104.639 127.048 104.619 127.021C104.595 126.942 104.564 126.865 104.528 126.791L104.338 126.395C104.221 126.15 104.089 125.914 103.942 125.686C103.811 125.483 103.655 125.297 103.479 125.132C103.396 125.056 103.309 124.986 103.217 124.922C103.143 124.871 103.064 124.828 102.98 124.795C102.856 124.738 102.716 124.725 102.584 124.759C102.414 124.814 102.257 124.905 102.124 125.025C101.448 125.589 100.849 126.24 100.342 126.961C99.4673 128.205 99.2376 129.175 99.0198 129.143C98.9247 129.143 98.8535 128.866 98.8891 128.387C98.9538 127.711 99.1445 127.052 99.4514 126.446C99.8978 125.536 100.503 124.713 101.237 124.015C101.501 123.757 101.817 123.558 102.164 123.433C102.582 123.289 103.037 123.289 103.455 123.433C103.645 123.502 103.827 123.592 103.997 123.702C104.153 123.801 104.3 123.912 104.437 124.035C104.71 124.279 104.95 124.559 105.15 124.866C105.334 125.148 105.497 125.443 105.637 125.749L105.827 126.169C105.918 126.359 105.984 126.56 106.021 126.767C106.07 127.063 106.018 127.367 105.875 127.63C105.756 127.843 105.591 128.026 105.391 128.165C105.116 128.353 104.816 128.502 104.5 128.609C103.577 128.941 102.619 129.17 101.645 129.294C100.014 129.515 99 129.456 98.9762 129.266Z" fill="#EBEBEB"/>
<path d="M86.8857 133.941L106.052 134.092L106.094 128.643L86.9285 128.492L86.8857 133.941Z" fill="#E0E0E0"/>
<path d="M93.931 133.996L111.255 134.132L111.298 128.683L93.9738 128.547L93.931 133.996Z" fill="#EBEBEB"/>
<path d="M105.977 128.648L105.855 134.121L103.835 134.081L103.978 128.632L105.977 128.648Z" fill="#FAFAFA"/>
<path d="M91.6224 128.565L91.4244 133.99L89.2029 133.97L89.3217 128.518L91.6224 128.565Z" fill="#FAFAFA"/>
<path d="M110.743 149.659L118.132 149.717L118.205 140.392L110.816 140.334L110.743 149.659Z" fill="#EBEBEB"/>
<path d="M115.307 140.667L115.177 149.7L114.008 149.692L114.258 140.659L115.307 140.667Z" fill="#FAFAFA"/>
<path d="M106.564 140.6L110.805 140.631L118.194 140.691L110.797 141.665L110.733 149.664L106.496 149.632L106.564 140.6Z" fill="#E0E0E0"/>
<path d="M108.872 140.619L108.706 149.648L107.447 149.64L107.653 140.607L108.872 140.619Z" fill="#FAFAFA"/>
<path d="M112.226 137.867C112.226 138.006 111.743 138.172 110.896 138.263C110.376 138.305 109.853 138.262 109.347 138.136C109.108 138.079 108.896 137.939 108.749 137.74C108.663 137.604 108.616 137.447 108.611 137.285C108.61 137.171 108.622 137.056 108.647 136.945C108.714 136.618 108.811 136.299 108.936 135.99C109.012 135.816 109.107 135.65 109.217 135.495C109.345 135.313 109.506 135.157 109.692 135.036C109.808 134.962 109.938 134.912 110.074 134.889C110.21 134.866 110.35 134.87 110.484 134.901C110.685 134.96 110.87 135.062 111.026 135.202C111.427 135.545 111.758 135.962 112.001 136.43C112.397 137.222 112.341 137.812 112.211 137.832C112.08 137.851 111.866 137.4 111.387 136.826C111.11 136.494 110.792 136.2 110.44 135.951C110.388 135.908 110.327 135.877 110.262 135.859L110.234 135.879C110.169 135.934 110.111 135.998 110.064 136.069C109.998 136.165 109.942 136.267 109.898 136.374C109.796 136.632 109.713 136.897 109.648 137.166L109.625 137.257H109.561H109.502C109.47 137.257 109.474 137.257 109.502 137.257C109.529 137.24 109.553 137.219 109.573 137.194L109.597 137.17C109.624 137.19 109.653 137.206 109.684 137.218C110.097 137.357 110.523 137.456 110.955 137.515C111.708 137.63 112.226 137.721 112.226 137.867Z" fill="#E0E0E0"/>
<path d="M112.068 137.939C112.04 137.78 112.591 137.57 113.438 137.289C113.923 137.135 114.399 136.953 114.864 136.747C114.964 136.704 115.058 136.65 115.145 136.584C115.169 136.549 115.169 136.565 115.145 136.584C115.127 136.619 115.117 136.657 115.117 136.695L114.971 136.386C114.906 136.25 114.833 136.118 114.753 135.99C114.687 135.885 114.607 135.789 114.515 135.705C114.448 135.636 114.369 135.58 114.282 135.539C114.242 135.525 114.199 135.525 114.159 135.539C114.079 135.56 114.005 135.601 113.945 135.658C113.567 135.964 113.228 136.315 112.935 136.703C112.424 137.372 112.258 137.911 112.096 137.891C111.933 137.871 111.834 137.234 112.246 136.307C112.493 135.772 112.836 135.287 113.26 134.878C113.422 134.717 113.616 134.593 113.83 134.513C114.097 134.42 114.387 134.42 114.654 134.513C114.774 134.553 114.888 134.607 114.994 134.676C115.089 134.738 115.179 134.806 115.264 134.882C115.427 135.027 115.571 135.194 115.691 135.377C115.797 135.544 115.892 135.717 115.977 135.895L116.083 136.137C116.143 136.263 116.184 136.396 116.206 136.533C116.238 136.733 116.202 136.938 116.103 137.115C116.025 137.252 115.918 137.371 115.79 137.464C115.624 137.577 115.443 137.666 115.252 137.729C114.718 137.915 114.163 138.037 113.601 138.093C112.674 138.157 112.1 138.085 112.068 137.939Z" fill="#E0E0E0"/>
<path d="M105.224 140.587L116.086 140.672L116.11 137.584L105.248 137.498L105.224 140.587Z" fill="#E0E0E0"/>
<path d="M109.224 140.615L119.04 140.692L119.065 137.604L109.248 137.527L109.224 140.615Z" fill="#EBEBEB"/>
<path d="M116.044 137.586L115.977 140.687L114.828 140.663L114.911 137.578L116.044 137.586Z" fill="#FAFAFA"/>
<path d="M107.91 137.538L107.799 140.611L106.54 140.604L106.607 137.511L107.91 137.538Z" fill="#FAFAFA"/>
<path d="M167.29 157.533C167.887 157.817 168.42 158.219 168.857 158.715C169.295 159.21 169.628 159.789 169.836 160.416C170.247 161.675 170.362 163.013 170.173 164.324C169.888 166.858 168.447 169.417 166.898 171.452C164.764 169.591 164.273 166.34 164.126 164.677C163.896 162.047 165.077 157.153 167.294 157.549" fill="#27AB60"/>
<path d="M169.377 175.626C169.231 174.901 169.28 174.151 169.518 173.452C169.756 172.752 170.174 172.128 170.731 171.642C171.295 171.166 171.949 170.807 172.653 170.587C173.358 170.366 174.099 170.289 174.834 170.359C175.515 170.41 176.248 170.608 176.636 171.151C176.802 171.424 176.893 171.736 176.898 172.056C176.902 172.376 176.822 172.691 176.663 172.969C176.341 173.52 175.878 173.977 175.321 174.291C173.472 175.452 171.468 176.236 169.381 175.61" fill="#27AB60"/>
<path d="M166.641 183.396C166.651 183.221 166.676 183.047 166.716 182.877C166.783 182.509 166.87 182.037 166.973 181.467C167.213 179.901 167.704 178.383 168.427 176.973C169.179 175.563 170.293 174.38 171.654 173.543C172.068 173.298 172.509 173.103 172.969 172.961C173.131 172.906 173.262 172.886 173.365 172.862C173.468 172.838 173.499 172.838 173.499 172.862C172.445 173.204 171.468 173.753 170.628 174.476C169.788 175.199 169.1 176.083 168.605 177.076C167.892 178.472 167.392 179.967 167.12 181.511C166.989 182.101 166.882 182.58 166.803 182.905C166.763 183.073 166.709 183.237 166.641 183.396Z" fill="#263238"/>
<path d="M166.716 161.338C166.734 161.414 166.744 161.491 166.744 161.568C166.744 161.734 166.767 161.964 166.783 162.221C166.811 162.788 166.847 163.607 166.878 164.625C166.942 166.657 166.993 169.464 166.981 172.545C166.969 175.626 166.894 178.453 166.807 180.485C166.767 181.503 166.728 182.322 166.692 182.889C166.672 183.158 166.66 183.372 166.649 183.542C166.637 183.712 166.649 183.542 166.649 183.542C166.676 183.316 166.609 183.689 166.609 183.542C166.609 183.396 166.609 183.146 166.609 182.885C166.609 182.295 166.641 181.479 166.664 180.481C166.716 178.45 166.771 175.646 166.787 172.561C166.803 169.476 166.767 166.657 166.736 164.641C166.736 163.643 166.708 162.823 166.696 162.233C166.696 161.964 166.696 161.75 166.696 161.58C166.697 161.499 166.704 161.418 166.716 161.338Z" fill="#263238"/>
<path d="M165.686 177.166C165.428 175.631 164.807 174.179 163.876 172.93C162.945 171.682 161.731 170.673 160.332 169.987C159.62 169.646 158.689 169.421 158.103 169.951C157.517 170.482 157.644 171.436 157.933 172.177C158.56 173.707 159.626 175.017 160.997 175.942C162.368 176.867 163.981 177.366 165.635 177.376" fill="#27AB60"/>
<path d="M160.677 172.391C160.835 172.441 160.988 172.507 161.132 172.589C161.308 172.669 161.479 172.76 161.643 172.862C161.867 172.982 162.084 173.114 162.293 173.258C162.553 173.431 162.803 173.619 163.041 173.82C163.319 174.045 163.583 174.286 163.833 174.541C164.408 175.127 164.914 175.777 165.342 176.477C165.757 177.185 166.089 177.939 166.332 178.723C166.437 179.064 166.522 179.412 166.585 179.764C166.646 180.069 166.688 180.377 166.712 180.687C166.752 180.972 166.736 181.229 166.748 181.455C166.761 181.649 166.761 181.843 166.748 182.037C166.745 182.202 166.726 182.367 166.692 182.528C166.649 182.528 166.72 181.823 166.597 180.703C166.564 180.397 166.515 180.093 166.451 179.792C166.391 179.467 166.288 179.127 166.185 178.77C165.938 178.003 165.606 177.266 165.195 176.572C164.776 175.884 164.284 175.242 163.726 174.66C163.483 174.405 163.227 174.163 162.958 173.935C162.712 173.713 162.459 173.539 162.233 173.365C161.303 172.719 160.657 172.426 160.677 172.391Z" fill="#263238"/>
</svg>
