<svg width="24" height="24" viewBox="0 0 24 24" fill="none" xmlns="http://www.w3.org/2000/svg">
<rect width="24" height="24" rx="5" fill="#27AB60"/>
<g clip-path="url(#clip0_65_13789)">
<path d="M12 5C10.6082 5.00185 9.27389 5.55556 8.28973 6.53973C7.30556 7.52389 6.75185 8.85818 6.75 10.25C6.75 14.0191 11.6412 18.7397 11.8491 18.9388C11.8895 18.978 11.9436 19 12 19C12.0564 19 12.1105 18.978 12.1509 18.9388C12.3587 18.7397 17.25 14.0191 17.25 10.25C17.2482 8.85818 16.6944 7.52389 15.7103 6.53973C14.7261 5.55556 13.3918 5.00185 12 5V5ZM12 12.6562C11.5241 12.6562 11.0589 12.5151 10.6632 12.2507C10.2675 11.9863 9.95904 11.6105 9.77692 11.1708C9.59479 10.7311 9.54714 10.2473 9.63999 9.78056C9.73283 9.3138 9.962 8.88504 10.2985 8.54852C10.635 8.212 11.0638 7.98283 11.5306 7.88999C11.9973 7.79714 12.4811 7.84479 12.9208 8.02691C13.3605 8.20904 13.7363 8.51745 14.0007 8.91316C14.2651 9.30887 14.4062 9.77409 14.4062 10.25C14.4059 10.8881 14.1522 11.4999 13.7011 11.9511C13.2499 12.4022 12.6381 12.6559 12 12.6562Z" fill="white"/>
</g>
<defs>
<clipPath id="clip0_65_13789">
<rect width="14" height="14" fill="white" transform="translate(5 5)"/>
</clipPath>
</defs>
</svg>
