<svg width="20" height="20" viewBox="0 0 20 20" fill="none" xmlns="http://www.w3.org/2000/svg">
<g clip-path="url(#clip0_1_5145)">
<path d="M0 7.49992V14.9999C0.00132321 16.1046 0.440735 17.1636 1.22185 17.9447C2.00296 18.7258 3.062 19.1653 4.16667 19.1666H15.8333C16.938 19.1653 17.997 18.7258 18.7782 17.9447C19.5593 17.1636 19.9987 16.1046 20 14.9999V7.49992H0ZM11.6667 15.8333H5C4.77899 15.8333 4.56702 15.7455 4.41074 15.5892C4.25446 15.4329 4.16667 15.2209 4.16667 14.9999C4.16667 14.7789 4.25446 14.5669 4.41074 14.4107C4.56702 14.2544 4.77899 14.1666 5 14.1666H11.6667C11.8877 14.1666 12.0996 14.2544 12.2559 14.4107C12.4122 14.5669 12.5 14.7789 12.5 14.9999C12.5 15.2209 12.4122 15.4329 12.2559 15.5892C12.0996 15.7455 11.8877 15.8333 11.6667 15.8333ZM15 12.4999H5C4.77899 12.4999 4.56702 12.4121 4.41074 12.2558C4.25446 12.0996 4.16667 11.8876 4.16667 11.6666C4.16667 11.4456 4.25446 11.2336 4.41074 11.0773C4.56702 10.921 4.77899 10.8333 5 10.8333H15C15.221 10.8333 15.433 10.921 15.5893 11.0773C15.7455 11.2336 15.8333 11.4456 15.8333 11.6666C15.8333 11.8876 15.7455 12.0996 15.5893 12.2558C15.433 12.4121 15.221 12.4999 15 12.4999ZM20 5.83325V4.99992C19.9987 3.89526 19.5593 2.83622 18.7782 2.0551C17.997 1.27399 16.938 0.834575 15.8333 0.833252H4.16667C3.062 0.834575 2.00296 1.27399 1.22185 2.0551C0.440735 2.83622 0.00132321 3.89526 0 4.99992L0 5.83325H20ZM8.33333 2.49992C8.49815 2.49992 8.65927 2.54879 8.79631 2.64036C8.93335 2.73193 9.04016 2.86208 9.10323 3.01435C9.16631 3.16662 9.18281 3.33418 9.15065 3.49583C9.1185 3.65748 9.03913 3.80596 8.92259 3.92251C8.80604 4.03905 8.65756 4.11842 8.49591 4.15057C8.33426 4.18273 8.1667 4.16622 8.01443 4.10315C7.86216 4.04008 7.73201 3.93327 7.64044 3.79623C7.54887 3.65919 7.5 3.49807 7.5 3.33325C7.5 3.11224 7.5878 2.90028 7.74408 2.744C7.90036 2.58772 8.11232 2.49992 8.33333 2.49992ZM5.83333 2.49992C5.99815 2.49992 6.15927 2.54879 6.29631 2.64036C6.43335 2.73193 6.54016 2.86208 6.60323 3.01435C6.66631 3.16662 6.68281 3.33418 6.65065 3.49583C6.6185 3.65748 6.53913 3.80596 6.42259 3.92251C6.30605 4.03905 6.15756 4.11842 5.99591 4.15057C5.83426 4.18273 5.6667 4.16622 5.51443 4.10315C5.36216 4.04008 5.23201 3.93327 5.14044 3.79623C5.04887 3.65919 5 3.49807 5 3.33325C5 3.11224 5.0878 2.90028 5.24408 2.744C5.40036 2.58772 5.61232 2.49992 5.83333 2.49992ZM3.33333 2.49992C3.49815 2.49992 3.65927 2.54879 3.79631 2.64036C3.93335 2.73193 4.04016 2.86208 4.10323 3.01435C4.16631 3.16662 4.18281 3.33418 4.15065 3.49583C4.1185 3.65748 4.03913 3.80596 3.92259 3.92251C3.80605 4.03905 3.65756 4.11842 3.49591 4.15057C3.33426 4.18273 3.1667 4.16622 3.01443 4.10315C2.86216 4.04008 2.73201 3.93327 2.64044 3.79623C2.54887 3.65919 2.5 3.49807 2.5 3.33325C2.5 3.11224 2.5878 2.90028 2.74408 2.744C2.90036 2.58772 3.11232 2.49992 3.33333 2.49992Z" fill="#27AB60"/>
</g>
<defs>
<clipPath id="clip0_1_5145">
<rect width="20" height="20" fill="white"/>
</clipPath>
</defs>
</svg>
