<svg width="20" height="20" viewBox="0 0 20 20" fill="none" xmlns="http://www.w3.org/2000/svg">
<g clip-path="url(#clip0_1_4183)">
<path d="M0 7.49967V14.9997C0.00132321 16.1043 0.440735 17.1634 1.22185 17.9445C2.00296 18.7256 3.062 19.165 4.16667 19.1663H15.8333C16.938 19.165 17.997 18.7256 18.7782 17.9445C19.5593 17.1634 19.9987 16.1043 20 14.9997V7.49967H0ZM11.6667 15.833H5C4.77899 15.833 4.56702 15.7452 4.41074 15.5889C4.25446 15.4326 4.16667 15.2207 4.16667 14.9997C4.16667 14.7787 4.25446 14.5667 4.41074 14.4104C4.56702 14.2541 4.77899 14.1663 5 14.1663H11.6667C11.8877 14.1663 12.0996 14.2541 12.2559 14.4104C12.4122 14.5667 12.5 14.7787 12.5 14.9997C12.5 15.2207 12.4122 15.4326 12.2559 15.5889C12.0996 15.7452 11.8877 15.833 11.6667 15.833ZM15 12.4997H5C4.77899 12.4997 4.56702 12.4119 4.41074 12.2556C4.25446 12.0993 4.16667 11.8874 4.16667 11.6663C4.16667 11.4453 4.25446 11.2334 4.41074 11.0771C4.56702 10.9208 4.77899 10.833 5 10.833H15C15.221 10.833 15.433 10.9208 15.5893 11.0771C15.7455 11.2334 15.8333 11.4453 15.8333 11.6663C15.8333 11.8874 15.7455 12.0993 15.5893 12.2556C15.433 12.4119 15.221 12.4997 15 12.4997ZM20 5.83301V4.99967C19.9987 3.89501 19.5593 2.83597 18.7782 2.05486C17.997 1.27374 16.938 0.834331 15.8333 0.833008H4.16667C3.062 0.834331 2.00296 1.27374 1.22185 2.05486C0.440735 2.83597 0.00132321 3.89501 0 4.99967L0 5.83301H20ZM8.33333 2.49967C8.49815 2.49967 8.65927 2.54855 8.79631 2.64012C8.93335 2.73168 9.04016 2.86183 9.10323 3.0141C9.16631 3.16638 9.18281 3.33393 9.15065 3.49558C9.1185 3.65723 9.03913 3.80572 8.92259 3.92226C8.80604 4.03881 8.65756 4.11817 8.49591 4.15033C8.33426 4.18248 8.1667 4.16598 8.01443 4.10291C7.86216 4.03983 7.73201 3.93302 7.64044 3.79598C7.54887 3.65894 7.5 3.49783 7.5 3.33301C7.5 3.11199 7.5878 2.90003 7.74408 2.74375C7.90036 2.58747 8.11232 2.49967 8.33333 2.49967ZM5.83333 2.49967C5.99815 2.49967 6.15927 2.54855 6.29631 2.64012C6.43335 2.73168 6.54016 2.86183 6.60323 3.0141C6.66631 3.16638 6.68281 3.33393 6.65065 3.49558C6.6185 3.65723 6.53913 3.80572 6.42259 3.92226C6.30605 4.03881 6.15756 4.11817 5.99591 4.15033C5.83426 4.18248 5.6667 4.16598 5.51443 4.10291C5.36216 4.03983 5.23201 3.93302 5.14044 3.79598C5.04887 3.65894 5 3.49783 5 3.33301C5 3.11199 5.0878 2.90003 5.24408 2.74375C5.40036 2.58747 5.61232 2.49967 5.83333 2.49967ZM3.33333 2.49967C3.49815 2.49967 3.65927 2.54855 3.79631 2.64012C3.93335 2.73168 4.04016 2.86183 4.10323 3.0141C4.16631 3.16638 4.18281 3.33393 4.15065 3.49558C4.1185 3.65723 4.03913 3.80572 3.92259 3.92226C3.80605 4.03881 3.65756 4.11817 3.49591 4.15033C3.33426 4.18248 3.1667 4.16598 3.01443 4.10291C2.86216 4.03983 2.73201 3.93302 2.64044 3.79598C2.54887 3.65894 2.5 3.49783 2.5 3.33301C2.5 3.11199 2.5878 2.90003 2.74408 2.74375C2.90036 2.58747 3.11232 2.49967 3.33333 2.49967Z" fill="#777777"/>
</g>
<defs>
<clipPath id="clip0_1_4183">
<rect width="20" height="20" fill="white"/>
</clipPath>
</defs>
</svg>
