<svg width="24" height="24" viewBox="0 0 24 24" fill="none" xmlns="http://www.w3.org/2000/svg">
<rect width="24" height="24" rx="5" fill="#27AB60"/>
<g clip-path="url(#clip0_65_13811)">
<path d="M18.6199 15.2746L16.6661 13.3208C15.9684 12.6231 14.7822 12.9022 14.5031 13.8093C14.2937 14.4373 13.596 14.7862 12.968 14.6466C11.5725 14.2977 9.68849 12.4835 9.33961 11.0182C9.13028 10.3902 9.54894 9.69244 10.1769 9.48314C11.084 9.20403 11.3631 8.01783 10.6654 7.32007L8.71162 5.36633C8.15341 4.87789 7.31609 4.87789 6.82766 5.36633L5.5019 6.69208C4.17615 8.08761 5.64146 11.7858 8.92095 15.0653C12.2004 18.3448 15.8986 19.8799 17.2941 18.4843L18.6199 17.1586C19.1083 16.6003 19.1083 15.763 18.6199 15.2746Z" fill="white"/>
</g>
<defs>
<clipPath id="clip0_65_13811">
<rect width="14" height="14" fill="white" transform="translate(5 5)"/>
</clipPath>
</defs>
</svg>
