<svg width="16" height="16" viewBox="0 0 16 16" fill="none" xmlns="http://www.w3.org/2000/svg">
<g clip-path="url(#clip0_149_2067)">
<path d="M8.02001 1.2057C9.85438 1.8132 11.7372 2.52852 13.3472 3.15289C13.4591 3.8857 13.6125 5.14258 13.6419 6.66195C13.6678 8.39258 13.5247 9.34727 13.4613 9.68008C13.3284 10.1385 13.0497 10.6366 12.6328 11.1604C12.1384 11.781 11.4653 12.4263 10.6322 13.0779C10.6316 13.0782 10.6309 13.0788 10.6306 13.0791C9.44657 14.0085 8.35032 14.6076 8.02001 14.7801C7.6897 14.6079 6.59469 14.0101 5.41126 13.0813L5.40969 13.0801C4.57688 12.4288 3.90407 11.7838 3.41063 11.1635C3.01469 10.6657 2.74344 10.1907 2.60344 9.75164C2.59969 9.73695 2.59563 9.72227 2.59094 9.70727C2.52844 9.4957 2.32751 8.64352 2.35782 6.54602C2.39094 5.20977 2.51344 4.01602 2.70469 3.14477C4.30969 2.5232 6.18688 1.81102 8.02001 1.20539M8.02001 0.00195312C7.92595 0.00195312 7.83157 0.0169531 7.74001 0.0472656C5.94282 0.637891 4.09938 1.3307 2.22469 2.05695C1.97251 2.15477 1.76094 2.3357 1.62344 2.5557C1.63407 2.55695 1.23813 3.79289 1.17063 6.52258C1.13063 9.25258 1.47063 10.0704 1.45938 10.0713C1.64344 10.6713 1.98782 11.2816 2.48126 11.9023C3.03282 12.5954 3.77813 13.3113 4.67844 14.0151C6.16876 15.1848 7.56344 15.8838 7.62188 15.9085C7.74813 15.9704 7.88219 16.0016 8.02032 16.0016H8.02063C8.15907 16.0016 8.29313 15.9701 8.41938 15.9079C8.47813 15.8832 9.87438 15.182 11.3641 14.0126C12.2647 13.3082 13.01 12.5923 13.5619 11.8995C14.0906 11.2348 14.4481 10.5826 14.6209 9.94195C14.6141 9.94102 14.8641 8.93852 14.8294 6.64133C14.7853 4.34445 14.4653 2.65039 14.4697 2.64883C14.3366 2.38914 14.1031 2.17195 13.8175 2.06102C11.9425 1.33445 10.0988 0.640391 8.30126 0.0478906C8.20907 0.0175781 8.11469 0.00226563 8.02032 0.00226563L8.02001 0.00195312Z" fill="black"/>
<path d="M8.01907 11.0336C7.67657 11.0336 7.3547 10.9005 7.11282 10.6583C6.87063 10.4161 6.7372 10.0942 6.7372 9.75203V8.75109C6.21345 8.35891 5.90032 7.74453 5.90001 7.07297C5.90001 5.91516 6.84188 4.97297 7.9997 4.97266C8.56063 4.97266 9.08813 5.19109 9.4847 5.58766C9.88126 5.98422 10.1 6.51172 10.1 7.07266C10.1 7.72359 9.80095 8.32766 9.30063 8.72172V9.75203C9.30063 10.0945 9.16751 10.4164 8.92532 10.6583C8.68313 10.9005 8.36126 11.0336 8.01907 11.0339V11.0336ZM8.00001 6.15984C7.49688 6.15984 7.08751 6.56922 7.08751 7.07234C7.08751 7.42109 7.28188 7.73453 7.59501 7.89016C7.79688 7.99047 7.92438 8.19641 7.92438 8.42172V9.75172C7.92438 9.80359 7.96688 9.84609 8.01876 9.84609C8.05095 9.84609 8.07282 9.83109 8.08532 9.81859C8.09782 9.80609 8.11282 9.78422 8.11282 9.75203V8.40297C8.11282 8.18359 8.23376 7.98203 8.42751 7.87891C8.72657 7.71953 8.91251 7.41078 8.9122 7.07266C8.9122 6.82891 8.8172 6.59984 8.64501 6.42734C8.47251 6.25516 8.24345 6.16016 7.9997 6.16016L8.00001 6.15984Z" fill="black"/>
</g>
<defs>
<clipPath id="clip0_149_2067">
<rect width="16" height="16" fill="white"/>
</clipPath>
</defs>
</svg>
