<svg width="128" height="32" viewBox="0 0 128 32" fill="none" xmlns="http://www.w3.org/2000/svg">
<rect x="0.5" y="0.5" width="127" height="31" rx="15.5" fill="white" stroke="#3B5998"/>
<g clip-path="url(#clip0_9_2135)">
<path d="M16 32C24.8366 32 32 24.8366 32 16C32 7.16344 24.8366 0 16 0C7.16344 0 0 7.16344 0 16C0 24.8366 7.16344 32 16 32Z" fill="#3B5998"/>
<path d="M20.0225 16.6262H17.1675V27.0856H12.8419V16.6262H10.7847V12.9504H12.8419V10.5717C12.8419 8.87066 13.6499 6.20703 17.206 6.20703L20.4101 6.22044V9.78848H18.0853C17.704 9.78848 17.1678 9.979 17.1678 10.7904V12.9538H20.4004L20.0225 16.6262Z" fill="white"/>
</g>
<path d="M45.4853 21V11.2H46.9973V21H45.4853ZM46.1573 16.828V15.372H51.2113V16.828H46.1573ZM46.1573 12.656V11.2H51.8413V12.656H46.1573ZM56.1661 21.14C55.5594 21.14 55.0041 20.972 54.5001 20.636C54.0054 20.3 53.6087 19.8427 53.3101 19.264C53.0114 18.6853 52.8621 18.032 52.8621 17.304C52.8621 16.5667 53.0114 15.9133 53.3101 15.344C53.6181 14.7653 54.0287 14.3127 54.5421 13.986C55.0647 13.6593 55.6481 13.496 56.2921 13.496C56.6747 13.496 57.0247 13.552 57.3421 13.664C57.6594 13.776 57.9347 13.9347 58.1681 14.14C58.4107 14.336 58.6067 14.5647 58.7561 14.826C58.9147 15.0873 59.0127 15.3673 59.0501 15.666L58.7281 15.554V13.65H60.1841V21H58.7281V19.25L59.0641 19.152C59.0081 19.404 58.8914 19.6513 58.7141 19.894C58.5461 20.1273 58.3267 20.3373 58.0561 20.524C57.7947 20.7107 57.5007 20.86 57.1741 20.972C56.8567 21.084 56.5207 21.14 56.1661 21.14ZM56.5441 19.81C56.9827 19.81 57.3701 19.7027 57.7061 19.488C58.0421 19.2733 58.3034 18.9793 58.4901 18.606C58.6861 18.2233 58.7841 17.7893 58.7841 17.304C58.7841 16.828 58.6861 16.4033 58.4901 16.03C58.3034 15.6567 58.0421 15.3627 57.7061 15.148C57.3701 14.9333 56.9827 14.826 56.5441 14.826C56.1147 14.826 55.7321 14.9333 55.3961 15.148C55.0694 15.3627 54.8081 15.6567 54.6121 16.03C54.4254 16.4033 54.3321 16.828 54.3321 17.304C54.3321 17.7893 54.4254 18.2233 54.6121 18.606C54.8081 18.9793 55.0694 19.2733 55.3961 19.488C55.7321 19.7027 56.1147 19.81 56.5441 19.81ZM65.3195 21.14C64.6381 21.14 64.0268 20.972 63.4855 20.636C62.9535 20.3 62.5288 19.8427 62.2115 19.264C61.9035 18.6853 61.7495 18.0367 61.7495 17.318C61.7495 16.5993 61.9035 15.9507 62.2115 15.372C62.5288 14.7933 62.9535 14.336 63.4855 14C64.0268 13.664 64.6381 13.496 65.3195 13.496C65.9728 13.496 66.5655 13.6313 67.0975 13.902C67.6388 14.1633 68.0495 14.5227 68.3295 14.98L67.5315 15.96C67.3821 15.7453 67.1908 15.5493 66.9575 15.372C66.7241 15.1947 66.4768 15.0547 66.2155 14.952C65.9541 14.8493 65.7021 14.798 65.4595 14.798C65.0115 14.798 64.6101 14.91 64.2555 15.134C63.9101 15.3487 63.6348 15.6473 63.4295 16.03C63.2241 16.4127 63.1215 16.842 63.1215 17.318C63.1215 17.794 63.2288 18.2233 63.4435 18.606C63.6581 18.9793 63.9428 19.278 64.2975 19.502C64.6521 19.726 65.0441 19.838 65.4735 19.838C65.7255 19.838 65.9681 19.796 66.2015 19.712C66.4441 19.628 66.6775 19.502 66.9015 19.334C67.1255 19.166 67.3355 18.9607 67.5315 18.718L68.3295 19.698C68.0308 20.118 67.6015 20.4633 67.0415 20.734C66.4908 21.0047 65.9168 21.14 65.3195 21.14ZM73.1196 21.14C72.3636 21.14 71.6916 20.9813 71.1036 20.664C70.525 20.3373 70.0676 19.894 69.7316 19.334C69.405 18.774 69.2416 18.13 69.2416 17.402C69.2416 16.8233 69.335 16.296 69.5216 15.82C69.7083 15.344 69.965 14.9333 70.2916 14.588C70.6276 14.2333 71.0243 13.9627 71.4816 13.776C71.9483 13.58 72.4523 13.482 72.9936 13.482C73.4696 13.482 73.913 13.5753 74.3236 13.762C74.7343 13.9393 75.089 14.1867 75.3876 14.504C75.6956 14.8213 75.929 15.1993 76.0876 15.638C76.2556 16.0673 76.335 16.5387 76.3256 17.052L76.3116 17.668H70.3056L69.9836 16.52H75.0656L74.8556 16.758V16.422C74.8276 16.114 74.725 15.8387 74.5476 15.596C74.3703 15.3533 74.1463 15.162 73.8756 15.022C73.605 14.882 73.311 14.812 72.9936 14.812C72.4896 14.812 72.065 14.91 71.7196 15.106C71.3743 15.2927 71.113 15.5727 70.9356 15.946C70.7583 16.31 70.6696 16.7627 70.6696 17.304C70.6696 17.8173 70.777 18.2653 70.9916 18.648C71.2063 19.0213 71.5096 19.3107 71.9016 19.516C72.2936 19.7213 72.7463 19.824 73.2596 19.824C73.6236 19.824 73.9596 19.7633 74.2676 19.642C74.585 19.5207 74.9256 19.3013 75.2896 18.984L76.0176 20.006C75.7936 20.23 75.5183 20.426 75.1916 20.594C74.8743 20.762 74.5336 20.8973 74.1696 21C73.815 21.0933 73.465 21.14 73.1196 21.14ZM81.7568 21.14C81.4394 21.14 81.1221 21.0887 80.8048 20.986C80.4968 20.8833 80.2121 20.748 79.9508 20.58C79.6988 20.4027 79.4841 20.2113 79.3068 20.006C79.1388 19.7913 79.0268 19.5767 78.9708 19.362L79.3348 19.166V20.958H77.8928V10.64H79.3348V15.33L79.1108 15.204C79.1574 14.9893 79.2601 14.784 79.4188 14.588C79.5774 14.3827 79.7781 14.2007 80.0208 14.042C80.2728 13.874 80.5434 13.7433 80.8328 13.65C81.1221 13.5473 81.4161 13.496 81.7148 13.496C82.3774 13.496 82.9654 13.6593 83.4788 13.986C83.9921 14.3127 84.3981 14.7653 84.6968 15.344C84.9954 15.9133 85.1448 16.5667 85.1448 17.304C85.1448 18.0413 84.9954 18.6993 84.6968 19.278C84.4074 19.8567 84.0061 20.314 83.4928 20.65C82.9794 20.9767 82.4008 21.14 81.7568 21.14ZM81.5188 19.824C81.9481 19.824 82.3308 19.7167 82.6668 19.502C83.0028 19.278 83.2688 18.9793 83.4648 18.606C83.6608 18.2233 83.7588 17.7893 83.7588 17.304C83.7588 16.828 83.6608 16.4033 83.4648 16.03C83.2781 15.6473 83.0168 15.3487 82.6808 15.134C82.3448 14.9193 81.9574 14.812 81.5188 14.812C81.0801 14.812 80.6928 14.9193 80.3568 15.134C80.0208 15.3487 79.7548 15.6473 79.5588 16.03C79.3628 16.4033 79.2648 16.828 79.2648 17.304C79.2648 17.7893 79.3628 18.2233 79.5588 18.606C79.7548 18.9793 80.0208 19.278 80.3568 19.502C80.6928 19.7167 81.0801 19.824 81.5188 19.824ZM90.0151 21.14C89.2965 21.14 88.6525 20.9767 88.0831 20.65C87.5231 20.314 87.0798 19.8613 86.7531 19.292C86.4265 18.7133 86.2631 18.0553 86.2631 17.318C86.2631 16.5807 86.4265 15.9273 86.7531 15.358C87.0798 14.7793 87.5231 14.3267 88.0831 14C88.6525 13.664 89.2965 13.496 90.0151 13.496C90.7245 13.496 91.3591 13.664 91.9191 14C92.4885 14.3267 92.9365 14.7793 93.2631 15.358C93.5898 15.9273 93.7531 16.5807 93.7531 17.318C93.7531 18.0553 93.5898 18.7133 93.2631 19.292C92.9365 19.8613 92.4885 20.314 91.9191 20.65C91.3591 20.9767 90.7245 21.14 90.0151 21.14ZM90.0151 19.824C90.4538 19.824 90.8458 19.7167 91.1911 19.502C91.5365 19.278 91.8071 18.9793 92.0031 18.606C92.1991 18.2233 92.2925 17.794 92.2831 17.318C92.2925 16.8327 92.1991 16.4033 92.0031 16.03C91.8071 15.6473 91.5365 15.3487 91.1911 15.134C90.8458 14.9193 90.4538 14.812 90.0151 14.812C89.5765 14.812 89.1798 14.924 88.8251 15.148C88.4798 15.3627 88.2091 15.6613 88.0131 16.044C87.8171 16.4173 87.7238 16.842 87.7331 17.318C87.7238 17.794 87.8171 18.2233 88.0131 18.606C88.2091 18.9793 88.4798 19.278 88.8251 19.502C89.1798 19.7167 89.5765 19.824 90.0151 19.824ZM98.6284 21.14C97.9097 21.14 97.2657 20.9767 96.6964 20.65C96.1364 20.314 95.6931 19.8613 95.3664 19.292C95.0397 18.7133 94.8764 18.0553 94.8764 17.318C94.8764 16.5807 95.0397 15.9273 95.3664 15.358C95.6931 14.7793 96.1364 14.3267 96.6964 14C97.2657 13.664 97.9097 13.496 98.6284 13.496C99.3377 13.496 99.9724 13.664 100.532 14C101.102 14.3267 101.55 14.7793 101.876 15.358C102.203 15.9273 102.366 16.5807 102.366 17.318C102.366 18.0553 102.203 18.7133 101.876 19.292C101.55 19.8613 101.102 20.314 100.532 20.65C99.9724 20.9767 99.3377 21.14 98.6284 21.14ZM98.6284 19.824C99.0671 19.824 99.4591 19.7167 99.8044 19.502C100.15 19.278 100.42 18.9793 100.616 18.606C100.812 18.2233 100.906 17.794 100.896 17.318C100.906 16.8327 100.812 16.4033 100.616 16.03C100.42 15.6473 100.15 15.3487 99.8044 15.134C99.4591 14.9193 99.0671 14.812 98.6284 14.812C98.1897 14.812 97.7931 14.924 97.4384 15.148C97.0931 15.3627 96.8224 15.6613 96.6264 16.044C96.4304 16.4173 96.3371 16.842 96.3464 17.318C96.3371 17.794 96.4304 18.2233 96.6264 18.606C96.8224 18.9793 97.0931 19.278 97.4384 19.502C97.7931 19.7167 98.1897 19.824 98.6284 19.824ZM105.254 18.704L105.184 17.136L108.698 13.65H110.644L105.254 18.704ZM103.938 21V10.64H105.38V21H103.938ZM108.894 21L106.122 17.766L107.144 16.828L110.742 21H108.894Z" fill="#3B5998"/>
<defs>
<clipPath id="clip0_9_2135">
<rect width="32" height="32" fill="white"/>
</clipPath>
</defs>
</svg>
