<svg width="128" height="32" viewBox="0 0 128 32" fill="none" xmlns="http://www.w3.org/2000/svg">
<rect x="0.5" y="0.5" width="127" height="31" rx="15.5" fill="white" stroke="#DD4B39"/>
<g clip-path="url(#clip0_9_2136)">
<path d="M16 32C24.8366 32 32 24.8366 32 16C32 7.16344 24.8366 0 16 0C7.16344 0 0 7.16344 0 16C0 24.8366 7.16344 32 16 32Z" fill="#3B5998"/>
<path d="M20.0225 16.6262H17.1675V27.0856H12.8419V16.6262H10.7847V12.9504H12.8419V10.5717C12.8419 8.87066 13.6499 6.20703 17.206 6.20703L20.4101 6.22044V9.78848H18.0853C17.704 9.78848 17.1678 9.979 17.1678 10.7904V12.9538H20.4004L20.0225 16.6262Z" fill="white"/>
<g clip-path="url(#clip1_9_2136)">
<path d="M16 0C24.8 0 32 7.2 32 16C32 24.8 24.8 32 16 32C7.2 32 0 24.7999 0 16C0 7.20011 7.2 0 16 0Z" fill="#DD4B39"/>
<path d="M24.1001 13.2998V15.0998H25.9V16.8999H24.1001V18.6999H22.3V16.8999H20.5V15.0998H22.3V13.2998H24.1001Z" fill="white"/>
<path d="M7.9 20.4995C5.5 18.0995 5.5 13.8995 7.99996 11.4996C9.79999 9.69954 12.3999 9.29959 14.6999 10.1996L15.5999 10.6996L16.5999 11.3996L14.9999 12.9996L14.4 12.5997C13 11.6997 10.9999 11.8996 9.70003 13.1996C8.19999 14.6997 8.10003 17.3997 9.70003 18.9997C11.2001 20.5997 13.9001 20.5997 15.3 18.9997C15.7 18.5997 16.1 17.9996 16.2 17.3997V17.1996H12.6V15.1997H18.3L18.4 15.6997V17.0997C18.3 18.3997 17.8 19.6997 16.8999 20.5997C14.5 22.8995 10.3 22.8995 7.9 20.4995Z" fill="white"/>
</g>
</g>
<path d="M55.9454 21.14C55.2361 21.14 54.5734 21.014 53.9574 20.762C53.3414 20.5007 52.8001 20.1413 52.3334 19.684C51.8667 19.2267 51.5027 18.6947 51.2414 18.088C50.9894 17.472 50.8634 16.8093 50.8634 16.1C50.8634 15.4 50.9894 14.7467 51.2414 14.14C51.5027 13.5333 51.8621 13.006 52.3194 12.558C52.7861 12.1007 53.3274 11.746 53.9434 11.494C54.5594 11.242 55.2221 11.116 55.9314 11.116C56.4261 11.116 56.9067 11.186 57.3734 11.326C57.8494 11.466 58.2787 11.662 58.6614 11.914C59.0441 12.166 59.3567 12.4553 59.5994 12.782L58.6194 13.804C58.3394 13.5333 58.0501 13.3093 57.7514 13.132C57.4621 12.9547 57.1634 12.8193 56.8554 12.726C56.5474 12.6327 56.2394 12.586 55.9314 12.586C55.4274 12.586 54.9607 12.6747 54.5314 12.852C54.1114 13.0293 53.7381 13.2767 53.4114 13.594C53.0941 13.9113 52.8467 14.2847 52.6694 14.714C52.4921 15.134 52.4034 15.596 52.4034 16.1C52.4034 16.5853 52.4967 17.0473 52.6834 17.486C52.8701 17.9153 53.1267 18.2933 53.4534 18.62C53.7894 18.9467 54.1721 19.2033 54.6014 19.39C55.0401 19.5767 55.5021 19.67 55.9874 19.67C56.3514 19.67 56.6967 19.6187 57.0234 19.516C57.3501 19.404 57.6394 19.25 57.8914 19.054C58.1434 18.858 58.3394 18.634 58.4794 18.382C58.6194 18.1207 58.6894 17.8453 58.6894 17.556V17.276L58.8994 17.472H55.9034V15.974H60.2434C60.2621 16.0767 60.2761 16.1793 60.2854 16.282C60.2947 16.3753 60.2994 16.4687 60.2994 16.562C60.3087 16.646 60.3134 16.73 60.3134 16.814C60.3134 17.458 60.2014 18.046 59.9774 18.578C59.7534 19.1007 59.4407 19.5533 59.0394 19.936C58.6474 20.3187 58.1854 20.6173 57.6534 20.832C57.1307 21.0373 56.5614 21.14 55.9454 21.14ZM65.2222 21.14C64.5035 21.14 63.8595 20.9767 63.2902 20.65C62.7302 20.314 62.2868 19.8613 61.9602 19.292C61.6335 18.7133 61.4702 18.0553 61.4702 17.318C61.4702 16.5807 61.6335 15.9273 61.9602 15.358C62.2868 14.7793 62.7302 14.3267 63.2902 14C63.8595 13.664 64.5035 13.496 65.2222 13.496C65.9315 13.496 66.5662 13.664 67.1262 14C67.6955 14.3267 68.1435 14.7793 68.4702 15.358C68.7968 15.9273 68.9602 16.5807 68.9602 17.318C68.9602 18.0553 68.7968 18.7133 68.4702 19.292C68.1435 19.8613 67.6955 20.314 67.1262 20.65C66.5662 20.9767 65.9315 21.14 65.2222 21.14ZM65.2222 19.824C65.6608 19.824 66.0528 19.7167 66.3982 19.502C66.7435 19.278 67.0142 18.9793 67.2102 18.606C67.4062 18.2233 67.4995 17.794 67.4902 17.318C67.4995 16.8327 67.4062 16.4033 67.2102 16.03C67.0142 15.6473 66.7435 15.3487 66.3982 15.134C66.0528 14.9193 65.6608 14.812 65.2222 14.812C64.7835 14.812 64.3868 14.924 64.0322 15.148C63.6868 15.3627 63.4162 15.6613 63.2202 16.044C63.0242 16.4173 62.9308 16.842 62.9402 17.318C62.9308 17.794 63.0242 18.2233 63.2202 18.606C63.4162 18.9793 63.6868 19.278 64.0322 19.502C64.3868 19.7167 64.7835 19.824 65.2222 19.824ZM73.8354 21.14C73.1168 21.14 72.4728 20.9767 71.9034 20.65C71.3434 20.314 70.9001 19.8613 70.5734 19.292C70.2468 18.7133 70.0834 18.0553 70.0834 17.318C70.0834 16.5807 70.2468 15.9273 70.5734 15.358C70.9001 14.7793 71.3434 14.3267 71.9034 14C72.4728 13.664 73.1168 13.496 73.8354 13.496C74.5448 13.496 75.1794 13.664 75.7394 14C76.3088 14.3267 76.7568 14.7793 77.0834 15.358C77.4101 15.9273 77.5734 16.5807 77.5734 17.318C77.5734 18.0553 77.4101 18.7133 77.0834 19.292C76.7568 19.8613 76.3088 20.314 75.7394 20.65C75.1794 20.9767 74.5448 21.14 73.8354 21.14ZM73.8354 19.824C74.2741 19.824 74.6661 19.7167 75.0114 19.502C75.3568 19.278 75.6274 18.9793 75.8234 18.606C76.0194 18.2233 76.1128 17.794 76.1034 17.318C76.1128 16.8327 76.0194 16.4033 75.8234 16.03C75.6274 15.6473 75.3568 15.3487 75.0114 15.134C74.6661 14.9193 74.2741 14.812 73.8354 14.812C73.3968 14.812 73.0001 14.924 72.6454 15.148C72.3001 15.3627 72.0294 15.6613 71.8334 16.044C71.6374 16.4173 71.5441 16.842 71.5534 17.318C71.5441 17.794 71.6374 18.2233 71.8334 18.606C72.0294 18.9793 72.3001 19.278 72.6454 19.502C73.0001 19.7167 73.3968 19.824 73.8354 19.824ZM82.4347 24.22C81.9121 24.22 81.3894 24.136 80.8667 23.968C80.3534 23.8093 79.9381 23.5993 79.6207 23.338L80.1527 22.218C80.3394 22.358 80.5587 22.4793 80.8107 22.582C81.0627 22.694 81.3287 22.778 81.6087 22.834C81.8887 22.8993 82.1641 22.932 82.4347 22.932C82.9481 22.932 83.3774 22.848 83.7227 22.68C84.0681 22.512 84.3294 22.2647 84.5067 21.938C84.6841 21.6113 84.7727 21.2053 84.7727 20.72V19.306L84.9267 19.404C84.8801 19.6933 84.7261 19.9733 84.4647 20.244C84.2127 20.5053 83.8954 20.72 83.5127 20.888C83.1301 21.056 82.7381 21.14 82.3367 21.14C81.6367 21.14 81.0114 20.9767 80.4607 20.65C79.9194 20.314 79.4901 19.8613 79.1727 19.292C78.8554 18.7133 78.6967 18.0553 78.6967 17.318C78.6967 16.5807 78.8507 15.9273 79.1587 15.358C79.4761 14.7793 79.9054 14.3267 80.4467 14C80.9974 13.664 81.6134 13.496 82.2947 13.496C82.5747 13.496 82.8454 13.5333 83.1067 13.608C83.3681 13.6733 83.6107 13.7713 83.8347 13.902C84.0587 14.0233 84.2594 14.1587 84.4367 14.308C84.6141 14.4573 84.7587 14.616 84.8707 14.784C84.9827 14.952 85.0527 15.1107 85.0807 15.26L84.7727 15.372V13.65H86.2147V20.552C86.2147 21.14 86.1261 21.658 85.9487 22.106C85.7807 22.5633 85.5334 22.946 85.2067 23.254C84.8801 23.5713 84.4834 23.8093 84.0167 23.968C83.5501 24.136 83.0227 24.22 82.4347 24.22ZM82.4907 19.81C82.9481 19.81 83.3541 19.7027 83.7087 19.488C84.0634 19.2733 84.3387 18.9793 84.5347 18.606C84.7307 18.2327 84.8287 17.8033 84.8287 17.318C84.8287 16.8327 84.7261 16.4033 84.5207 16.03C84.3247 15.6473 84.0494 15.3487 83.6947 15.134C83.3494 14.9193 82.9481 14.812 82.4907 14.812C82.0427 14.812 81.6414 14.924 81.2867 15.148C80.9414 15.3627 80.6661 15.6613 80.4607 16.044C80.2647 16.4173 80.1667 16.842 80.1667 17.318C80.1667 17.794 80.2647 18.2233 80.4607 18.606C80.6661 18.9793 80.9414 19.2733 81.2867 19.488C81.6414 19.7027 82.0427 19.81 82.4907 19.81ZM88.2645 21V10.64H89.7065V21H88.2645ZM95.0435 21.14C94.2875 21.14 93.6155 20.9813 93.0275 20.664C92.4488 20.3373 91.9915 19.894 91.6555 19.334C91.3288 18.774 91.1655 18.13 91.1655 17.402C91.1655 16.8233 91.2588 16.296 91.4455 15.82C91.6321 15.344 91.8888 14.9333 92.2155 14.588C92.5515 14.2333 92.9481 13.9627 93.4055 13.776C93.8721 13.58 94.3761 13.482 94.9175 13.482C95.3935 13.482 95.8368 13.5753 96.2475 13.762C96.6581 13.9393 97.0128 14.1867 97.3115 14.504C97.6195 14.8213 97.8528 15.1993 98.0115 15.638C98.1795 16.0673 98.2588 16.5387 98.2495 17.052L98.2355 17.668H92.2295L91.9075 16.52H96.9895L96.7795 16.758V16.422C96.7515 16.114 96.6488 15.8387 96.4715 15.596C96.2941 15.3533 96.0701 15.162 95.7995 15.022C95.5288 14.882 95.2348 14.812 94.9175 14.812C94.4135 14.812 93.9888 14.91 93.6435 15.106C93.2981 15.2927 93.0368 15.5727 92.8595 15.946C92.6821 16.31 92.5935 16.7627 92.5935 17.304C92.5935 17.8173 92.7008 18.2653 92.9155 18.648C93.1301 19.0213 93.4335 19.3107 93.8255 19.516C94.2175 19.7213 94.6701 19.824 95.1835 19.824C95.5475 19.824 95.8835 19.7633 96.1915 19.642C96.5088 19.5207 96.8495 19.3013 97.2135 18.984L97.9415 20.006C97.7175 20.23 97.4421 20.426 97.1155 20.594C96.7981 20.762 96.4575 20.8973 96.0935 21C95.7388 21.0933 95.3888 21.14 95.0435 21.14Z" fill="#DD4B39"/>
<defs>
<clipPath id="clip0_9_2136">
<rect width="32" height="32" fill="white"/>
</clipPath>
<clipPath id="clip1_9_2136">
<rect width="32" height="32" fill="white"/>
</clipPath>
</defs>
</svg>
