<svg width="27" height="27" viewBox="0 0 27 27" fill="none" xmlns="http://www.w3.org/2000/svg">
<g clip-path="url(#clip0_3_137)">
<path d="M26.6157 13.3274C26.6157 20.5123 20.7305 26.3423 13.4641 26.3423C6.19765 26.3423 0.3125 20.5123 0.3125 13.3274C0.3125 6.14246 6.19765 0.3125 13.4641 0.3125C20.7305 0.3125 26.6157 6.14246 26.6157 13.3274Z" fill="#27AB60" stroke="white" stroke-width="0.625"/>
<g clip-path="url(#clip1_3_137)">
<path d="M15.6181 9.41002H12.4137C12.0367 9.41002 11.7809 9.66324 11.7809 10.0364C11.7809 10.4096 12.0367 10.6628 12.4137 10.6628H15.6854C16.5606 10.6628 17.3146 11.4091 17.3146 12.2754V14.581C17.3146 15.4473 16.5606 16.1937 15.6854 16.1937H12.4137C11.6597 16.1937 11.0269 15.7005 10.8384 15.0075L9.64008 10.9027L8.81877 7.98399C8.57642 7.29096 7.9436 6.79785 7.18962 6.79785H5.68164C5.30465 6.79785 5.04883 7.05107 5.04883 7.42424C5.04883 7.79741 5.30465 8.05063 5.68164 8.05063H7.18962C7.37811 8.05063 7.56661 8.17057 7.63393 8.35716L8.5091 11.2225L9.64008 15.394C9.94975 16.6335 11.1481 17.5131 12.4137 17.5131H15.6181C17.1934 17.5131 18.5129 16.207 18.5129 14.6477V12.3287C18.5129 10.7161 17.2607 9.41002 15.6181 9.41002Z" fill="white"/>
<path d="M11.6593 18.6191H11.1611C10.7841 18.6191 10.5283 18.8724 10.5283 19.2455C10.5283 19.6187 10.7841 19.8719 11.1611 19.8719H11.6593C12.0363 19.8719 12.2921 19.6187 12.2921 19.2455C12.2786 18.859 12.0363 18.6191 11.6593 18.6191Z" fill="white"/>
<path d="M17.3146 18.6191H16.8164C16.4394 18.6191 16.1836 18.8724 16.1836 19.2455C16.1836 19.6187 16.4394 19.8719 16.8164 19.8719H17.3146C17.6916 19.8719 17.9474 19.6187 17.9474 19.2455C17.9474 18.859 17.6916 18.6191 17.3146 18.6191Z" fill="white"/>
</g>
</g>
<defs>
<clipPath id="clip0_3_137">
<rect width="26.9282" height="26.6548" fill="white"/>
</clipPath>
<clipPath id="clip1_3_137">
<rect width="13.4641" height="13.3274" fill="white" transform="translate(5.04883 6.66406)"/>
</clipPath>
</defs>
</svg>
