<svg width="65" height="65" viewBox="0 0 65 65" fill="none" xmlns="http://www.w3.org/2000/svg">
<path d="M35.4197 12.957L12.6782 25.4445L32.4998 36.3288L55.2412 23.8413L35.4197 12.957Z" fill="#FEA02C"/>
<path d="M13.3389 51.5048L32.5137 62.034V36.3285L13.3389 25.7993V51.5048Z" fill="#FFC66C"/>
<path d="M55.9774 49.2197V24.9116L42.1484 43.5926L37.3242 41.2439L37.3381 59.4548L55.9774 49.2197Z" fill="#FFB954"/>
<path d="M36.1816 34.678L43.6952 42.1911L63.7304 31.1898L56.2169 23.6768L36.1816 34.678Z" fill="#FEDA9B"/>
<path d="M4.65527 32.8823L24.8547 43.9738L32.5001 36.3283L12.3007 25.2368L4.65527 32.8823Z" fill="#FEDA9B"/>
<path d="M55.9776 23.4372L63.6796 15.7362L43.8079 4.82422L36.106 12.5262L55.9776 23.4372Z" fill="#FEDA9B"/>
<path d="M5.45898 14.0342L12.7925 21.3672L32.5 10.5459L25.1665 3.21289L5.45898 14.0342Z" fill="#FEDA9B"/>
<path d="M57.773 23.4373L64.6279 16.5823C64.9106 16.3001 65.0435 15.9009 64.987 15.5057C64.9309 15.1104 64.6914 14.7643 64.3413 14.5719L56.1003 10.0467C55.4858 9.70948 54.7142 9.93413 54.3765 10.5486C54.0392 11.1635 54.2634 11.9351 54.8783 12.2723L61.6366 15.9832L55.7536 21.8657L34.5946 10.247L40.4771 4.36456L46.4235 7.63013C47.038 7.96735 47.8101 7.7432 48.1473 7.12827C48.4851 6.51383 48.2604 5.7417 47.6455 5.40448L40.8639 1.6802C40.369 1.40844 39.7541 1.49621 39.3553 1.89542L32.4999 8.75089L25.6444 1.89542C25.2452 1.49621 24.6303 1.40893 24.1359 1.6802L0.658464 14.5719C0.308351 14.7643 0.0688264 15.1099 0.0127885 15.5057C-0.0437452 15.9009 0.0891587 16.3001 0.371828 16.5823L7.2268 23.4373L0.371828 30.2917C0.0891587 30.5744 -0.0437452 30.9731 0.0127885 31.3689C0.0688264 31.7641 0.308351 32.1102 0.658464 32.3022L7.75296 36.198V49.2197C7.75296 49.6833 8.00537 50.1098 8.41153 50.333L31.8889 63.2242C32.0793 63.3288 32.2896 63.3809 32.4999 63.3809C32.7101 63.3809 32.9204 63.3288 33.1108 63.2242L56.5882 50.333C56.9944 50.1098 57.2468 49.6833 57.2468 49.2197V36.198L64.3413 32.3027C64.6914 32.1102 64.9309 31.7641 64.987 31.3689C65.0435 30.9736 64.9106 30.5744 64.6279 30.2922L57.773 23.4373ZM32.4999 34.8799L11.6602 23.4368L32.4999 11.9931L53.3395 23.4368L32.4999 34.8799ZM24.5232 4.36456L30.4052 10.247L9.24614 21.8657L3.36365 15.9832L24.5232 4.36456ZM9.24714 25.0083L30.4061 36.627L24.5232 42.51L3.36365 30.8913L9.24714 25.0083ZM54.7077 48.4688L33.7694 59.966V46.9885C33.7694 46.2873 33.2011 45.719 32.4999 45.719C31.7987 45.719 31.2303 46.2873 31.2303 46.9885V59.966L10.292 48.4688V37.5925L24.1359 45.1943C24.3278 45.2995 24.538 45.3511 24.7463 45.3511C25.0751 45.3511 25.4004 45.2231 25.6444 44.9791L32.4999 38.1237L39.3553 44.9791C39.5993 45.2236 39.9246 45.3511 40.2534 45.3511C40.4617 45.3511 40.672 45.2995 40.8639 45.1943L54.7077 37.5925V48.4688ZM40.4771 42.51L34.5941 36.6265L55.7531 25.0083L61.6366 30.8908L40.4771 42.51Z" fill="black"/>
<path d="M51.3906 10.1787C51.7244 10.1787 52.0507 10.0428 52.2882 9.80628C52.5243 9.57023 52.6602 9.24293 52.6602 8.90918C52.6602 8.57494 52.5243 8.24763 52.2882 8.01158C52.0522 7.77503 51.7244 7.63965 51.3906 7.63965C51.0554 7.63965 50.7291 7.77503 50.493 8.01158C50.2555 8.24763 50.1211 8.57494 50.1211 8.90918C50.1211 9.24293 50.2555 9.57023 50.493 9.80628C50.7291 10.0428 51.0569 10.1787 51.3906 10.1787Z" fill="black"/>
<path d="M32.5 41.5044C32.1663 41.5044 31.8385 41.6398 31.6024 41.8763C31.3663 42.1134 31.2305 42.4397 31.2305 42.7739C31.2305 43.1087 31.3663 43.435 31.6024 43.6725C31.8385 43.9086 32.1663 44.0435 32.5 44.0435C32.8337 44.0435 33.1615 43.9086 33.3976 43.6725C33.6337 43.435 33.7695 43.1087 33.7695 42.7739C33.7695 42.4397 33.6337 42.1134 33.3976 41.8763C33.1615 41.6398 32.8337 41.5044 32.5 41.5044Z" fill="black"/>
</svg>
