<svg width="30" height="30" viewBox="0 0 30 30" fill="none" xmlns="http://www.w3.org/2000/svg">
<rect width="30" height="30" rx="10" fill="black" fill-opacity="0.1"/>
<g clip-path="url(#clip0_6_4012)">
<path d="M18.56 11.2962H14.752C14.304 11.2962 14 11.6002 14 12.0482C14 12.4962 14.304 12.8002 14.752 12.8002H18.64C19.68 12.8002 20.576 13.6962 20.576 14.7362V17.5042C20.576 18.5442 19.68 19.4402 18.64 19.4402H14.752C13.856 19.4402 13.104 18.8482 12.88 18.0162L11.456 13.0882L10.48 9.58416C10.192 8.75216 9.44 8.16016 8.544 8.16016H6.752C6.304 8.16016 6 8.46416 6 8.91216C6 9.36016 6.304 9.66416 6.752 9.66416H8.544C8.768 9.66416 8.992 9.80816 9.072 10.0322L10.112 13.4722L11.456 18.4802C11.824 19.9682 13.248 21.0242 14.752 21.0242H18.56C20.432 21.0242 22 19.4562 22 17.5842V14.8002C22 12.8642 20.512 11.2962 18.56 11.2962Z" fill="black"/>
<path d="M13.8557 22.3525H13.2637C12.8157 22.3525 12.5117 22.6565 12.5117 23.1045C12.5117 23.5525 12.8157 23.8565 13.2637 23.8565H13.8557C14.3037 23.8565 14.6077 23.5525 14.6077 23.1045C14.5917 22.6405 14.3037 22.3525 13.8557 22.3525Z" fill="black"/>
<path d="M20.5764 22.3525H19.9844C19.5364 22.3525 19.2324 22.6565 19.2324 23.1045C19.2324 23.5525 19.5364 23.8565 19.9844 23.8565H20.5764C21.0244 23.8565 21.3284 23.5525 21.3284 23.1045C21.3284 22.6405 21.0244 22.3525 20.5764 22.3525Z" fill="black"/>
</g>
<defs>
<clipPath id="clip0_6_4012">
<rect width="16" height="16" fill="white" transform="translate(6 8)"/>
</clipPath>
</defs>
</svg>
