<svg width="36" height="32" viewBox="0 0 36 32" fill="none" xmlns="http://www.w3.org/2000/svg">
<path d="M35.1285 12.0924C34.9029 11.4163 34.284 10.936 33.5517 10.8721L23.6052 9.99697L19.6721 1.07689C19.382 0.423165 18.7216 0 17.9877 0C17.2539 0 16.5934 0.423164 16.3034 1.07842L12.3703 9.99697L2.42221 10.8721C1.69127 10.9376 1.07392 11.4163 0.847016 12.0924C0.62011 12.7686 0.829662 13.5102 1.3826 13.9777L8.90099 20.3667L6.68399 29.8294C6.52177 30.5252 6.80047 31.2444 7.39626 31.6617C7.71651 31.8859 8.09118 32 8.469 32C8.79477 32 9.11791 31.9149 9.40792 31.7468L17.9877 26.7781L26.5644 31.7468C27.192 32.1126 27.9832 32.0792 28.5777 31.6617C29.1737 31.2431 29.4521 30.5236 29.2899 29.8294L27.0729 20.3667L34.5913 13.9789C35.1443 13.5102 35.3554 12.7698 35.1285 12.0924V12.0924Z" fill="#777777"/>
</svg>
