<svg width="18" height="18" viewBox="0 0 18 18" fill="none" xmlns="http://www.w3.org/2000/svg">
<path fill-rule="evenodd" clip-rule="evenodd" d="M4.62739 13.9925C4.82096 13.658 5.18284 13.4328 5.59684 13.4328C6.01084 13.4328 6.37259 13.658 6.56629 13.9925H16.2311C16.54 13.9925 16.7908 14.2433 16.7908 14.5521C16.7908 14.8611 16.54 15.1119 16.2311 15.1119H6.56629C6.37259 15.4463 6.01084 15.6716 5.59684 15.6716C5.18284 15.6716 4.82096 15.4463 4.62739 15.1119H1.67889C1.36993 15.1119 1.11914 14.8611 1.11914 14.5521C1.11914 14.2433 1.36993 13.9925 1.67889 13.9925H4.62739ZM16.7908 3.91787C16.7908 2.99047 16.0391 2.23877 15.1117 2.23877C12.4011 2.23877 5.50899 2.23877 2.79824 2.23877C1.87098 2.23877 1.11914 2.99047 1.11914 3.91787V10.6343C1.11914 11.5616 1.87098 12.3134 2.79824 12.3134H15.1117C16.0391 12.3134 16.7908 11.5616 16.7908 10.6343V3.91787ZM15.6715 3.91787C15.6715 3.60865 15.4208 3.35813 15.1117 3.35813C12.4011 3.35813 5.50899 3.35813 2.79824 3.35813C2.48916 3.35813 2.23863 3.60865 2.23863 3.91787V10.6343C2.23863 10.9434 2.48916 11.1939 2.79824 11.1939H15.1117C15.4208 11.1939 15.6715 10.9434 15.6715 10.6343V3.91787ZM10.4102 7.7238C10.5511 7.61808 10.6342 7.45219 10.6342 7.27608C10.6342 7.09984 10.5511 6.93395 10.4102 6.82823L8.17138 5.14913C8.00186 5.02192 7.77498 5.0015 7.5853 5.09634C7.39563 5.19117 7.27595 5.38487 7.27595 5.59698V8.95519C7.27595 9.16716 7.39563 9.36099 7.5853 9.45569C7.77498 9.55053 8.00186 9.53011 8.17138 9.4029L10.4102 7.7238ZM8.3953 7.83569L9.14163 7.27608L8.3953 6.71634V7.83569Z" fill="black"/>
</svg>
