<svg width="17" height="17" viewBox="0 0 17 17" fill="none" xmlns="http://www.w3.org/2000/svg">
<g clip-path="url(#clip0_62_13401)">
<path d="M3.80496 16.6562C3.61871 16.6562 3.43375 16.5981 3.2759 16.484C2.98187 16.2709 2.84451 15.9046 2.92454 15.5512L4.01819 10.7336L0.309205 7.4809C0.0365693 7.2429 -0.0675823 6.86598 0.0443515 6.5211C0.156285 6.17687 0.460828 5.93316 0.821402 5.89982L5.72885 5.45429L7.66907 0.913779C7.81214 0.580183 8.13795 0.364746 8.49995 0.364746C8.86195 0.364746 9.18777 0.580183 9.33083 0.913001L11.2711 5.45429L16.1777 5.89982C16.5391 5.93238 16.8436 6.17687 16.9556 6.5211C17.0675 6.86533 16.964 7.2429 16.6913 7.4809L12.9824 10.7329L14.076 15.5504C14.1562 15.9046 14.0187 16.2709 13.7248 16.4833C13.4315 16.6958 13.0405 16.7121 12.7316 16.5265L8.49995 13.9977L4.26826 16.528C4.1252 16.6129 3.96579 16.6562 3.80496 16.6562ZM8.49995 12.9083C8.66078 12.9083 8.82006 12.9515 8.96325 13.0365L12.9569 15.4251L11.9248 10.8781C11.8511 10.5545 11.9609 10.2166 12.211 9.99766L15.7131 6.92629L11.0797 6.50554C10.7461 6.47506 10.4592 6.26533 10.3289 5.95793L8.49995 1.67306L6.6688 5.95858C6.53988 6.2639 6.25298 6.47363 5.92016 6.50411L1.28613 6.92487L4.78811 9.99623C5.03896 10.2158 5.14868 10.553 5.07437 10.8774L4.04297 15.4243L8.03665 13.0365C8.17972 12.9515 8.33912 12.9083 8.49995 12.9083ZM5.69136 5.5421C5.69136 5.5421 5.69136 5.54288 5.69058 5.54353L5.69136 5.5421ZM11.3071 5.54003L11.3079 5.54145C11.3079 5.54068 11.3079 5.54068 11.3071 5.54003Z" fill="black"/>
</g>
<defs>
<clipPath id="clip0_62_13401">
<rect width="17" height="17" fill="white"/>
</clipPath>
</defs>
</svg>
