<svg width="20" height="19" viewBox="0 0 20 19" fill="none" xmlns="http://www.w3.org/2000/svg">
<path d="M2.9965 5.13949H5.2833C5.2833 5.7693 5.79612 6.28149 6.4267 6.28149H7.5701C8.20069 6.28149 8.7135 5.7693 8.7135 5.13949H16.7173C17.0329 5.13949 17.289 4.88425 17.289 4.56848C17.289 4.25272 17.0329 3.99748 16.7173 3.99748H8.7135C8.7135 3.36766 8.20069 2.85547 7.5701 2.85547H6.4267C5.79612 2.85547 5.2833 3.36766 5.2833 3.99748H2.9965C2.68093 3.99748 2.4248 4.25272 2.4248 4.56848C2.4248 4.88425 2.68093 5.13949 2.9965 5.13949Z" fill="#27AB60"/>
<path d="M16.7173 8.56584H13.2871C13.2871 7.93602 12.7743 7.42383 12.1437 7.42383H11.0003C10.3697 7.42383 9.8569 7.93602 9.8569 8.56584H2.9965C2.68093 8.56584 2.4248 8.82108 2.4248 9.13684C2.4248 9.45261 2.68093 9.70785 2.9965 9.70785H9.8569C9.8569 10.3377 10.3697 10.8499 11.0003 10.8499H12.1437C12.7743 10.8499 13.2871 10.3377 13.2871 9.70785H16.7173C17.0329 9.70785 17.289 9.45261 17.289 9.13684C17.289 8.82108 17.0329 8.56584 16.7173 8.56584Z" fill="#27AB60"/>
<path d="M16.7173 13.1332H8.7135C8.7135 12.5034 8.20069 11.9912 7.5701 11.9912H6.4267C5.79612 11.9912 5.2833 12.5034 5.2833 13.1332H2.9965C2.68093 13.1332 2.4248 13.3885 2.4248 13.7042C2.4248 14.02 2.68093 14.2752 2.9965 14.2752H5.2833C5.2833 14.905 5.79612 15.4172 6.4267 15.4172H7.5701C8.20069 15.4172 8.7135 14.905 8.7135 14.2752H16.7173C17.0329 14.2752 17.289 14.02 17.289 13.7042C17.289 13.3885 17.0329 13.1332 16.7173 13.1332Z" fill="#27AB60"/>
</svg>
