<svg width="100" height="100" viewBox="0 0 100 100" fill="none" xmlns="http://www.w3.org/2000/svg">
<path d="M0 50.0062L14.9433 64.0211L24.1746 55.0438L18.8375 50.0075L24.1746 44.983L14.9433 35.9775" fill="white"/>
<path d="M99.9998 50.0133L85.0565 35.999L75.8252 44.9757L81.1629 50.012L75.8252 55.0372L85.0565 64.042" fill="white"/>
<path d="M29.5301 35.3848C30.2144 37.9168 31.4397 40.6996 33.3206 42.5828C33.325 42.5871 36.6768 45.9431 40.4255 49.6963C40.4255 49.6963 45.8225 55.0999 50.581 59.8641C54.3321 63.6198 57.6858 66.9776 57.6858 66.9776C59.2349 68.5285 58.7362 71.8801 57.862 73.6638C57.1009 75.2166 55.5325 76.5611 54.319 77.7811C52.908 79.2 51.4458 80.5677 50.0498 82.0016L42.9712 74.9144C40.0874 68.6756 44.6128 64.5332 44.6128 64.5332L35.5946 55.504C22.096 70.5725 33.7224 83.592 33.7224 83.592C33.7224 83.592 50.1085 99.9981 50.1104 100C50.1254 100.015 58.3107 91.9737 58.8631 91.4331C60.9177 89.4217 62.9722 87.4109 65.0268 85.4001C70.4326 80.1091 72.999 71.9195 71.0256 64.6158C70.3414 62.0845 69.116 59.301 67.2351 57.4179C67.2308 57.4135 63.8789 54.0576 60.1303 50.3044C55.3719 45.5401 49.9748 40.1359 49.9748 40.1359C46.2237 36.3808 42.87 33.0224 42.87 33.0224C41.3209 31.4714 41.8196 28.1199 42.6938 26.3362C43.4549 24.7834 45.0233 23.4389 46.2368 22.2189C47.6478 20.8 49.11 19.4323 50.506 17.9983L57.5846 25.0856C60.4684 31.3244 55.943 35.4668 55.943 35.4668L64.9612 44.4959C78.4598 29.4275 66.8333 16.408 66.8333 16.408C66.8333 16.408 50.4472 0.00189791 50.4453 2.10016e-05C50.4304 -0.0149943 42.2451 8.02632 41.6927 8.56687C39.6381 10.5777 37.5835 12.5891 35.5289 14.5999C30.1231 19.8922 27.5568 28.0817 29.5301 35.3848Z" fill="white"/>
</svg>
