<svg width="98" height="98" viewBox="0 0 98 98" fill="none" xmlns="http://www.w3.org/2000/svg">
<path d="M0 48.5642L14.5297 62.1746L23.5055 53.4564L18.3161 48.5654L23.5055 43.6859L14.5297 34.9404" fill="#F9AB5C"/>
<path d="M97.232 48.5707L82.7024 34.9609L73.7266 43.6785L78.9165 48.5695L73.7266 53.4496L82.7024 62.1945" fill="#F9AB5C"/>
<path d="M28.7125 34.3636C29.3778 36.8224 30.5693 39.5249 32.3981 41.3538C32.4023 41.358 35.6614 44.6171 39.3063 48.2619C39.3063 48.2619 44.5539 53.5096 49.1807 58.1363C52.828 61.7836 56.0888 65.0445 56.0888 65.0445C57.595 66.5507 57.1102 69.8055 56.2602 71.5377C55.5201 73.0458 53.9951 74.3514 52.8152 75.5362C51.4433 76.9142 50.0215 78.2424 48.6642 79.635L41.7815 72.7523C38.9776 66.6935 43.3777 62.6707 43.3777 62.6707L34.6091 53.9021C21.4841 68.5357 32.7887 81.1794 32.7887 81.1794C32.7887 81.1794 48.7213 97.112 48.7231 97.1138C48.7377 97.1284 56.6964 89.3192 57.2335 88.7942C59.2312 86.8409 61.229 84.8881 63.2267 82.9353C68.4829 77.797 70.9782 69.8438 69.0595 62.7509C68.3942 60.2926 67.2027 57.5895 65.3739 55.7607C65.3696 55.7564 62.1106 52.4974 58.4657 48.8525C53.839 44.2258 48.5913 38.9775 48.5913 38.9775C44.944 35.3308 41.6831 32.0693 41.6831 32.0693C40.1769 30.5631 40.6618 27.3083 41.5118 25.5761C42.2518 24.0681 43.7768 22.7624 44.9568 21.5776C46.3287 20.1996 47.7504 18.8715 49.1077 17.4789L55.9904 24.3616C58.7944 30.4204 54.3943 34.4431 54.3943 34.4431L63.1629 43.2117C76.2879 28.5782 64.9832 15.9344 64.9832 15.9344C64.9832 15.9344 49.0506 0.00184314 49.0488 2.03955e-05C49.0342 -0.0145615 41.0755 7.79467 40.5384 8.31962C38.5407 10.2724 36.543 12.2258 34.5453 14.1785C29.2891 19.318 26.7938 27.2713 28.7125 34.3636Z" fill="#388F91"/>
</svg>
