<svg width="25" height="25" viewBox="0 0 25 25" fill="none" xmlns="http://www.w3.org/2000/svg">
<path d="M9.65722 21.7714V18.7047C9.6572 17.9246 10.2931 17.2908 11.081 17.2856H13.9671C14.7587 17.2856 15.4005 17.9209 15.4005 18.7047V21.7809C15.4003 22.4432 15.9343 22.9845 16.603 23H18.5271C20.4451 23 22 21.4607 22 19.5618V10.8378C21.9898 10.0908 21.6355 9.38935 21.038 8.93303L14.4577 3.6853C13.3049 2.77157 11.6662 2.77157 10.5134 3.6853L3.96203 8.94256C3.36226 9.39702 3.00739 10.0997 3 10.8474V19.5618C3 21.4607 4.55488 23 6.47291 23H8.39696C9.08235 23 9.63797 22.4499 9.63797 21.7714" stroke="#8F959E" stroke-width="1.5" stroke-linecap="round" stroke-linejoin="round"/>
</svg>
