<svg width="25" height="25" viewBox="0 0 25 25" fill="none" xmlns="http://www.w3.org/2000/svg">
<path d="M16.2393 8.05301C17.3046 8.39331 18.0615 9.34971 18.1561 10.475M12.261 21.8538C10.0904 20.5179 8.07111 18.9456 6.23929 17.1652C4.95144 15.8829 3.97101 14.3198 3.3731 12.5954C2.29714 9.25031 3.55393 5.42083 7.07112 4.28752C8.91961 3.69243 10.9384 4.03255 12.4961 5.20148C14.0543 4.03398 16.0725 3.69398 17.9211 4.28752C21.4383 5.42083 22.7041 9.25031 21.6281 12.5954C21.0302 14.3198 20.0498 15.8829 18.7619 17.1652C16.9301 18.9456 14.9108 20.5179 12.7402 21.8538L12.5051 22L12.261 21.8538Z" stroke="#8F959E" stroke-width="1.5" stroke-linecap="round" stroke-linejoin="round"/>
</svg>
