<svg width="25" height="25" viewBox="0 0 25 25" fill="none" xmlns="http://www.w3.org/2000/svg">
<path d="M8.73663 7.32041C8.73663 4.93434 10.6709 3.00004 13.057 3.00004C14.206 2.99517 15.3096 3.4482 16.1238 4.25896C16.938 5.06971 17.3957 6.1714 17.3957 7.32041M10.0913 11.8238H10.1371M15.922 11.8238H15.9678M8.87393 22.222H17.2218C20.2881 22.222 22.6405 21.1144 21.9724 16.6568L21.1943 10.6156C20.7824 8.39133 19.3637 7.54007 18.1188 7.54007H7.94029C6.67713 7.54007 5.34075 8.45541 4.86477 10.6156L4.08674 16.6568C3.51924 20.611 5.80757 22.222 8.87393 22.222Z" stroke="#8F959E" stroke-width="1.5" stroke-linecap="round" stroke-linejoin="round"/>
</svg>
