<svg width="18" height="18" viewBox="0 0 18 18" fill="none" xmlns="http://www.w3.org/2000/svg">
<path d="M8.99977 14.0628C8.56707 14.0619 8.13534 14.0216 7.70995 13.9424C7.57799 13.9213 7.45786 13.8539 7.37107 13.7522C7.28429 13.6506 7.23652 13.5214 7.23633 13.3878C7.23773 13.3053 7.25695 13.2242 7.29265 13.1499C7.32836 13.0756 7.37972 13.0099 7.44319 12.9574C7.50667 12.9048 7.58077 12.8666 7.66041 12.8453C7.74005 12.8241 7.82334 12.8203 7.90458 12.8343C8.2657 12.9022 8.6323 12.9369 8.99977 12.9378C12.332 12.9378 15.2261 10.0201 16.1362 9.00026C15.5297 8.32141 14.8633 7.69863 14.145 7.13951C14.0865 7.09426 14.0376 7.03795 14.0009 6.97379C13.9642 6.90963 13.9406 6.83888 13.9312 6.76557C13.9124 6.61752 13.9532 6.46804 14.0445 6.35004C14.1359 6.23204 14.2704 6.15516 14.4185 6.13633C14.4918 6.12701 14.5662 6.13222 14.6375 6.15166C14.7088 6.1711 14.7756 6.20439 14.834 6.24963C15.7498 6.95523 16.5831 7.76189 17.318 8.65432C17.3955 8.7533 17.4376 8.87539 17.4376 9.0011C17.4376 9.12681 17.3955 9.2489 17.318 9.34788C17.1667 9.5397 13.5695 14.0628 8.99977 14.0628Z" fill="#777777"/>
<path d="M15.0225 2.97719C14.917 2.87174 14.774 2.8125 14.6248 2.8125C14.4756 2.8125 14.3326 2.87174 14.2271 2.97719L12.4384 4.76594C11.7611 4.43959 11.0446 4.20213 10.3065 4.05944C9.87564 3.97843 9.4382 3.93757 8.9998 3.93738C4.43005 3.93738 0.832863 8.46044 0.682113 8.65282C0.604611 8.7518 0.5625 8.87389 0.5625 8.9996C0.5625 9.12531 0.604611 9.2474 0.682113 9.34638C1.41632 10.238 2.24884 11.044 3.16386 11.7488C3.59671 12.0881 4.05021 12.4001 4.52174 12.6831L2.97711 14.2272C2.92339 14.2791 2.88054 14.3412 2.85106 14.4098C2.82158 14.4784 2.80606 14.5522 2.80541 14.6269C2.80476 14.7016 2.81899 14.7757 2.84728 14.8448C2.87556 14.9139 2.91733 14.9767 2.97014 15.0295C3.02296 15.0824 3.08576 15.1241 3.15489 15.1524C3.22402 15.1807 3.29809 15.1949 3.37278 15.1943C3.44746 15.1936 3.52128 15.1781 3.5899 15.1486C3.65853 15.1191 3.7206 15.0763 3.77249 15.0226L15.0225 3.77257C15.1279 3.66708 15.1872 3.52403 15.1872 3.37488C15.1872 3.22572 15.1279 3.08268 15.0225 2.97719ZM3.85461 10.8612C3.13625 10.3019 2.4698 9.67893 1.86336 8.99988C2.77349 7.98063 5.66755 5.06238 8.9998 5.06238C9.3699 5.06267 9.73917 5.09732 10.1029 5.16588C10.6121 5.26276 11.1095 5.41361 11.5867 5.61588L10.5506 6.652C10.0098 6.29467 9.36217 6.1351 8.71726 6.20029C8.07235 6.26549 7.46975 6.55145 7.0114 7.00979C6.55306 7.46814 6.2671 8.07074 6.2019 8.71565C6.13671 9.36056 6.29627 10.0082 6.65361 10.549L5.34355 11.8613C4.82259 11.5662 4.32485 11.2318 3.85461 10.8612ZM7.48105 9.72213C7.37143 9.49705 7.31376 9.25023 7.3123 8.99988C7.31241 8.55363 7.48869 8.12547 7.8028 7.80851C8.05322 7.57036 8.36915 7.41257 8.70997 7.35543C9.05079 7.2983 9.40091 7.34442 9.7153 7.48788L7.48105 9.72213Z" fill="#777777"/>
</svg>
