<svg width="18" height="18" viewBox="0 0 18 18" fill="none" xmlns="http://www.w3.org/2000/svg">
<path d="M9.00002 14.0625C4.42915 14.0625 0.833083 9.53944 0.682333 9.34706C0.604693 9.24804 0.5625 9.12583 0.5625 9C0.5625 8.87417 0.604693 8.75197 0.682333 8.65294C0.833083 8.46056 4.42915 3.9375 9.00002 3.9375C13.5709 3.9375 17.167 8.46056 17.3177 8.65294C17.3953 8.75197 17.4375 8.87417 17.4375 9C17.4375 9.12583 17.3953 9.24804 17.3177 9.34706C17.167 9.53944 13.5709 14.0625 9.00002 14.0625ZM1.86358 9C2.77427 10.0204 5.66721 12.9375 9.00002 12.9375C12.3328 12.9375 15.2258 10.0204 16.1365 9C15.2258 7.97963 12.3328 5.0625 9.00002 5.0625C5.66721 5.0625 2.77427 7.97963 1.86358 9Z" fill="#777777"/>
<path d="M9 11.8125C8.44374 11.8125 7.89997 11.6476 7.43746 11.3385C6.97495 11.0295 6.61446 10.5902 6.40159 10.0763C6.18872 9.56238 6.13302 8.99688 6.24154 8.45131C6.35006 7.90574 6.61793 7.4046 7.01126 7.01126C7.4046 6.61793 7.90574 6.35006 8.45131 6.24154C8.99688 6.13302 9.56238 6.18872 10.0763 6.40159C10.5902 6.61446 11.0295 6.97495 11.3385 7.43746C11.6476 7.89997 11.8125 8.44374 11.8125 9C11.8116 9.74565 11.515 10.4605 10.9878 10.9878C10.4605 11.515 9.74565 11.8116 9 11.8125ZM9 7.3125C8.66625 7.3125 8.33998 7.41147 8.06248 7.5969C7.78497 7.78232 7.56868 8.04587 7.44095 8.35422C7.31323 8.66257 7.27981 9.00187 7.34493 9.32922C7.41004 9.65656 7.57076 9.95724 7.80676 10.1932C8.04276 10.4292 8.34344 10.59 8.67079 10.6551C8.99813 10.7202 9.33743 10.6868 9.64578 10.559C9.95413 10.4313 10.2177 10.215 10.4031 9.93753C10.5885 9.66002 10.6875 9.33376 10.6875 9C10.6875 8.55245 10.5097 8.12323 10.1932 7.80676C9.87678 7.49029 9.44755 7.3125 9 7.3125Z" fill="#777777"/>
</svg>
