<svg width="18" height="18" viewBox="0 0 18 18" fill="none" xmlns="http://www.w3.org/2000/svg">
<path d="M16.8825 5.61655C16.5617 5.39105 16.1458 5.36028 15.797 5.53555L12.884 6.99209C12.7044 7.0822 12.4852 7.02421 12.3731 6.8567L9.87646 3.11174C9.68094 2.81834 9.35356 2.64307 9.00088 2.64307C8.64819 2.64307 8.32081 2.81829 8.12529 3.11163L5.62919 6.8563C5.51771 7.02303 5.29906 7.08316 5.11777 6.99198L2.20475 5.5355C1.85538 5.36084 1.43953 5.39184 1.11929 5.6165C0.799569 5.84122 0.629301 6.22186 0.675426 6.60942L1.59224 14.4039C1.68286 15.1713 2.33384 15.75 3.10616 15.75H14.8956C15.6679 15.75 16.3189 15.1713 16.4095 14.4036L17.3263 6.60942C17.3719 6.22158 17.2022 5.84094 16.8825 5.61655ZM15.2922 14.2721C15.2686 14.4735 15.0978 14.625 14.8956 14.625H3.10616C2.90399 14.625 2.73316 14.4735 2.70954 14.2724L2.61869 13.5H13.5009C13.8118 13.5 14.0634 13.2482 14.0634 12.9375C14.0634 12.6269 13.8118 12.375 13.5009 12.375H2.48639L1.8065 6.59429L4.61461 7.99835C5.30289 8.34142 6.14006 8.11895 6.56525 7.48034L9.00088 3.82629L11.4371 7.48034C11.8623 8.11917 12.7 8.34001 13.3872 7.99835L16.1953 6.59429L15.2922 14.2721Z" fill="black"/>
</svg>
