<svg width="16" height="20" viewBox="0 0 16 20" fill="none" xmlns="http://www.w3.org/2000/svg">
<path d="M8 12.5002C7.78783 12.5002 7.58434 12.4124 7.43431 12.2562C7.28429 12.0999 7.2 11.8879 7.2 11.6669V5.00045C7.2 4.77945 7.28429 4.56749 7.43431 4.41122C7.58434 4.25494 7.78783 4.16715 8 4.16715C8.21217 4.16715 8.41566 4.25494 8.56569 4.41122C8.71571 4.56749 8.8 4.77945 8.8 5.00045V11.6669C8.8 11.8879 8.71571 12.0999 8.56569 12.2562C8.41566 12.4124 8.21217 12.5002 8 12.5002ZM8.6344 19.8C10.3624 19.0767 16 16.2326 16 10.0361V5.7271C16.0009 4.8513 15.7364 3.99754 15.2443 3.28744C14.7522 2.57733 14.0575 2.04708 13.2592 1.77222L8.252 0.0431039C8.08853 -0.014368 7.91147 -0.014368 7.748 0.0431039L2.7408 1.77222C1.94249 2.04708 1.2478 2.57733 0.755683 3.28744C0.263565 3.99754 -0.000884366 4.8513 2.222e-06 5.7271V10.0361C2.222e-06 15.5043 5.604 18.8492 7.3224 19.7442C7.53974 19.8522 7.76668 19.9379 8 20C8.21692 19.9538 8.42929 19.8869 8.6344 19.8ZM12.7552 3.35384C13.234 3.51918 13.6507 3.83747 13.9459 4.2635C14.2412 4.68954 14.4001 5.20165 14.4 5.7271V10.0361C14.4 15.1885 9.5304 17.6284 8.0376 18.2534C6.5272 17.4667 1.6 14.5493 1.6 10.0361V5.7271C1.59994 5.20165 1.75882 4.68954 2.05408 4.2635C2.34935 3.83747 2.76598 3.51918 3.2448 3.35384L8 1.71222L12.7552 3.35384ZM8 14.1668C7.84177 14.1668 7.6871 14.2157 7.55554 14.3073C7.42398 14.3988 7.32145 14.529 7.2609 14.6813C7.20035 14.8335 7.1845 15.0011 7.21537 15.1627C7.24624 15.3244 7.32243 15.4728 7.43431 15.5894C7.5462 15.7059 7.68874 15.7853 7.84393 15.8174C7.99911 15.8496 8.15997 15.8331 8.30615 15.77C8.45233 15.707 8.57727 15.6002 8.66518 15.4631C8.75308 15.3261 8.8 15.165 8.8 15.0002C8.8 14.7791 8.71571 14.5672 8.56569 14.4109C8.41566 14.2546 8.21217 14.1668 8 14.1668Z" fill="black"/>
</svg>
