<svg width="116" height="100" viewBox="0 0 116 100" fill="none" xmlns="http://www.w3.org/2000/svg">
<rect width="116" height="100" fill="#F9AB5C"/>
<path d="M43 20C40.9375 20 39.25 21.6875 39.25 23.75V76.25C39.25 78.3125 40.9375 80 43 80H80.5C82.5625 80 84.25 78.3125 84.25 76.25V35L69.25 20H43Z" fill="#E2E5E7"/>
<path d="M73 35H84.25L69.25 20V31.25C69.25 33.3125 70.9375 35 73 35Z" fill="#B0B7BD"/>
<path d="M84.25 46.25L73 35H84.25V46.25Z" fill="#CAD1D8"/>
<path d="M76.75 68.75C76.75 69.7812 75.9062 70.625 74.875 70.625H33.625C32.5938 70.625 31.75 69.7812 31.75 68.75V50C31.75 48.9688 32.5938 48.125 33.625 48.125H74.875C75.9062 48.125 76.75 48.9688 76.75 50V68.75Z" fill="#F15642"/>
<path d="M39.9219 55.5252C39.9219 55.0302 40.3119 54.4902 40.94 54.4902H44.4031C46.3531 54.4902 48.1081 55.7952 48.1081 58.2965C48.1081 60.6665 46.3531 61.9865 44.4031 61.9865H41.9V63.9665C41.9 64.6265 41.48 64.9996 40.94 64.9996C40.445 64.9996 39.9219 64.6265 39.9219 63.9665V55.5252ZM41.9 56.3784V60.1134H44.4031C45.4081 60.1134 46.2031 59.2265 46.2031 58.2965C46.2031 57.2484 45.4081 56.3784 44.4031 56.3784H41.9Z" fill="white"/>
<path d="M51.0428 64.9994C50.5478 64.9994 50.0078 64.7294 50.0078 64.0712V55.555C50.0078 55.0169 50.5478 54.625 51.0428 54.625H54.4759C61.3272 54.625 61.1772 64.9994 54.6109 64.9994H51.0428ZM51.9878 56.455V63.1713H54.4759C58.5241 63.1713 58.7041 56.455 54.4759 56.455H51.9878Z" fill="white"/>
<path d="M63.6097 56.5749V58.958H67.4328C67.9728 58.958 68.5128 59.498 68.5128 60.0212C68.5128 60.5162 67.9728 60.9212 67.4328 60.9212H63.6097V64.0693C63.6097 64.5943 63.2366 64.9974 62.7116 64.9974C62.0516 64.9974 61.6484 64.5943 61.6484 64.0693V55.553C61.6484 55.0149 62.0534 54.623 62.7116 54.623H67.9747C68.6347 54.623 69.0247 55.0149 69.0247 55.553C69.0247 56.033 68.6347 56.573 67.9747 56.573H63.6097V56.5749Z" fill="white"/>
<path d="M74.875 70.625H39.25V72.5H74.875C75.9062 72.5 76.75 71.6562 76.75 70.625V68.75C76.75 69.7812 75.9062 70.625 74.875 70.625Z" fill="#CAD1D8"/>
</svg>
