<svg width="30" height="30" viewBox="0 0 30 30" fill="none" xmlns="http://www.w3.org/2000/svg">
<circle cx="15" cy="15" r="13.5" fill="#27AB60" stroke="white" stroke-width="3"/>
<path d="M18.2064 11.0305L18.2214 11.05H18.246H18.4999C19.1495 11.0508 19.7722 11.3092 20.2315 11.7685C20.6908 12.2278 20.9492 12.8505 20.95 13.5001V18.4999C20.9492 19.1495 20.6908 19.7722 20.2315 20.2315C19.7722 20.6908 19.1495 20.9492 18.4999 20.95H11.5001C10.8505 20.9492 10.2278 20.6908 9.76847 20.2315C9.30916 19.7722 9.05078 19.1495 9.05 18.4999L9.05 13.5C9.05079 12.8505 9.30917 12.2278 9.76847 11.7685C10.2278 11.3092 10.8505 11.0508 11.5001 11.05H11.754H11.7786L11.7936 11.0305L12.8855 9.61468C12.8855 9.61466 12.8855 9.61464 12.8855 9.61462C13.0216 9.43954 13.1957 9.29772 13.3947 9.1999C13.5937 9.10208 13.8124 9.05082 14.0341 9.05H15.9659C16.1876 9.05082 16.4063 9.10208 16.6053 9.1999C16.8043 9.29773 16.9784 9.43955 17.1145 9.61464C17.1145 9.61466 17.1145 9.61467 17.1145 9.61468L18.2064 11.0305ZM13.5985 10.1644L13.5984 10.1645L12.9774 10.9695L12.9153 11.05H13.017H16.983H17.0847L17.0226 10.9695L16.4016 10.1645L16.4015 10.1643C16.35 10.0979 16.284 10.0441 16.2086 10.007C16.1332 9.96985 16.0503 9.95036 15.9662 9.95H15.966L14.034 9.95L14.0338 9.95C13.9497 9.95028 13.8668 9.96974 13.7914 10.0069C13.7159 10.044 13.65 10.0979 13.5985 10.1644ZM19.596 19.596C19.8867 19.3053 20.05 18.9111 20.05 18.5V13.5C20.05 13.0889 19.8867 12.6947 19.596 12.404C19.3053 12.1133 18.9111 11.95 18.5 11.95H11.5C11.0889 11.95 10.6947 12.1133 10.404 12.404C10.1133 12.6947 9.95 13.0889 9.95 13.5V18.5C9.95 18.9111 10.1133 19.3053 10.404 19.596C10.6947 19.8867 11.0889 20.05 11.5 20.05H18.5C18.9111 20.05 19.3053 19.8867 19.596 19.596Z" fill="white" stroke="#27AB60" stroke-width="0.1"/>
<path d="M15 12.6665L15 12.7165C15.9147 12.7174 16.7917 13.0812 17.4385 13.728C18.0853 14.3748 18.4491 15.2518 18.45 16.1666C18.45 16.8489 18.2477 17.5159 17.8686 18.0832C17.4895 18.6506 16.9507 19.0928 16.3203 19.3539C15.6899 19.615 14.9962 19.6833 14.3269 19.5502C13.6577 19.4171 13.043 19.0885 12.5605 18.606C12.078 18.1235 11.7494 17.5088 11.6163 16.8396C11.4832 16.1703 11.5515 15.4767 11.8126 14.8462C12.0737 14.2158 12.5159 13.677 13.0833 13.2979C13.6506 12.9188 14.3177 12.7165 15 12.7165V12.6665ZM15 12.6665C15.928 12.6674 16.8177 13.0365 17.4739 13.6927C18.13 14.3488 18.4991 15.2385 18.5 16.1665C18.5 16.8587 18.2947 17.5354 17.9101 18.111C17.5256 18.6866 16.9789 19.1352 16.3394 19.4001C15.6999 19.665 14.9961 19.7343 14.3172 19.5993C13.6383 19.4642 13.0146 19.1309 12.5251 18.6414C12.0356 18.1519 11.7023 17.5283 11.5673 16.8493C11.4322 16.1704 11.5015 15.4667 11.7664 14.8271C12.0313 14.1876 12.4799 13.6409 13.0555 13.2564C13.6311 12.8718 14.3078 12.6665 15 12.6665ZM13.6759 18.1482C14.0678 18.4101 14.5286 18.5498 15 18.5498C15.6321 18.5498 16.2383 18.2987 16.6853 17.8518C17.1322 17.4048 17.3833 16.7986 17.3833 16.1665C17.3833 15.6951 17.2436 15.2343 16.9817 14.8424C16.7198 14.4505 16.3476 14.145 15.9121 13.9646C15.4766 13.7842 14.9974 13.737 14.535 13.829C14.0727 13.9209 13.648 14.1479 13.3147 14.4812C12.9814 14.8145 12.7544 15.2392 12.6625 15.7015C12.5705 16.1639 12.6177 16.6431 12.7981 17.0786C12.9785 17.5141 13.284 17.8863 13.6759 18.1482Z" fill="white" stroke="#27AB60" stroke-width="0.1"/>
</svg>
