<svg width="16" height="16" viewBox="0 0 16 16" fill="none" xmlns="http://www.w3.org/2000/svg">
<path d="M6.06078 13.5432H2.52078C1.93078 13.5432 1.45078 13.0652 1.45078 12.4782V5.86321H14.5458V7.61871C14.5458 7.86721 14.7473 8.06871 14.9958 8.06871C15.2443 8.06871 15.4458 7.86721 15.4458 7.61871V3.51871C15.4458 2.43521 14.5643 1.55371 13.4808 1.55371H2.52078C1.43478 1.55371 0.550781 2.43521 0.550781 3.51871V12.4787C0.550781 13.5622 1.43478 14.4437 2.52078 14.4437H6.06078C6.30928 14.4437 6.51078 14.2422 6.51078 13.9937C6.51078 13.7452 6.30928 13.5432 6.06078 13.5432ZM2.52078 2.45321H13.4808C14.0683 2.45321 14.5458 2.93121 14.5458 3.51821V4.96271H1.45078V3.51871C1.45078 2.93121 1.93078 2.45321 2.52078 2.45321Z" fill="black"/>
<path d="M3.1488 4.13696C3.3873 4.13696 3.5808 3.94346 3.5808 3.70496C3.5808 3.46646 3.3873 3.27246 3.1488 3.27246C2.9103 3.27246 2.7168 3.46596 2.7168 3.70446C2.7168 3.94296 2.9098 4.13696 3.1488 4.13696Z" fill="black"/>
<path d="M4.67223 4.13696C4.91073 4.13696 5.10423 3.94346 5.10423 3.70496C5.10423 3.46646 4.91073 3.27246 4.67223 3.27246C4.43373 3.27246 4.24023 3.46596 4.24023 3.70446C4.24023 3.94296 4.43323 4.13696 4.67223 4.13696Z" fill="black"/>
<path d="M6.19372 4.13744C6.43222 4.13744 6.62572 3.94394 6.62572 3.70544C6.62572 3.46694 6.43222 3.27344 6.19372 3.27344C5.95522 3.27344 5.76172 3.46694 5.76172 3.70544C5.76172 3.94394 5.95472 4.13744 6.19372 4.13744Z" fill="black"/>
<path d="M15.1928 9.52663C14.7008 9.08263 13.9883 8.82812 13.2388 8.82812C12.5823 8.82812 11.9523 9.02563 11.4773 9.36913C11.0023 9.02513 10.3723 8.82812 9.71581 8.82812C8.96631 8.82812 8.25381 9.08262 7.76231 9.52612C7.60031 9.67162 7.50781 9.88563 7.50781 10.1126V13.3041C7.50781 13.5846 7.65031 13.8376 7.88931 13.9816C8.13481 14.1296 8.43531 14.1371 8.69131 14.0006C8.98981 13.8426 9.34431 13.7591 9.71631 13.7591C10.2943 13.7591 10.8298 13.9626 11.1498 14.3031C11.2348 14.3936 11.3538 14.4451 11.4778 14.4451C11.6018 14.4451 11.7208 14.3936 11.8058 14.3031C12.1258 13.9621 12.6613 13.7591 13.2393 13.7591C13.6113 13.7591 13.9658 13.8426 14.2643 14.0006C14.5213 14.1366 14.8208 14.1296 15.0663 13.9816C15.3053 13.8376 15.4478 13.5846 15.4478 13.3041V10.1126C15.4473 9.88563 15.3543 9.67213 15.1928 9.52663ZM8.40731 13.1376V10.1581C8.73531 9.88462 9.20831 9.72863 9.71581 9.72863C10.2303 9.72863 10.7023 9.89663 11.0273 10.1726V13.1456C10.6333 12.9641 10.1823 12.8606 9.71581 12.8606C9.25231 12.8596 8.80331 12.9556 8.40731 13.1376ZM14.5473 13.1376C13.7523 12.7716 12.7198 12.7961 11.9273 13.1506V10.1721C12.2523 9.89612 12.7243 9.72813 13.2388 9.72813C13.7458 9.72813 14.2188 9.88413 14.5473 10.1576V13.1376Z" fill="black"/>
</svg>
