<svg width="16" height="16" viewBox="0 0 16 16" fill="none" xmlns="http://www.w3.org/2000/svg">
<g clip-path="url(#clip0_85_3406)">
<path d="M8 0C12.4114 0 16 3.58862 16 8C16 12.4114 12.4114 16 8 16C3.58862 16 0 12.4114 0 8C0 3.58862 3.58862 0 8 0Z" fill="#F44336"/>
<path d="M5.05399 10.0032C4.79337 10.2639 4.79337 10.6852 5.05399 10.946C5.18399 11.076 5.35464 11.1413 5.52542 11.1413C5.69608 11.1413 5.86673 11.076 5.99673 10.946L8.00003 8.94254L10.0033 10.946C10.1333 11.076 10.304 11.1413 10.4746 11.1413C10.6454 11.1413 10.8161 11.076 10.9461 10.946C11.2067 10.6852 11.2067 10.2639 10.9461 10.0032L8.94266 7.99991L10.9461 5.99661C11.2067 5.73587 11.2067 5.31461 10.9461 5.05386C10.6853 4.79324 10.2641 4.79324 10.0033 5.05386L8.00003 7.05728L5.99673 5.05386C5.73599 4.79324 5.31473 4.79324 5.05399 5.05386C4.79337 5.31461 4.79337 5.73587 5.05399 5.99661L7.0574 7.99991L5.05399 10.0032Z" fill="#FAFAFA"/>
</g>
<defs>
<clipPath id="clip0_85_3406">
<rect width="16" height="16" fill="white" transform="matrix(-1 0 0 1 16 0)"/>
</clipPath>
</defs>
</svg>
