<svg width="38" height="38" viewBox="0 0 38 38" fill="none" xmlns="http://www.w3.org/2000/svg">
<rect width="38" height="38" rx="19" fill="#27AB60"/>
<g clip-path="url(#clip0_6_4519)">
<path d="M18.2444 24.4823C19.8533 24.4823 21.4161 23.9455 22.6854 22.9569L27.474 27.7455C27.8317 28.0909 28.4017 28.081 28.7472 27.7233C29.0842 27.3744 29.0842 26.8212 28.7472 26.4722L23.9586 21.6837C26.4118 18.5258 25.8406 13.9771 22.6827 11.5239C19.5248 9.07073 14.9761 9.64199 12.5229 12.7999C10.0698 15.9578 10.641 20.5065 13.7989 22.9597C15.0703 23.9473 16.6345 24.4831 18.2444 24.4823ZM14.3969 13.3951C16.5218 11.27 19.9671 11.27 22.0921 13.395C24.2171 15.52 24.2172 18.9652 22.0922 21.0903C19.9672 23.2153 16.522 23.2153 14.3969 21.0903C14.3969 21.0903 14.3969 21.0903 14.3969 21.0903C12.2719 18.9808 12.2594 15.548 14.3689 13.4231C14.3782 13.4137 14.3875 13.4044 14.3969 13.3951Z" fill="white"/>
</g>
<defs>
<clipPath id="clip0_6_4519">
<rect width="18" height="18" fill="white" transform="translate(11 10)"/>
</clipPath>
</defs>
</svg>
