<svg width="16" height="16" viewBox="0 0 16 16" fill="none" xmlns="http://www.w3.org/2000/svg">
<g clip-path="url(#clip0_210_2588)">
<path d="M12.6875 5.625C11.7612 5.625 10.945 5.16934 10.4323 4.47641L5.99969 6.74613C6.07328 6.99697 6.125 7.25694 6.125 7.53125C6.125 7.90331 6.04872 8.25703 5.91694 8.58238L10.5558 11.3739C11.0721 10.768 11.8309 10.375 12.6875 10.375C14.2384 10.375 15.5 11.6366 15.5 13.1875C15.5 14.7384 14.2384 16 12.6875 16C11.1366 16 9.875 14.7384 9.875 13.1875C9.875 12.8301 9.94859 12.4911 10.0707 12.1763L5.41797 9.37663C4.90216 9.9645 4.15428 10.3438 3.3125 10.3438C1.76159 10.3438 0.5 9.08216 0.5 7.53125C0.5 5.98034 1.76159 4.71875 3.3125 4.71875C4.25406 4.71875 5.08409 5.18778 5.59484 5.90019L10.0128 3.63784C9.93147 3.37516 9.875 3.10156 9.875 2.8125C9.875 1.26159 11.1366 0 12.6875 0C14.2384 0 15.5 1.26159 15.5 2.8125C15.5 4.36341 14.2384 5.625 12.6875 5.625Z" fill="#388F91"/>
</g>
<defs>
<clipPath id="clip0_210_2588">
<rect width="16" height="16" fill="white" transform="matrix(1 0 0 -1 0 16)"/>
</clipPath>
</defs>
</svg>
