<svg width="22" height="22" viewBox="0 0 22 22" fill="none" xmlns="http://www.w3.org/2000/svg">
<g clip-path="url(#clip0_1_10133)">
<rect x="1.375" y="1.37402" width="19.25" height="19.25" rx="2" fill="#27AB60"/>
<path d="M17.3164 0.756348H4.68355C2.51792 0.756348 0.755859 2.51841 0.755859 4.68404V17.3168C0.755859 19.4825 2.51792 21.2438 4.68355 21.2438H17.3164C19.4813 21.2438 21.244 19.4818 21.244 17.3168V4.68404C21.2434 2.51841 19.4813 0.756348 17.3164 0.756348ZM20.0059 17.3168C20.0059 18.7998 18.7993 20.007 17.3164 20.007H4.68355C3.20061 20.007 1.99405 18.8005 1.99405 17.3168V4.68404C1.99336 3.20041 3.19992 1.99385 4.68355 1.99385H17.3164C18.7993 1.99385 20.0059 3.20041 20.0059 4.68404V17.3168Z" fill="#27AB60"/>
<path d="M13.3821 13.603H8.61638C6.93063 13.603 5.54257 14.921 5.45594 16.6047C5.43807 16.9463 5.7 17.2365 6.04238 17.2543C6.38613 17.2715 6.67419 17.0096 6.69138 16.6679C6.74432 15.6428 7.58994 14.8398 8.61638 14.8398H13.3821C14.4086 14.8398 15.2542 15.6428 15.3071 16.6679C15.3236 16.9979 15.5973 17.255 15.9238 17.255C15.9348 17.255 15.9451 17.255 15.9561 17.2543C16.2978 17.2365 16.5604 16.9457 16.5426 16.6047C16.4559 14.921 15.0679 13.603 13.3821 13.603Z" fill="white"/>
<path d="M10.9998 12.2148C13.0589 12.2148 14.735 10.5394 14.735 8.4803C14.735 6.42124 13.0589 4.74512 10.9998 4.74512C8.94077 4.74512 7.26465 6.42055 7.26465 8.47962C7.26465 10.5387 8.94077 12.2148 10.9998 12.2148ZM10.9998 5.98262C12.3769 5.98262 13.4968 7.10255 13.4968 8.47962C13.4968 9.85668 12.3769 10.9773 10.9998 10.9773C9.62277 10.9773 8.50284 9.85737 8.50284 8.4803C8.50284 7.10324 9.62277 5.98262 10.9998 5.98262Z" fill="white"/>
</g>
<defs>
<clipPath id="clip0_1_10133">
<rect width="22" height="22" fill="white"/>
</clipPath>
</defs>
</svg>
