<svg width="22" height="22" viewBox="0 0 22 22" fill="none" xmlns="http://www.w3.org/2000/svg">
<g clip-path="url(#clip0_1_4186)">
<rect x="1.375" y="1.37305" width="19.25" height="19.25" rx="2" fill="#777777"/>
<path d="M17.3164 0.755859H4.68355C2.51792 0.755859 0.755859 2.51792 0.755859 4.68355V17.3164C0.755859 19.482 2.51792 21.2434 4.68355 21.2434H17.3164C19.4813 21.2434 21.244 19.4813 21.244 17.3164V4.68355C21.2434 2.51792 19.4813 0.755859 17.3164 0.755859ZM20.0059 17.3164C20.0059 18.7993 18.7993 20.0065 17.3164 20.0065H4.68355C3.20061 20.0065 1.99405 18.8 1.99405 17.3164V4.68355C1.99336 3.19992 3.19992 1.99336 4.68355 1.99336H17.3164C18.7993 1.99336 20.0059 3.19992 20.0059 4.68355V17.3164Z" fill="#777777"/>
<path d="M13.3821 13.6025H8.61638C6.93063 13.6025 5.54257 14.9205 5.45594 16.6042C5.43807 16.9459 5.7 17.236 6.04238 17.2539C6.38613 17.271 6.67419 17.0091 6.69138 16.6674C6.74432 15.6424 7.58994 14.8394 8.61638 14.8394H13.3821C14.4086 14.8394 15.2542 15.6424 15.3071 16.6674C15.3236 16.9974 15.5973 17.2545 15.9238 17.2545C15.9348 17.2545 15.9451 17.2545 15.9561 17.2539C16.2978 17.236 16.5604 16.9452 16.5426 16.6042C16.4559 14.9205 15.0679 13.6025 13.3821 13.6025Z" fill="white"/>
<path d="M10.9998 12.2148C13.0589 12.2148 14.735 10.5394 14.735 8.4803C14.735 6.42124 13.0589 4.74512 10.9998 4.74512C8.94077 4.74512 7.26465 6.42055 7.26465 8.47962C7.26465 10.5387 8.94077 12.2148 10.9998 12.2148ZM10.9998 5.98262C12.3769 5.98262 13.4968 7.10255 13.4968 8.47962C13.4968 9.85668 12.3769 10.9773 10.9998 10.9773C9.62277 10.9773 8.50284 9.85737 8.50284 8.4803C8.50284 7.10324 9.62277 5.98262 10.9998 5.98262Z" fill="white"/>
</g>
<defs>
<clipPath id="clip0_1_4186">
<rect width="22" height="22" fill="white"/>
</clipPath>
</defs>
</svg>
