<svg width="16" height="16" viewBox="0 0 16 16" fill="none" xmlns="http://www.w3.org/2000/svg">
<path d="M8.26266 2.50118L7.15562 1.92862C5.35887 1.00937 3.21316 1.00918 1.41372 1.92978L0.308937 2.50118C0.119062 2.59946 0 2.79509 0 3.00881V14.1897C0 14.3892 0.104 14.5743 0.274281 14.6777C0.44475 14.7816 0.656937 14.7888 0.833906 14.6974L1.93656 14.1271C3.40741 13.3745 5.164 13.3742 6.63275 14.1259L7.7375 14.6974C7.81997 14.74 7.91006 14.7612 7.99997 14.7612C8.10322 14.7612 8.20606 14.7334 8.29712 14.6779C8.46741 14.5743 8.57141 14.3892 8.57141 14.1897V3.00881C8.57144 2.79509 8.45219 2.59928 8.26266 2.50118ZM7.42856 13.2507L7.15541 13.1096C6.25713 12.6499 5.27197 12.4202 4.28625 12.4202C3.30016 12.4202 2.3135 12.6503 1.4135 13.1107L1.14284 13.2507V3.35643L1.93638 2.94596C3.40744 2.1934 5.164 2.19321 6.63275 2.94481L7.42856 3.35643V13.2507Z" fill="black"/>
<path d="M15.6904 2.50077L14.5833 1.9282C12.7862 1.00877 10.6403 1.00877 8.84142 1.92936L7.73667 2.5008C7.54677 2.59908 7.42773 2.7947 7.42773 3.00842V14.1894C7.42773 14.3888 7.53173 14.5739 7.70202 14.6774C7.87267 14.7812 8.08486 14.7884 8.26164 14.697L9.36411 14.1267C10.835 13.3741 12.5914 13.3741 14.0605 14.1255L15.1652 14.697C15.2477 14.7396 15.3376 14.7608 15.4277 14.7608C15.5308 14.7608 15.6338 14.733 15.7249 14.6775C15.8951 14.5739 15.9991 14.3888 15.9991 14.1894V3.00839C15.9991 2.79467 15.8799 2.59886 15.6904 2.50077ZM14.8563 13.2503L14.5831 13.1091C13.685 12.6495 12.6999 12.4198 11.714 12.4198C10.7279 12.4198 9.74123 12.6499 8.84142 13.1103L8.57058 13.2503V3.35602L9.36411 2.94555C10.835 2.19298 12.5914 2.19317 14.0605 2.94439L14.8563 3.35602V13.2503Z" fill="black"/>
</svg>
