<svg width="46" height="46" viewBox="0 0 46 46" fill="none" xmlns="http://www.w3.org/2000/svg">
<rect width="46" height="46" rx="23" fill="#27AE60"/>
<g clip-path="url(#clip0_65_12164)">
<path d="M30.9963 19.8218C29.8871 15.403 25.4058 12.7201 20.987 13.8293C17.5339 14.6961 15.0265 17.6807 14.7681 21.2316C12.3162 21.6359 10.6563 23.9514 11.0607 26.4033C11.4201 28.583 13.3089 30.1794 15.518 30.1706H19.2676V28.6708H15.518C13.8614 28.6708 12.5184 27.3278 12.5184 25.6711C12.5184 24.0144 13.8614 22.6714 15.518 22.6714C15.9322 22.6714 16.2679 22.3357 16.2679 21.9215C16.2642 18.194 19.2829 15.1692 23.0105 15.1655C26.2372 15.1623 29.0148 17.4434 29.639 20.6092C29.7006 20.9252 29.9571 21.1667 30.2764 21.2091C32.3266 21.501 33.7519 23.3997 33.46 25.4498C33.1978 27.2908 31.626 28.6615 29.7665 28.6708H26.7668V30.1706H29.7665C32.6656 30.1618 35.0088 27.8045 35 24.9053C34.9926 22.492 33.3408 20.3945 30.9963 19.8218Z" fill="white"/>
<path d="M22.484 22.889L19.4844 25.8887L20.5418 26.946L22.2666 25.2287V32.4204H23.7664V25.2287L25.4837 26.946L26.5411 25.8887L23.5414 22.889C23.2489 22.5982 22.7766 22.5982 22.484 22.889Z" fill="white"/>
</g>
<defs>
<clipPath id="clip0_65_12164">
<rect width="24" height="24" fill="white" transform="translate(11 11)"/>
</clipPath>
</defs>
</svg>
