<svg width="24" height="24" viewBox="0 0 24 24" fill="none" xmlns="http://www.w3.org/2000/svg">
<rect width="24" height="24" rx="5" fill="#27AB60"/>
<path d="M3.99609 12.0604L6.40797 14.3197L7.89791 12.8725L7.0365 12.0606L7.89791 11.2506L6.40797 9.79889" fill="white"/>
<path d="M20.1362 12.0627L17.7243 9.80353L16.2344 11.2506L17.0959 12.0625L16.2344 12.8726L17.7243 14.3242" fill="white"/>
<path d="M8.76309 9.70422C8.87353 10.1124 9.07131 10.561 9.37488 10.8646C9.37488 10.8646 9.91658 11.4063 10.5216 12.0113C10.5216 12.0113 11.3927 12.8824 12.1607 13.6504C12.7662 14.2559 13.3075 14.7972 13.3075 14.7972C13.5575 15.0472 13.477 15.5875 13.3359 15.875C13.2131 16.1253 12.9599 16.3421 12.7641 16.5387C12.5363 16.7675 12.3003 16.9879 12.075 17.2191L10.9325 16.0766C10.4671 15.0709 11.1975 14.4031 11.1975 14.4031L9.7419 12.9476C7.56321 15.3767 9.43974 17.4755 9.43974 17.4755L12.0848 20.1205C12.0872 20.123 13.4083 18.8267 13.4975 18.7395C13.8291 18.4153 14.1607 18.0911 14.4923 17.767C15.3648 16.914 15.779 15.5938 15.4605 14.4164C15.3501 14.0084 15.1523 13.5596 14.8487 13.2561C14.8487 13.2561 14.3071 12.7144 13.702 12.1093C12.934 11.3413 12.0629 10.4701 12.0629 10.4701C11.4575 9.86479 10.9162 9.32339 10.9162 9.32339C10.6661 9.07337 10.7466 8.53308 10.8877 8.24554C11.0106 7.99522 11.2637 7.77848 11.4596 7.58181C11.6873 7.35307 11.9233 7.13259 12.1486 6.90143L13.2911 8.04393C13.7566 9.04967 13.0262 9.71743 13.0262 9.71743L14.4817 11.173C16.6604 8.74387 14.7839 6.64506 14.7839 6.64506L12.1388 4C12.1364 3.99758 10.8153 5.29389 10.7262 5.38103C10.3945 5.70518 10.0629 6.02943 9.73131 6.35358C8.8588 7.20672 8.44459 8.52693 8.76309 9.70422Z" fill="white"/>
</svg>
