<svg width="30" height="30" viewBox="0 0 30 30" fill="none" xmlns="http://www.w3.org/2000/svg">
<rect width="30" height="30" rx="10" fill="black" fill-opacity="0.1"/>
<path fill-rule="evenodd" clip-rule="evenodd" d="M14.8548 7.29199C12.3985 7.29199 10.4073 9.28319 10.4073 11.7395V13.4832C10.4073 14.0772 10.2156 14.6068 9.98733 15.0642C9.82738 15.3846 9.62707 15.7092 9.44807 15.9993C9.38079 16.1084 9.31651 16.2126 9.25852 16.3098C9.06777 16.6297 8.95801 17.0034 8.95801 17.4046C8.95801 18.4431 9.69658 19.3122 10.6963 19.4507C12.0051 19.6322 13.6114 19.8103 14.8548 19.8103C16.0981 19.8103 17.7044 19.6322 19.0133 19.4507C20.0129 19.3122 20.7515 18.4431 20.7515 17.4046C20.7515 17.0034 20.6418 16.6297 20.451 16.3098C20.393 16.2126 20.3287 16.1084 20.2614 15.9993C20.0824 15.7092 19.8821 15.3846 19.7222 15.0642C19.4939 14.6068 19.3023 14.0773 19.3023 13.4832V11.7395C19.3023 9.28319 17.311 7.29199 14.8548 7.29199ZM9.15729 11.7395C9.15729 8.59283 11.7081 6.04199 14.8548 6.04199C18.0013 6.04199 20.5523 8.59283 20.5523 11.7395V13.4832C20.5523 13.8062 20.656 14.1361 20.8406 14.5058C20.974 14.7732 21.1271 15.0211 21.294 15.2915C21.3683 15.4118 21.4453 15.5367 21.5246 15.6696C21.8276 16.1777 22.0015 16.7717 22.0015 17.4046C22.0015 19.0377 20.8314 20.4607 19.1849 20.6889C17.8659 20.8718 16.1887 21.0603 14.8548 21.0603C13.5208 21.0603 11.8436 20.8718 10.5246 20.6889C8.8781 20.4607 7.70801 19.0377 7.70801 17.4046C7.70801 16.7717 7.88192 16.1777 8.18493 15.6696C8.26421 15.5367 8.34123 15.4118 8.41552 15.2915C8.58245 15.0211 8.73551 14.7732 8.86893 14.5058C9.05352 14.1361 9.15729 13.8062 9.15729 13.4832V11.7395Z" fill="black"/>
<path fill-rule="evenodd" clip-rule="evenodd" d="M17.0123 21.8419C16.7248 21.6508 16.3369 21.7289 16.1458 22.0163C15.8672 22.4352 15.3928 22.7091 14.8546 22.7091C14.3165 22.7091 13.842 22.4352 13.5635 22.0163C13.3724 21.7289 12.9844 21.6508 12.697 21.8419C12.4095 22.0331 12.3315 22.421 12.5226 22.7084C13.023 23.461 13.8805 23.9591 14.8546 23.9591C15.8288 23.9591 16.6863 23.461 17.1867 22.7084C17.3778 22.421 17.2997 22.0331 17.0123 21.8419Z" fill="black"/>
</svg>
