<svg width="22" height="22" viewBox="0 0 22 22" fill="none" xmlns="http://www.w3.org/2000/svg">
<path d="M14.6663 1.83301H3.66634C3.1803 1.83364 2.71436 2.027 2.37068 2.37068C2.027 2.71436 1.83364 3.1803 1.83301 3.66634V17.4163C1.8338 18.1454 2.12379 18.8445 2.63934 19.36C3.1549 19.8756 3.85391 20.1655 4.58301 20.1663H15.583C15.7034 20.1664 15.8226 20.1427 15.9339 20.0967C16.0451 20.0507 16.1462 19.9831 16.2313 19.898C16.3165 19.8129 16.384 19.7118 16.43 19.6005C16.4761 19.4893 16.4997 19.3701 16.4997 19.2497V3.66634C16.499 3.1803 16.3057 2.71436 15.962 2.37068C15.6183 2.027 15.1524 1.83364 14.6663 1.83301ZM5.95801 5.49967H8.70801C8.95112 5.49967 9.18428 5.59625 9.35619 5.76816C9.5281 5.94007 9.62467 6.17323 9.62467 6.41634C9.62467 6.65946 9.5281 6.89261 9.35619 7.06452C9.18428 7.23643 8.95112 7.33301 8.70801 7.33301H5.95801C5.71489 7.33301 5.48174 7.23643 5.30983 7.06452C5.13792 6.89261 5.04134 6.65946 5.04134 6.41634C5.04134 6.17323 5.13792 5.94007 5.30983 5.76816C5.48174 5.59625 5.71489 5.49967 5.95801 5.49967ZM12.3747 16.958H5.95801C5.71489 16.958 5.48174 16.8614 5.30983 16.6895C5.13792 16.5176 5.04134 16.2845 5.04134 16.0413C5.04134 15.7982 5.13792 15.5651 5.30983 15.3932C5.48174 15.2213 5.71489 15.1247 5.95801 15.1247H12.3747C12.6178 15.1247 12.8509 15.2213 13.0229 15.3932C13.1948 15.5651 13.2913 15.7982 13.2913 16.0413C13.2913 16.2845 13.1948 16.5176 13.0229 16.6895C12.8509 16.8614 12.6178 16.958 12.3747 16.958ZM12.3747 13.7497H5.95801C5.71489 13.7497 5.48174 13.6531 5.30983 13.4812C5.13792 13.3093 5.04134 13.0761 5.04134 12.833C5.04134 12.5899 5.13792 12.3567 5.30983 12.1848C5.48174 12.0129 5.71489 11.9163 5.95801 11.9163H12.3747C12.6178 11.9163 12.8509 12.0129 13.0229 12.1848C13.1948 12.3567 13.2913 12.5899 13.2913 12.833C13.2913 13.0761 13.1948 13.3093 13.0229 13.4812C12.8509 13.6531 12.6178 13.7497 12.3747 13.7497ZM12.3747 10.5413H5.95801C5.71489 10.5413 5.48174 10.4448 5.30983 10.2729C5.13792 10.1009 5.04134 9.86779 5.04134 9.62467C5.04134 9.38156 5.13792 9.1484 5.30983 8.97649C5.48174 8.80459 5.71489 8.70801 5.95801 8.70801H12.3747C12.6178 8.70801 12.8509 8.80459 13.0229 8.97649C13.1948 9.1484 13.2913 9.38156 13.2913 9.62467C13.2913 9.86779 13.1948 10.1009 13.0229 10.2729C12.8509 10.4448 12.6178 10.5413 12.3747 10.5413Z" fill="#777777"/>
<path d="M17.416 20.1663H15.5827C15.4623 20.1664 15.3431 20.1427 15.2318 20.0967C15.1206 20.0507 15.0195 19.9831 14.9343 19.898C14.8492 19.8129 14.7817 19.7118 14.7357 19.6006C14.6896 19.4893 14.6659 19.3701 14.666 19.2497V8.24967C14.6659 8.12928 14.6896 8.01005 14.7357 7.8988C14.7817 7.78755 14.8492 7.68647 14.9343 7.60134C15.0195 7.51621 15.1206 7.44869 15.2318 7.40265C15.3431 7.3566 15.4623 7.33294 15.5827 7.33301H19.2493C19.3697 7.33294 19.489 7.3566 19.6002 7.40265C19.7115 7.44869 19.8125 7.51621 19.8977 7.60134C19.9828 7.68647 20.0503 7.78755 20.0964 7.8988C20.1424 8.01005 20.1661 8.12928 20.166 8.24967V17.4163C20.1652 18.1454 19.8752 18.8445 19.3597 19.36C18.8441 19.8756 18.1451 20.1655 17.416 20.1663ZM16.4993 18.333H17.416C17.6591 18.3328 17.8921 18.2362 18.064 18.0643C18.2359 17.8925 18.3325 17.6594 18.3327 17.4163V9.16634H16.4993V18.333Z" fill="#777777"/>
</svg>
