<svg width="18" height="18" viewBox="0 0 18 18" fill="none" xmlns="http://www.w3.org/2000/svg">
<path fill-rule="evenodd" clip-rule="evenodd" d="M10.6782 2.37069C9.69426 1.59388 8.30576 1.59388 7.32181 2.37069L2.73848 5.98912C2.0879 6.50273 1.70834 7.28597 1.70834 8.11484V13.5828C1.70834 15.0786 2.9209 16.2912 4.41668 16.2912H5.66668C5.78174 16.2912 5.87501 16.1979 5.87501 16.0828V13.5828C5.87501 12.3172 6.90103 11.2912 8.16668 11.2912H9.83334C11.099 11.2912 12.125 12.3172 12.125 13.5828V16.0828C12.125 16.1979 12.2183 16.2912 12.3333 16.2912H13.5833C15.0791 16.2912 16.2917 15.0786 16.2917 13.5828V8.11484C16.2917 7.28597 15.9121 6.50273 15.2615 5.98912L10.6782 2.37069ZM6.54725 1.38959C7.98534 0.25425 10.0147 0.25425 11.4528 1.38959L16.0361 5.00802C16.9869 5.75868 17.5417 6.90341 17.5417 8.11484V13.5828C17.5417 15.7689 15.7695 17.5412 13.5833 17.5412H12.3333C11.5279 17.5412 10.875 16.8883 10.875 16.0828V13.5828C10.875 13.0075 10.4087 12.5412 9.83334 12.5412H8.16668C7.59134 12.5412 7.12501 13.0075 7.12501 13.5828V16.0828C7.12501 16.8883 6.47209 17.5412 5.66668 17.5412H4.41668C2.23055 17.5412 0.458344 15.7689 0.458344 13.5828V8.11484C0.458344 6.90341 1.01309 5.75868 1.96392 5.00801L6.54725 1.38959Z" fill="#777777"/>
</svg>
