<svg width="24" height="24" viewBox="0 0 24 24" fill="none" xmlns="http://www.w3.org/2000/svg">
<g clip-path="url(#clip0_302_8938)">
<path d="M19.9963 8.82179C18.8871 4.40299 14.4058 1.72007 9.98704 2.82929C6.53385 3.69615 4.02646 6.68068 3.76811 10.2316C1.31621 10.6359 -0.343691 12.9514 0.0606558 15.4033C0.420101 17.583 2.30886 19.1794 4.51803 19.1706H8.26762V17.6708H4.51803C2.86136 17.6708 1.51836 16.3278 1.51836 14.6711C1.51836 13.0144 2.86136 11.6714 4.51803 11.6714C4.93222 11.6714 5.26794 11.3357 5.26794 10.9215C5.2642 7.194 8.28294 4.16921 12.0105 4.1655C15.2372 4.16227 18.0148 6.44343 18.639 9.60916C18.7006 9.92525 18.9571 10.1667 19.2764 10.2091C21.3266 10.501 22.7519 12.3997 22.46 14.4498C22.1978 16.2908 20.626 17.6615 18.7665 17.6708H15.7668V19.1706H18.7665C21.6656 19.1618 24.0088 16.8045 24 13.9053C23.9926 11.492 22.3408 9.39449 19.9963 8.82179Z" fill="white"/>
<path d="M11.484 11.889L8.48438 14.8887L9.54176 15.946L11.2666 14.2287V21.4204H12.7664V14.2287L14.4837 15.946L15.5411 14.8887L12.5414 11.889C12.2489 11.5982 11.7766 11.5982 11.484 11.889Z" fill="white"/>
</g>
<defs>
<clipPath id="clip0_302_8938">
<rect width="24" height="24" fill="white"/>
</clipPath>
</defs>
</svg>
