<svg width="16" height="16" viewBox="0 0 16 16" fill="none" xmlns="http://www.w3.org/2000/svg">
<path d="M8.00034 5.71191C7.60291 5.71191 7.32031 5.87973 7.32031 6.12701V9.49179C7.32031 9.70373 7.60294 9.9157 8.00034 9.9157C8.38009 9.9157 8.68919 9.70373 8.68919 9.49179V6.12701C8.68919 5.87973 8.38009 5.71191 8.00034 5.71191Z" fill="black"/>
<path d="M7.99958 3.63672C7.59333 3.63672 7.27539 3.92816 7.27539 4.26375C7.27539 4.59934 7.59333 4.89963 7.99958 4.89963C8.39702 4.89963 8.71495 4.59934 8.71495 4.26375C8.71495 3.92819 8.39698 3.63672 7.99958 3.63672Z" fill="black"/>
<path d="M8 0C4.19994 0 1.125 3.07337 1.125 6.87103C1.125 9.972 3.16666 12.5468 5.91928 13.4213L7.48278 15.7259C7.59909 15.8973 7.79281 16 8 16C8.20719 16 8.40091 15.8973 8.51722 15.7259L10.0807 13.4213C12.8346 12.5464 14.875 9.97066 14.875 6.87103C14.875 3.07097 11.7976 0 8 0ZM9.52016 12.2843C9.37781 12.3242 9.25422 12.4131 9.17125 12.5354L8 14.2618L6.82878 12.5354C6.74578 12.4131 6.62219 12.3242 6.47984 12.2844C4.13678 11.6292 2.375 9.47441 2.375 6.87103C2.375 3.77156 4.89838 1.25 8 1.25C11.1016 1.25 13.625 3.77156 13.625 6.87103C13.625 9.477 11.8606 11.6299 9.52016 12.2843Z" fill="black"/>
</svg>
