<svg width="24" height="24" viewBox="0 0 24 24" fill="none" xmlns="http://www.w3.org/2000/svg">
<rect width="24" height="24" rx="5" fill="#777777"/>
<path d="M15.7057 10.7646V9.1175C15.7057 7.05868 14.0586 5.41162 11.9998 5.41162C9.94095 5.41162 8.29389 7.05868 8.29389 9.1175V10.7646C7.59389 10.7646 7.05859 11.2999 7.05859 11.9999V17.3528C7.05859 18.0116 7.59389 18.5881 8.29389 18.5881H15.7057C16.4057 18.5881 16.9409 18.0116 16.9409 17.3528V11.9999C16.9409 11.2999 16.4057 10.7646 15.7057 10.7646ZM9.11742 9.1175C9.11742 7.51162 10.3939 6.23515 11.9998 6.23515C13.6057 6.23515 14.8821 7.51162 14.8821 9.1175V10.7646H9.11742V9.1175ZM12.4115 15.2116V16.1175C12.4115 16.3646 12.2468 16.5293 11.9998 16.5293C11.7527 16.5293 11.588 16.3646 11.588 16.1175V15.2116C11.0939 15.0469 10.7645 14.594 10.7645 14.0587C10.7645 13.3587 11.2998 12.8234 11.9998 12.8234C12.6998 12.8234 13.2351 13.3587 13.2351 14.0587C13.2351 14.594 12.9057 15.0469 12.4115 15.2116Z" fill="white"/>
</svg>
