<svg width="24" height="24" viewBox="0 0 24 24" fill="none" xmlns="http://www.w3.org/2000/svg">
<rect width="24" height="24" rx="5" fill="#388F91"/>
<path d="M15.8861 10.8408L9.46946 7.22059C9.25991 7.10084 9.02238 7.03872 8.78103 7.04057C8.53968 7.04241 8.30312 7.10815 8.09542 7.23109C7.89307 7.34682 7.72496 7.51405 7.60816 7.71578C7.49136 7.91751 7.43004 8.14657 7.43042 8.37968V15.62C7.43004 15.8531 7.49136 16.0822 7.60816 16.2839C7.72496 16.4856 7.89307 16.6529 8.09542 16.7686C8.30314 16.8915 8.53969 16.9572 8.78103 16.959C9.02237 16.9609 9.25989 16.8988 9.46946 16.7791L15.8861 13.1589C16.0931 13.0443 16.2656 12.8763 16.3857 12.6725C16.5058 12.4687 16.5691 12.2364 16.5691 11.9998C16.5691 11.7633 16.5058 11.531 16.3857 11.3272C16.2656 11.1234 16.0931 10.9554 15.8861 10.8408Z" fill="white"/>
</svg>
